<svg width="55" height="71" viewBox="0 0 55 71" fill="none" xmlns="http://www.w3.org/2000/svg">
<path d="M11.4396 51.4616V53.781H0.561638V51.9472L6.42208 46.3809C7.0828 45.7488 7.52909 45.1975 7.76095 44.7263C7.99282 44.2556 8.10894 43.7885 8.10894 43.3244C8.10894 42.6359 7.87708 42.1091 7.41335 41.7429C6.94962 41.3778 6.26775 41.195 5.36774 41.195C3.86414 41.195 2.7115 41.708 1.91091 42.7338L-0.0078125 41.2576C0.568325 40.4853 1.34479 39.8843 2.32159 39.4554C3.29839 39.0269 4.39093 38.8125 5.60034 38.8125C7.20225 38.8125 8.4814 39.192 9.43706 39.9507C10.3927 40.7101 10.8702 41.7425 10.8702 43.0499C10.8702 43.8512 10.7021 44.6036 10.3645 45.3058C10.0269 46.0088 9.38067 46.8098 8.42464 47.7091L4.48294 51.4616H11.4396Z" fill="white"/>
<path d="M15.8993 50.7751C14.9719 50.1778 14.2407 49.3067 13.7068 48.1611C13.173 47.0155 12.9062 45.6559 12.9062 44.0818C12.9062 42.5081 13.173 41.148 13.7068 40.0024C14.2407 38.8568 14.9719 37.9858 15.8993 37.3881C16.8275 36.7912 17.8811 36.4922 19.062 36.4922C20.2424 36.4922 21.2994 36.7912 22.2343 37.3881C23.1691 37.9858 23.9029 38.8568 24.4375 40.0024C24.9714 41.148 25.2389 42.5081 25.2389 44.0818C25.2389 45.6559 24.9714 47.0155 24.4375 48.1611C23.9029 49.3067 23.1688 50.1778 22.2343 50.7751C21.2998 51.3723 20.2424 51.671 19.062 51.671C17.8808 51.671 16.8275 51.3727 15.8993 50.7751ZM21.5594 47.9819C22.1708 47.1105 22.4769 45.8106 22.4769 44.0818C22.4769 42.353 22.1712 41.0531 21.5594 40.1813C20.9481 39.3102 20.1152 38.8743 19.062 38.8743C18.0214 38.8743 17.1963 39.3106 16.5845 40.1813C15.9732 41.0531 15.6671 42.353 15.6671 44.0818C15.6671 45.8106 15.9728 47.1105 16.5845 47.9819C17.1963 48.8534 18.0214 49.2885 19.062 49.2885C20.1156 49.2889 20.9481 48.8534 21.5594 47.9819Z" fill="white"/>
<path d="M39.2968 49.3172V52.1467H26.0233V49.9086L33.1741 43.1173C33.9806 42.3457 34.5248 41.6727 34.8079 41.0985C35.0909 40.5242 35.2327 39.9536 35.2327 39.3878C35.2327 38.5472 34.9492 37.9046 34.3835 37.4584C33.8177 37.0128 32.9856 36.7895 31.8879 36.7895C30.0526 36.7895 28.6469 37.4157 27.6694 38.6678L25.3281 36.867C26.0311 35.924 26.9786 35.1905 28.1706 34.6675C29.3626 34.1444 30.6959 33.8828 32.1709 33.8828C34.126 33.8828 35.686 34.3458 36.8524 35.2718C38.0187 36.1978 38.6016 37.4587 38.6016 39.0532C38.6016 40.0308 38.3957 40.9486 37.985 41.8059C37.5728 42.664 36.7837 43.6412 35.6177 44.7382L30.8072 49.3176H39.2968V49.3172Z" fill="white"/>
<path d="M55.0013 37.3281V39.5663L48.0042 55.3349H44.429L51.1947 40.158H44.1204V43.219H41.0078V37.3281H55.0013Z" fill="white"/>
<path d="M14.0071 58.7031V62.8867H13.3671L11.06 60.0539V62.8867H10.2891V58.7031H10.929L13.2358 61.5363V58.7031H14.0071Z" fill="white"/>
<path d="M17.353 60.0013C17.6023 60.2265 17.727 60.5656 17.727 61.02V62.8909H17.0214V62.5025C16.9301 62.642 16.7995 62.7484 16.63 62.8219C16.4605 62.8957 16.2568 62.9328 16.0179 62.9328C15.779 62.9328 15.5693 62.8916 15.3905 62.8104C15.211 62.7284 15.0726 62.6149 14.9747 62.4694C14.8767 62.324 14.8281 62.1597 14.8281 61.9764C14.8281 61.6896 14.9346 61.4592 15.1483 61.2864C15.3612 61.1127 15.697 61.0263 16.1548 61.0263H16.9802V60.9785C16.9802 60.7551 16.9134 60.5841 16.7795 60.4643C16.6463 60.3448 16.4482 60.2855 16.1852 60.2855C16.0056 60.2855 15.8294 60.3129 15.6562 60.3689C15.4829 60.4249 15.336 60.5025 15.2162 60.6023L14.9235 60.058C15.0908 59.9304 15.2922 59.8336 15.5271 59.7653C15.7626 59.6978 16.0112 59.6641 16.2742 59.6641C16.7442 59.6637 17.1045 59.7761 17.353 60.0013ZM16.6719 62.2606C16.8177 62.1753 16.9197 62.0521 16.9798 61.8929V61.5223H16.2089C15.7786 61.5223 15.5634 61.6637 15.5634 61.9471C15.5634 62.0825 15.6172 62.1897 15.7252 62.2695C15.8324 62.3492 15.9815 62.3889 16.1729 62.3889C16.3595 62.3889 16.5261 62.3463 16.6719 62.2606Z" fill="white"/>
<path d="M19.2901 62.7236C19.027 62.5844 18.8211 62.3901 18.6742 62.1411C18.5266 61.8918 18.4531 61.6099 18.4531 61.2956C18.4531 60.9803 18.5262 60.7002 18.6742 60.4531C18.8211 60.2061 19.0256 60.0124 19.2864 59.8729C19.5472 59.7338 19.8458 59.6641 20.1804 59.6641C20.495 59.6641 20.771 59.7279 21.0077 59.8555C21.2444 59.9831 21.4228 60.1664 21.5423 60.4049L20.9684 60.7395C20.8771 60.5923 20.7625 60.4821 20.6249 60.4079C20.488 60.334 20.3373 60.297 20.1734 60.297C19.8944 60.297 19.6633 60.3875 19.48 60.5689C19.2975 60.7503 19.2055 60.9925 19.2055 61.2953C19.2055 61.598 19.296 61.8399 19.477 62.0213C19.6588 62.2023 19.8907 62.2929 20.1734 62.2929C20.337 62.2929 20.488 62.2561 20.6249 62.1823C20.7625 62.1088 20.8771 61.9979 20.9684 61.8506L21.5423 62.1853C21.4191 62.4245 21.2388 62.6086 21.0018 62.738C20.764 62.8675 20.4902 62.9321 20.1801 62.9321C19.8495 62.9332 19.5531 62.8634 19.2901 62.7236Z" fill="white"/>
<path d="M22.2228 59.0414C22.1316 58.9561 22.0859 58.8492 22.0859 58.722C22.0859 58.5947 22.1316 58.4879 22.2228 58.4022C22.3148 58.3165 22.4287 58.2734 22.5641 58.2734C22.6995 58.2734 22.8127 58.3142 22.9047 58.3959C22.996 58.4778 23.0423 58.5806 23.0423 58.7038C23.0423 58.8351 22.9974 58.9457 22.9077 59.0358C22.8179 59.1252 22.7033 59.1697 22.5641 59.1697C22.4287 59.1697 22.3148 59.1274 22.2228 59.0414ZM22.1872 59.6958H22.9344V62.8877H22.1872V59.6958Z" fill="white"/>
<path d="M24.4731 62.7236C24.2146 62.5844 24.0124 62.3901 23.8666 62.1411C23.7208 61.8918 23.6484 61.6099 23.6484 61.2956C23.6484 60.9803 23.7208 60.7002 23.8666 60.4531C24.0124 60.2061 24.2146 60.0124 24.4731 59.8729C24.7324 59.7338 25.0229 59.6641 25.3457 59.6641C25.6725 59.6641 25.9652 59.7338 26.2245 59.8729C26.4831 60.0128 26.6861 60.2061 26.8311 60.4531C26.9769 60.7002 27.0492 60.9807 27.0492 61.2956C27.0492 61.6102 26.9769 61.8918 26.8311 62.1411C26.6861 62.3901 26.4831 62.5844 26.2245 62.7236C25.9652 62.8634 25.6725 62.9328 25.3457 62.9328C25.0233 62.9332 24.7324 62.8634 24.4731 62.7236ZM26.0276 62.0187C26.2064 61.8354 26.2965 61.5939 26.2965 61.2956C26.2965 60.9963 26.2067 60.7555 26.0276 60.5726C25.848 60.3893 25.621 60.2973 25.3457 60.2973C25.0712 60.2973 24.8449 60.3893 24.6675 60.5726C24.4898 60.7555 24.4015 60.9966 24.4015 61.2956C24.4015 61.5943 24.4898 61.8354 24.6675 62.0187C24.8452 62.202 25.0712 62.2932 25.3457 62.2932C25.621 62.2932 25.8476 62.202 26.0276 62.0187Z" fill="white"/>
<path d="M30.545 60.0161C30.7884 60.2517 30.9101 60.6 30.9101 61.0623V62.8913H30.1629V61.158C30.1629 60.879 30.0969 60.6691 29.9652 60.5277C29.8339 60.386 29.6465 60.3155 29.4035 60.3155C29.129 60.3155 28.9116 60.3982 28.7521 60.5633C28.5926 60.7288 28.5128 60.967 28.5128 61.2778V62.8916H27.7656V59.6997H28.4772V60.1122C28.6003 59.9649 28.7562 59.8533 28.9431 59.7776C29.1301 59.7019 29.3416 59.6641 29.5764 59.6641C29.98 59.6641 30.3024 59.7817 30.545 60.0161Z" fill="white"/>
<path d="M34.1577 59.9965C34.407 60.2217 34.5309 60.5608 34.5309 61.0153V62.8861H33.8261V62.4977C33.7348 62.6372 33.6035 62.7437 33.4347 62.8171C33.2652 62.8909 33.0607 62.928 32.8218 62.928C32.5829 62.928 32.374 62.8869 32.1945 62.8056C32.0157 62.7236 31.8773 62.6101 31.7794 62.4647C31.6814 62.3193 31.6328 62.1549 31.6328 61.9717C31.6328 61.6849 31.7393 61.4545 31.9522 61.2816C32.1652 61.108 32.5013 61.0216 32.9595 61.0216H33.7842V60.9737C33.7842 60.7504 33.7174 60.5793 33.5842 60.4595C33.451 60.3397 33.2522 60.2807 32.9891 60.2807C32.8103 60.2807 32.6334 60.3082 32.4601 60.3642C32.2869 60.4202 32.1407 60.4977 32.0209 60.5975L31.7282 60.0533C31.8955 59.9257 32.0962 59.8288 32.3317 59.7606C32.5666 59.6931 32.8159 59.6593 33.0789 59.6593C33.5489 59.6589 33.9084 59.7713 34.1577 59.9965ZM32.1106 58.625H34.1785V59.0732H32.1106V58.625ZM33.4759 62.2558C33.6217 62.1705 33.7244 62.0473 33.7838 61.8882V61.5176H33.0129C32.5825 61.5176 32.3674 61.6589 32.3674 61.9423C32.3674 62.0778 32.4215 62.185 32.5291 62.2647C32.6371 62.3445 32.7862 62.3842 32.9776 62.3842C33.1642 62.3842 33.3308 62.3415 33.4759 62.2558Z" fill="white"/>
<path d="M36.2394 58.4531H35.4922V62.8875H36.2394V58.4531Z" fill="white"/>
<path d="M39.5167 60.0013C39.766 60.2265 39.8907 60.5656 39.8907 61.02V62.8909H39.1858V62.5025C39.0938 62.642 38.9632 62.7484 38.7937 62.8219C38.6249 62.8957 38.4205 62.9328 38.1816 62.9328C37.9426 62.9328 37.733 62.8916 37.5542 62.8104C37.3747 62.7284 37.2363 62.6149 37.1391 62.4694C37.0412 62.324 36.9922 62.1597 36.9922 61.9764C36.9922 61.6896 37.0987 61.4592 37.3123 61.2864C37.5253 61.1127 37.861 61.0263 38.3188 61.0263H39.1443V60.9785C39.1443 60.7551 39.0775 60.5841 38.9436 60.4643C38.8104 60.3448 38.6123 60.2855 38.3492 60.2855C38.1697 60.2855 37.9935 60.3129 37.8202 60.3689C37.6462 60.4246 37.5008 60.5025 37.381 60.6023L37.0875 60.058C37.2548 59.9304 37.4563 59.8336 37.6911 59.7653C37.9267 59.6978 38.176 59.6641 38.439 59.6641C38.9083 59.6637 39.2682 59.7761 39.5167 60.0013ZM38.8356 62.2606C38.9814 62.1753 39.0834 62.0521 39.1435 61.8929V61.5223H38.3726C37.9423 61.5223 37.7271 61.6637 37.7271 61.9471C37.7271 62.0825 37.7809 62.1897 37.8889 62.2695C37.9961 62.3492 38.1452 62.3889 38.3366 62.3889C38.524 62.3889 38.6902 62.3463 38.8356 62.2606Z" fill="white"/>
<path d="M40.8791 59.0414C40.7878 58.9561 40.7422 58.8492 40.7422 58.722C40.7422 58.5947 40.7878 58.4879 40.8791 58.4022C40.9711 58.3165 41.0842 58.2734 41.2197 58.2734C41.3551 58.2734 41.469 58.3142 41.5602 58.3959C41.6522 58.4778 41.6978 58.5806 41.6978 58.7038C41.6978 58.8351 41.653 58.9457 41.5639 59.0358C41.4741 59.1252 41.3595 59.1697 41.2197 59.1697C41.0842 59.1697 40.9711 59.1274 40.8791 59.0414ZM40.8435 59.6958H41.5906V62.8877H40.8435V59.6958Z" fill="white"/>
<path d="M42.7952 62.8311C42.5481 62.7633 42.3511 62.6779 42.2031 62.5744L42.4899 62.0065C42.6335 62.1022 42.806 62.179 43.0074 62.2368C43.2081 62.2947 43.4066 62.3229 43.6017 62.3229C44.048 62.3229 44.2714 62.2057 44.2714 61.9708C44.2714 61.8592 44.215 61.7813 44.1011 61.7375C43.9872 61.6941 43.8054 61.6522 43.5539 61.6121C43.2908 61.5724 43.0772 61.5264 42.9121 61.4745C42.7462 61.4229 42.6034 61.3324 42.4817 61.2029C42.3601 61.0734 42.2992 60.8928 42.2992 60.6616C42.2992 60.3593 42.4261 60.117 42.6787 59.9356C42.9317 59.7546 43.2738 59.6641 43.7041 59.6641C43.923 59.6641 44.1419 59.6885 44.3611 59.7386C44.58 59.7887 44.7596 59.8551 44.8987 59.9386L44.6119 60.5066C44.3411 60.347 44.0365 60.2673 43.6975 60.2673C43.4786 60.2673 43.312 60.2999 43.1988 60.366C43.0849 60.4316 43.0278 60.5184 43.0278 60.626C43.0278 60.7455 43.0887 60.8304 43.2103 60.8801C43.332 60.9299 43.5205 60.977 43.7746 61.0204C44.0298 61.0601 44.2391 61.1061 44.4027 61.158C44.5655 61.2099 44.7062 61.2975 44.8238 61.421C44.941 61.5442 45 61.7197 45 61.9471C45 62.2457 44.8709 62.4846 44.6116 62.6642C44.353 62.8434 44.0002 62.9335 43.5535 62.9335C43.2949 62.9332 43.0423 62.899 42.7952 62.8311Z" fill="white"/>
<path d="M6.86867 66.4935C7.11797 66.7183 7.24262 67.0581 7.24262 67.5126V69.3834H6.53701V68.995C6.44575 69.1341 6.31517 69.2406 6.14563 69.3144C5.97609 69.3883 5.77167 69.425 5.5335 69.425C5.29421 69.425 5.08498 69.3842 4.90542 69.3026C4.72661 69.2209 4.58824 69.1074 4.4903 68.9616C4.39236 68.8166 4.34375 68.6522 4.34375 68.469C4.34375 68.1822 4.45023 67.9514 4.66318 67.7786C4.87612 67.6057 5.21223 67.5185 5.6704 67.5185H6.49509V67.471C6.49509 67.2473 6.42831 67.0767 6.29513 66.9568C6.16195 66.837 5.96384 66.7773 5.70082 66.7773C5.52126 66.7773 5.34504 66.8055 5.17105 66.8615C4.9978 66.9171 4.85163 66.995 4.73181 67.0945L4.4391 66.5506C4.60641 66.423 4.80785 66.3254 5.04268 66.2579C5.27826 66.1896 5.52682 66.1563 5.78985 66.1563C6.26026 66.1559 6.61936 66.2687 6.86867 66.4935ZM6.18754 68.7528C6.33334 68.6671 6.43536 68.5443 6.49472 68.3851V68.0149H5.72381C5.29421 68.0149 5.07905 68.1562 5.07905 68.4393C5.07905 68.5751 5.13283 68.6823 5.24079 68.762C5.348 68.8418 5.49714 68.8815 5.68857 68.8815C5.87517 68.8815 6.04211 68.8385 6.18754 68.7528Z" fill="white"/>
<path d="M10.1155 69.2154C10.0279 69.287 9.92143 69.3408 9.79604 69.3764C9.67065 69.4127 9.5382 69.4305 9.39834 69.4305C9.04776 69.4305 8.77658 69.3389 8.58552 69.1557C8.39483 68.9728 8.29949 68.7056 8.29949 68.3551V66.8188H7.77344V66.2212H8.29949V65.4922H9.04665V66.2212H9.90102V66.8188H9.04665V68.3369C9.04665 68.4927 9.08449 68.611 9.1598 68.6927C9.23586 68.7743 9.34529 68.8151 9.48886 68.8151C9.65618 68.8151 9.7953 68.7709 9.9077 68.6838L10.1155 69.2154Z" fill="white"/>
<path d="M12.5686 69.2154C12.4818 69.287 12.3746 69.3408 12.2492 69.3764C12.1238 69.4127 11.9913 69.4305 11.8522 69.4305C11.5016 69.4305 11.2304 69.3389 11.0394 69.1557C10.848 68.9728 10.7526 68.7056 10.7526 68.3551V66.8188H10.2266V66.2212H10.7526V65.4922H11.4998V66.2212H12.3542V66.8188H11.4998V68.3369C11.4998 68.4927 11.5376 68.611 11.6137 68.6927C11.689 68.7743 11.7984 68.8151 11.942 68.8151C12.1093 68.8151 12.2492 68.7709 12.3608 68.6838L12.5686 69.2154Z" fill="white"/>
<path d="M12.7188 65.125H14.4049V65.5732H12.7188V65.125ZM13.1851 66.1949H13.9322V69.3869H13.1851V66.1949Z" fill="white"/>
<path d="M15.1382 69.3233C14.8912 69.2558 14.6942 69.1705 14.5469 69.0666L14.8336 68.499C14.9765 68.5947 15.149 68.6715 15.3504 68.729C15.5511 68.7869 15.7496 68.8155 15.9455 68.8155C16.3918 68.8155 16.6151 68.6982 16.6151 68.4627C16.6151 68.3514 16.558 68.2735 16.4441 68.23C16.3309 68.1863 16.1484 68.1444 15.8976 68.1043C15.6346 68.0646 15.4202 68.0186 15.2551 67.967C15.09 67.9151 14.9464 67.8246 14.8248 67.6951C14.7031 67.5656 14.643 67.3853 14.643 67.1542C14.643 66.8515 14.7691 66.6092 15.0217 66.4282C15.2755 66.2471 15.6168 66.1562 16.0471 66.1562C16.266 66.1562 16.4856 66.1811 16.7041 66.2308C16.9238 66.2813 17.1026 66.3477 17.2425 66.4311L16.9557 66.9991C16.6849 66.8396 16.3795 66.7598 16.0412 66.7598C15.8216 66.7598 15.6557 66.7925 15.5419 66.8585C15.428 66.9246 15.3716 67.0106 15.3716 67.1182C15.3716 67.238 15.4324 67.3226 15.5541 67.3727C15.675 67.4224 15.8635 67.4688 16.1184 67.5129C16.3736 67.5526 16.5821 67.5983 16.7457 67.6506C16.9093 67.7025 17.0492 67.7897 17.1675 67.9136C17.2847 68.0371 17.3437 68.2122 17.3437 68.4393C17.3437 68.7383 17.2139 68.9772 16.9553 69.1568C16.696 69.336 16.3439 69.4257 15.8973 69.4257C15.6383 69.425 15.3853 69.3916 15.1382 69.3233Z" fill="white"/>
<path d="M19.9131 69.2154C19.8255 69.287 19.7183 69.3408 19.5929 69.3764C19.4675 69.4127 19.3351 69.4305 19.196 69.4305C18.8454 69.4305 18.5742 69.3389 18.3831 69.1557C18.1917 68.9728 18.0964 68.7056 18.0964 68.3551V66.8188H17.5703V66.2212H18.0964V65.4922H18.8435V66.2212H19.6986V66.8188H18.8435V68.3369C18.8435 68.4927 18.8814 68.611 18.9574 68.6927C19.0327 68.7743 19.1422 68.8151 19.2857 68.8151C19.4531 68.8151 19.5929 68.7709 19.7046 68.6838L19.9131 69.2154Z" fill="white"/>
<path d="M20.0625 65.125H21.7479V65.5732H20.0625V65.125ZM20.5285 66.1949H21.2756V69.3869H20.5285V66.1949Z" fill="white"/>
<path d="M24.8603 66.3632C25.1051 66.4986 25.298 66.6901 25.4371 66.9371C25.5763 67.1842 25.6464 67.4691 25.6464 67.7915C25.6464 68.1146 25.5763 68.401 25.4371 68.6496C25.298 68.8989 25.1051 69.0907 24.8603 69.2265C24.6154 69.3623 24.3372 69.4298 24.0263 69.4298C23.8074 69.4298 23.6074 69.3916 23.4257 69.3163C23.2446 69.2406 23.0925 69.1271 22.9694 68.9757V69.3879H22.2578V64.9531H23.005V66.5843C23.1326 66.4452 23.2832 66.3395 23.4565 66.2675C23.6297 66.1955 23.8197 66.1599 24.0267 66.1599C24.3372 66.1599 24.6154 66.2278 24.8603 66.3632ZM24.6214 68.5153C24.7991 68.3317 24.8873 68.0905 24.8873 67.7915C24.8873 67.4929 24.7991 67.2517 24.6214 67.0685C24.4436 66.8856 24.2185 66.7939 23.9432 66.7939C23.7636 66.7939 23.6026 66.8348 23.459 66.9164C23.3155 66.9984 23.202 67.1145 23.1185 67.2662C23.0343 67.4172 22.9924 67.593 22.9924 67.7915C22.9924 67.9907 23.0343 68.1666 23.1185 68.3176C23.202 68.4693 23.3155 68.5858 23.459 68.6674C23.6026 68.749 23.7633 68.7898 23.9432 68.7898C24.2185 68.7898 24.4436 68.6982 24.6214 68.5153Z" fill="white"/>
<path d="M28.6109 66.4935C28.8602 66.7183 28.9848 67.0581 28.9848 67.5126V69.3834H28.2792V68.995C28.1879 69.1341 28.0573 69.2406 27.8878 69.3144C27.7183 69.3883 27.5146 69.425 27.2757 69.425C27.0368 69.425 26.8272 69.3842 26.6483 69.3026C26.4688 69.2209 26.3304 69.1074 26.2325 68.9616C26.1345 68.8166 26.0859 68.6522 26.0859 68.469C26.0859 68.1822 26.1924 67.9514 26.4054 67.7786C26.619 67.6053 26.9544 67.5185 27.4126 67.5185H28.238V67.471C28.238 67.2473 28.1712 67.0767 28.0373 66.9568C27.9041 66.8374 27.7053 66.7773 27.4423 66.7773C27.2634 66.7773 27.0872 66.8055 26.914 66.8615C26.74 66.9171 26.5938 66.995 26.474 67.0945L26.1813 66.5506C26.3486 66.423 26.55 66.3254 26.7849 66.2579C27.0204 66.1896 27.269 66.1563 27.532 66.1563C28.0021 66.1559 28.3616 66.2687 28.6109 66.4935ZM27.9297 68.7528C28.0748 68.6671 28.1775 68.5443 28.2376 68.3851V68.0149H27.466C27.0364 68.0149 26.8212 68.1562 26.8212 68.4393C26.8212 68.5751 26.875 68.6823 26.9822 68.762C27.0902 68.8418 27.2393 68.8815 27.4308 68.8815C27.6181 68.8815 27.7839 68.8385 27.9297 68.7528Z" fill="white"/>
<path d="M30.1702 69.3233C29.9231 69.2558 29.7261 69.1705 29.5781 69.0666L29.8649 68.499C30.0085 68.5947 30.181 68.6715 30.3824 68.729C30.5831 68.7869 30.7816 68.8155 30.9767 68.8155C31.423 68.8155 31.6464 68.6982 31.6464 68.4627C31.6464 68.3514 31.59 68.2735 31.4761 68.23C31.3622 68.1863 31.1804 68.1444 30.9296 68.1043C30.6666 68.0646 30.4522 68.0186 30.2871 67.967C30.1212 67.9151 29.9784 67.8246 29.8567 67.6951C29.7351 67.5656 29.6742 67.3853 29.6742 67.1542C29.6742 66.8515 29.8011 66.6092 30.0537 66.4282C30.3064 66.2471 30.6488 66.1562 31.0791 66.1562C31.298 66.1562 31.5169 66.1811 31.7361 66.2308C31.9558 66.2813 32.1346 66.3477 32.2737 66.4311L31.9869 66.9991C31.7161 66.8396 31.4115 66.7598 31.0725 66.7598C30.8536 66.7598 30.687 66.7925 30.5739 66.8585C30.46 66.9246 30.4036 67.0106 30.4036 67.1182C30.4036 67.238 30.4637 67.3226 30.5854 67.3727C30.707 67.4224 30.8955 67.4688 31.1504 67.5129C31.4056 67.5526 31.6141 67.5983 31.7777 67.6506C31.9406 67.7025 32.0812 67.7897 32.1988 67.9136C32.3167 68.0371 32.3757 68.2122 32.3757 68.4393C32.3757 68.7383 32.2459 68.9772 31.9866 69.1568C31.728 69.336 31.3752 69.4257 30.9292 69.4257C30.6703 69.425 30.4173 69.3916 30.1702 69.3233Z" fill="white"/>
<path d="M37.2669 66.3592C37.5117 66.4946 37.7046 66.686 37.8438 66.9331C37.9836 67.1802 38.053 67.4651 38.053 67.7875C38.053 68.1106 37.9832 68.397 37.8438 68.6455C37.7046 68.8949 37.5117 69.0867 37.2669 69.2224C37.022 69.3582 36.7438 69.4257 36.4329 69.4257C36.0033 69.4257 35.6628 69.2825 35.4112 68.9958V70.5435H34.6641V66.1922H35.3756V66.6107C35.4988 66.4593 35.6509 66.3458 35.8319 66.2701C36.0137 66.1945 36.2137 66.1563 36.4325 66.1563C36.7438 66.1559 37.022 66.2238 37.2669 66.3592ZM37.028 68.5113C37.2057 68.3276 37.294 68.0865 37.294 67.7875C37.294 67.4888 37.2057 67.2477 37.028 67.0644C36.8503 66.8815 36.6251 66.7899 36.3498 66.7899C36.1703 66.7899 36.0093 66.8307 35.8657 66.9123C35.7221 66.9943 35.6086 67.1104 35.5251 67.2621C35.4409 67.4131 35.3997 67.589 35.3997 67.7875C35.3997 67.9867 35.4409 68.1625 35.5251 68.3135C35.6086 68.4653 35.7221 68.5817 35.8657 68.6634C36.0093 68.745 36.1699 68.7858 36.3498 68.7858C36.6251 68.7858 36.8503 68.6941 37.028 68.5113Z" fill="white"/>
<path d="M39.5128 64.9531H38.7656V69.3882H39.5128V64.9531Z" fill="white"/>
<path d="M42.7905 66.4965C43.0391 66.7213 43.1638 67.0612 43.1638 67.5156V69.3865H42.4589V68.9981C42.3669 69.1372 42.2363 69.2437 42.0675 69.3175C41.898 69.3913 41.6935 69.428 41.4546 69.428C41.2157 69.428 41.0061 69.3872 40.8273 69.3056C40.6477 69.224 40.5101 69.1105 40.4122 68.9647C40.3142 68.8196 40.2656 68.6553 40.2656 68.472C40.2656 68.1852 40.3721 67.9545 40.5851 67.7816C40.798 67.6087 41.1337 67.5216 41.5923 67.5216H42.417V67.4741C42.417 67.2504 42.3502 67.0797 42.217 66.9599C42.0838 66.8401 41.885 66.7803 41.6219 66.7803C41.4431 66.7803 41.2662 66.8085 41.0929 66.8645C40.9197 66.9206 40.7735 66.9981 40.6537 67.0975L40.3602 66.5537C40.5283 66.426 40.729 66.3285 40.9646 66.2609C41.1994 66.1927 41.4487 66.1593 41.7117 66.1593C42.1818 66.1589 42.5412 66.2717 42.7905 66.4965ZM40.7431 65.125H42.8117V65.5732H40.7431V65.125ZM42.1087 68.7558C42.2545 68.6701 42.3572 68.5473 42.4166 68.3882V68.0179H41.6457C41.2153 68.0179 41.0002 68.1593 41.0002 68.4423C41.0002 68.5781 41.054 68.6853 41.1619 68.7651C41.2691 68.8448 41.419 68.8846 41.6104 68.8846C41.797 68.8846 41.964 68.8415 42.1087 68.7558Z" fill="white"/>
<path d="M46.9044 66.5087C47.1478 66.7443 47.2695 67.0926 47.2695 67.5545V69.3838H46.5223V67.6506C46.5223 67.3716 46.4563 67.1612 46.3246 67.0199C46.1932 66.8786 46.0059 66.8077 45.7629 66.8077C45.4884 66.8077 45.271 66.8904 45.1115 67.0559C44.9519 67.221 44.8722 67.4595 44.8722 67.7704V69.3842H44.125V66.1922H44.8365V66.6044C44.9597 66.4575 45.1148 66.3458 45.3025 66.2701C45.4895 66.1945 45.7009 66.1562 45.9358 66.1562C46.3394 66.1562 46.6618 66.2739 46.9044 66.5087Z" fill="white"/>
<path d="M48.4437 69.3233C48.1966 69.2558 47.9988 69.1705 47.8516 69.0666L48.1383 68.499C48.2819 68.5947 48.4544 68.6715 48.6559 68.729C48.8566 68.7869 49.055 68.8155 49.2502 68.8155C49.6965 68.8155 49.9198 68.6982 49.9198 68.4627C49.9198 68.3514 49.8634 68.2735 49.7495 68.23C49.6356 68.1863 49.4538 68.1444 49.2023 68.1043C48.9393 68.0646 48.7256 68.0186 48.5598 67.967C48.3947 67.9151 48.2511 67.8246 48.1294 67.6951C48.0085 67.5656 47.9476 67.3853 47.9476 67.1542C47.9476 66.8515 48.0745 66.6092 48.3272 66.4282C48.5798 66.2471 48.9215 66.1562 49.3518 66.1562C49.5714 66.1562 49.7903 66.1811 50.0096 66.2308C50.2285 66.2813 50.408 66.3477 50.5471 66.4311L50.2604 66.9991C49.9895 66.8396 49.6842 66.7598 49.3459 66.7598C49.127 66.7598 48.9604 66.7925 48.8465 66.8585C48.7334 66.9246 48.6763 67.0106 48.6763 67.1182C48.6763 67.238 48.7371 67.3226 48.8588 67.3727C48.9805 67.4224 49.1682 67.4688 49.4238 67.5129C49.6783 67.5526 49.8875 67.5983 50.0504 67.6506C50.214 67.7025 50.3546 67.7897 50.4722 67.9136C50.5894 68.0371 50.6484 68.2122 50.6484 68.4393C50.6484 68.7383 50.5186 68.9772 50.26 69.1568C50.0014 69.3363 49.6486 69.4257 49.2019 69.4257C48.9437 69.425 48.6904 69.3916 48.4437 69.3233Z" fill="white"/>
<path d="M25.1987 5.46744L25.2154 31.6804L20.531 31.6834L20.5143 5.47078L25.1987 5.46744ZM25.9307 4.73438L19.7812 4.73809L19.7994 32.4161L25.9481 32.4124L25.9307 4.73438Z" fill="white"/>
<path d="M34.4565 0.850256L34.4732 27.0825L29.7888 27.0855L29.7721 0.853223L34.4565 0.850256ZM35.1885 0.117188L29.0391 0.121275L29.0572 27.8182L35.2059 27.8145L35.1885 0.117188Z" fill="white"/>
</svg>
