<svg width="79" height="70" viewBox="0 0 79 70" fill="none" xmlns="http://www.w3.org/2000/svg">
<path d="M22.4453 60.379V55.8516H23.3668V59.6096H25.6584V60.379H22.4453Z" fill="white"/>
<path d="M25.6797 56.5214V55.9453H27.6849V56.5214H25.6797ZM26.2558 60.3734V57.0664H27.1306V60.3734H26.2558Z" fill="white"/>
<path d="M31.0021 60.3775H30.1897V59.8911C30.0546 60.0803 29.8955 60.2209 29.7115 60.3136C29.5278 60.4056 29.3423 60.452 29.1557 60.452C28.7758 60.452 28.4505 60.2992 28.1797 59.9927C27.9088 59.6867 27.7734 59.2593 27.7734 58.7117C27.7734 58.1508 27.9051 57.7249 28.1689 57.4337C28.4323 57.1417 28.7654 56.9959 29.1683 56.9959C29.5378 56.9959 29.8573 57.1495 30.1273 57.4567V55.8125H31.0021V60.3775ZM28.6668 58.6524C28.6668 59.0052 28.7154 59.2608 28.8133 59.4181C28.9543 59.6462 29.1516 59.7609 29.405 59.7609C29.6061 59.7609 29.7775 59.6756 29.9188 59.5038C30.0598 59.3328 30.1307 59.0772 30.1307 58.7366C30.1307 58.3571 30.062 58.0829 29.9251 57.9163C29.7879 57.749 29.6128 57.6656 29.3991 57.6656C29.1913 57.6656 29.0177 57.7483 28.8775 57.913C28.7369 58.0777 28.6668 58.3244 28.6668 58.6524Z" fill="white"/>
<path d="M31.4531 60.3773V59.6954L32.6926 58.2723C32.8959 58.0397 33.0465 57.8746 33.1441 57.777C33.0424 57.7833 32.9085 57.7874 32.7423 57.7897L31.5748 57.7956V57.0703H34.3086V57.6899L33.0443 59.1471L32.5991 59.6301C32.8421 59.6156 32.9927 59.6079 33.0506 59.6079H34.405V60.3773H31.4531Z" fill="white"/>
<path d="M34.5551 57.0703H35.0407V56.821C35.0407 56.5427 35.0704 56.3354 35.1293 56.1985C35.1883 56.0616 35.2974 55.9499 35.4562 55.8638C35.615 55.7778 35.8157 55.7344 36.0587 55.7344C36.3076 55.7344 36.5517 55.7718 36.7902 55.8464L36.6719 56.4571C36.5328 56.424 36.3989 56.4073 36.2701 56.4073C36.1436 56.4073 36.0527 56.4366 35.9978 56.4956C35.9429 56.555 35.9151 56.6689 35.9151 56.8369V57.0703H36.5691V57.7585H35.9151V60.3772H35.0403V57.7585H34.5547V57.0703H34.5551Z" fill="white"/>
<path d="M37 56.622V55.8125H37.8748V56.622H37ZM37 60.3775V57.0705H37.8748V60.3775H37Z" fill="white"/>
<path d="M41.7252 60.3733H40.85V58.6854C40.85 58.3285 40.8315 58.0973 40.794 57.9927C40.7565 57.8881 40.6961 57.8061 40.6119 57.7483C40.5276 57.6904 40.4267 57.6614 40.3084 57.6614C40.1567 57.6614 40.0209 57.7026 39.9003 57.7861C39.7797 57.8688 39.6974 57.979 39.6529 58.1159C39.6083 58.2528 39.5861 58.5065 39.5861 58.876V60.3737H38.7109V57.0668H39.5238V57.5527C39.8124 57.1792 40.1756 56.9922 40.6137 56.9922C40.807 56.9922 40.9832 57.0271 41.1431 57.0964C41.303 57.1662 41.4239 57.2545 41.5059 57.3624C41.5879 57.4704 41.645 57.5928 41.677 57.7297C41.7092 57.867 41.7252 58.0628 41.7252 58.3184V60.3733Z" fill="white"/>
<path d="M43.2126 58.0755L42.4183 57.9326C42.5077 57.6128 42.6613 57.3762 42.879 57.2226C43.0972 57.069 43.4207 56.9922 43.8506 56.9922C44.2409 56.9922 44.5314 57.0386 44.7225 57.1306C44.9135 57.2229 45.0478 57.3402 45.1257 57.4826C45.2036 57.6247 45.2426 57.8855 45.2426 58.2654L45.2333 59.2867C45.2333 59.5772 45.2474 59.7916 45.2752 59.9296C45.3034 60.0676 45.3557 60.2157 45.4325 60.3733H44.567C44.544 60.3151 44.5162 60.229 44.4828 60.1148C44.468 60.0628 44.4579 60.0287 44.4516 60.012C44.3021 60.1578 44.1422 60.2665 43.9723 60.3392C43.802 60.4119 43.6203 60.4483 43.4273 60.4483C43.0868 60.4483 42.8186 60.3559 42.6223 60.1711C42.4261 59.9864 42.3281 59.7527 42.3281 59.4704C42.3281 59.2838 42.3726 59.1172 42.462 58.9706C42.5515 58.8241 42.6765 58.7121 42.8371 58.6345C42.9981 58.5563 43.23 58.4884 43.5331 58.4301C43.9419 58.3533 44.2253 58.2821 44.3834 58.2157V58.1285C44.3834 57.9601 44.3418 57.8406 44.2587 57.7687C44.1756 57.6967 44.0191 57.6614 43.7887 57.6614C43.6329 57.6614 43.5116 57.6919 43.4244 57.7531C43.3368 57.8147 43.2663 57.9219 43.2126 58.0755ZM44.3834 58.7855C44.2713 58.8234 44.0936 58.8675 43.8506 58.9195C43.608 58.9714 43.4489 59.0222 43.3743 59.0719C43.26 59.1528 43.2033 59.2556 43.2033 59.3802C43.2033 59.5026 43.2489 59.6084 43.3402 59.6974C43.4314 59.7868 43.5479 59.8313 43.6889 59.8313C43.8466 59.8313 43.9972 59.7794 44.1404 59.6755C44.2461 59.5965 44.3159 59.5 44.3492 59.3861C44.3722 59.3112 44.3834 59.1691 44.3834 58.9599V58.7855Z" fill="white"/>
<path d="M49.0533 60.3733H48.1782V58.6854C48.1782 58.3285 48.1596 58.0973 48.1221 57.9927C48.0847 57.8881 48.0242 57.8061 47.94 57.7483C47.8558 57.6904 47.7549 57.6614 47.6365 57.6614C47.4848 57.6614 47.349 57.7026 47.2284 57.7861C47.1079 57.8688 47.0255 57.979 46.981 58.1159C46.9365 58.2528 46.9142 58.5065 46.9142 58.876V60.3737H46.0391V57.0668H46.8519V57.5527C47.1405 57.1792 47.5037 56.9922 47.9418 56.9922C48.1351 56.9922 48.3113 57.0271 48.4712 57.0964C48.6311 57.1662 48.7521 57.2545 48.8341 57.3624C48.916 57.4704 48.9732 57.5928 49.0051 57.7297C49.0374 57.867 49.0533 58.0628 49.0533 58.3184V60.3733Z" fill="white"/>
<path d="M49.5703 59.4303L50.4484 59.2964C50.4859 59.4666 50.5616 59.5958 50.6758 59.6841C50.7901 59.7723 50.95 59.8161 51.1552 59.8161C51.3815 59.8161 51.5517 59.7746 51.6656 59.6918C51.7424 59.6336 51.781 59.5557 51.781 59.4577C51.781 59.3917 51.7602 59.3368 51.719 59.293C51.6753 59.2515 51.5777 59.2129 51.4263 59.1776C50.7207 59.0222 50.2733 58.8798 50.0841 58.7514C49.8226 58.573 49.6916 58.3248 49.6916 58.0072C49.6916 57.7208 49.8048 57.4797 50.0311 57.2849C50.2574 57.0898 50.6083 56.9922 51.0836 56.9922C51.5362 56.9922 51.8723 57.0656 52.0923 57.2133C52.3122 57.3606 52.464 57.5783 52.5471 57.8673L51.722 58.0198C51.6868 57.8911 51.6196 57.7924 51.5209 57.7241C51.4223 57.6551 51.2817 57.6214 51.0991 57.6214C50.8688 57.6214 50.7037 57.6536 50.6042 57.7178C50.5378 57.7635 50.5044 57.8228 50.5044 57.8955C50.5044 57.9579 50.5334 58.0109 50.5916 58.0543C50.6706 58.1126 50.943 58.1949 51.4089 58.3007C51.8749 58.4064 52.2002 58.5362 52.385 58.6898C52.5675 58.8456 52.6591 59.0623 52.6591 59.3405C52.6591 59.6432 52.5326 59.9044 52.2792 60.1222C52.0259 60.3399 51.6512 60.449 51.1552 60.449C50.7048 60.449 50.3483 60.3577 50.0856 60.1752C49.8229 59.992 49.6512 59.7434 49.5703 59.4303Z" fill="white"/>
<path d="M55.2871 59.3205L56.1589 59.4671C56.0468 59.7868 55.8699 60.0302 55.628 60.1975C55.3861 60.3645 55.0838 60.4483 54.7206 60.4483C54.1456 60.4483 53.72 60.2606 53.444 59.8844C53.2263 59.5835 53.1172 59.2037 53.1172 58.7448C53.1172 58.1968 53.2604 57.7679 53.5468 57.4571C53.8332 57.1469 54.1956 56.9919 54.6334 56.9919C55.1253 56.9919 55.5137 57.1543 55.7979 57.4789C56.0821 57.8036 56.2182 58.3018 56.206 58.9718H54.0139C54.0202 59.2311 54.0907 59.4333 54.2257 59.5776C54.3604 59.7219 54.5288 59.7939 54.7299 59.7939C54.8671 59.7939 54.9821 59.7564 55.0756 59.6819C55.1691 59.6073 55.2396 59.4871 55.2871 59.3205ZM53.6774 56.5214V55.9453H55.6825V56.5214H53.6774ZM55.3372 58.4365C55.3309 58.1827 55.2656 57.9909 55.1409 57.8588C55.0166 57.7271 54.8649 57.6611 54.6865 57.6611C54.4954 57.6611 54.3377 57.7309 54.2131 57.87C54.0884 58.0091 54.0272 58.1979 54.0294 58.4365H55.3372Z" fill="white"/>
<path d="M12.6641 68.0259V63.4609H16.0489V64.2333H13.586V65.245H15.8775V66.0144H13.586V67.2565H16.1361V68.0259H12.6641Z" fill="white"/>
<path d="M16.8516 64.2704V63.4609H17.7263V64.2704H16.8516ZM16.8516 68.0259V64.7189H17.7263V68.0259H16.8516Z" fill="white"/>
<path d="M19.406 68.03H18.5312V64.723H19.3437V65.1934C19.4828 64.9712 19.6078 64.825 19.7188 64.7542C19.8297 64.6833 19.9558 64.6484 20.0972 64.6484C20.2964 64.6484 20.4886 64.7033 20.6733 64.8135L20.4025 65.5763C20.2552 65.4809 20.1179 65.4331 19.9914 65.4331C19.869 65.4331 19.7651 65.4668 19.6802 65.534C19.5952 65.6011 19.5281 65.7235 19.4795 65.8998C19.4305 66.0763 19.4064 66.4458 19.4064 67.0079L19.406 68.03Z" fill="white"/>
<path d="M20.7891 66.3297C20.7891 66.0389 20.8607 65.7577 21.0039 65.4861C21.1471 65.2142 21.35 65.0064 21.6126 64.8632C21.8753 64.72 22.1684 64.6484 22.4922 64.6484C22.9927 64.6484 23.4026 64.8109 23.7221 65.1355C24.0415 65.4605 24.2014 65.8705 24.2014 66.3668C24.2014 66.8673 24.04 67.282 23.7172 67.6111C23.3945 67.9402 22.9883 68.1045 22.4982 68.1045C22.1951 68.1045 21.9061 68.0355 21.6312 67.8986C21.3563 67.7617 21.1471 67.561 21.0039 67.2965C20.8607 67.032 20.7891 66.71 20.7891 66.3297ZM21.6857 66.3765C21.6857 66.7044 21.7636 66.9556 21.9191 67.1299C22.0749 67.3043 22.2667 67.3915 22.4952 67.3915C22.7237 67.3915 22.9152 67.3043 23.0699 67.1299C23.2246 66.9552 23.3017 66.7026 23.3017 66.3698C23.3017 66.0459 23.2246 65.797 23.0699 65.6226C22.9152 65.4479 22.7237 65.3611 22.4952 65.3611C22.2667 65.3611 22.0749 65.4479 21.9191 65.6226C21.7636 65.7974 21.6857 66.0482 21.6857 66.3765Z" fill="white"/>
<path d="M24.8047 64.723H25.6205V65.209C25.7262 65.0428 25.8694 64.9077 26.0501 64.8042C26.2307 64.7004 26.4311 64.6484 26.6511 64.6484C27.035 64.6484 27.3611 64.7987 27.6286 65.0999C27.8961 65.4012 28.0304 65.82 28.0304 66.3579C28.0304 66.91 27.8953 67.3395 27.6256 67.6456C27.3556 67.952 27.0287 68.1049 26.6448 68.1049C26.4622 68.1049 26.2968 68.0685 26.148 67.9958C25.9996 67.9231 25.8434 67.7985 25.6795 67.6222V69.288H24.8047V64.723ZM25.6706 66.3205C25.6706 66.6922 25.7444 66.9663 25.8917 67.144C26.0389 67.3217 26.2185 67.4104 26.4303 67.4104C26.6336 67.4104 26.8028 67.3288 26.9378 67.1659C27.0729 67.0034 27.14 66.736 27.14 66.3646C27.14 66.0174 27.0703 65.7603 26.9315 65.5922C26.7924 65.4242 26.6203 65.3399 26.4144 65.3399C26.2007 65.3399 26.023 65.4227 25.882 65.5874C25.741 65.7521 25.6706 65.9966 25.6706 66.3205Z" fill="white"/>
<path d="M29.3219 65.7317L28.5276 65.5889C28.6171 65.2691 28.7706 65.0324 28.9884 64.8788C29.2065 64.7252 29.53 64.6484 29.96 64.6484C30.3503 64.6484 30.6408 64.6948 30.8318 64.7868C31.0229 64.8792 31.1572 64.9964 31.2351 65.1389C31.313 65.281 31.3519 65.5418 31.3519 65.9216L31.3427 66.943C31.3427 67.2335 31.3568 67.4479 31.3846 67.5859C31.4128 67.7239 31.4651 67.8719 31.5419 68.0296H30.6764C30.6534 67.9713 30.6256 67.8853 30.5922 67.771C30.5773 67.7191 30.5673 67.6849 30.561 67.6682C30.4115 67.814 30.2516 67.9227 30.0817 67.9954C29.9114 68.0682 29.7296 68.1045 29.5367 68.1045C29.1962 68.1045 28.9279 68.0121 28.7317 67.8274C28.5354 67.6426 28.4375 67.4089 28.4375 67.1266C28.4375 66.94 28.482 66.7734 28.5714 66.6269C28.6608 66.4803 28.7859 66.3683 28.9465 66.2908C29.1075 66.2125 29.3394 66.1446 29.6425 66.0864C30.0513 66.0096 30.3347 65.9383 30.4928 65.8719V65.7848C30.4928 65.6163 30.4512 65.4969 30.3681 65.4249C30.285 65.3529 30.1284 65.3177 29.8981 65.3177C29.7422 65.3177 29.6209 65.3481 29.5338 65.4093C29.4462 65.4709 29.3757 65.5781 29.3219 65.7317ZM30.4924 66.4418C30.3803 66.4796 30.2026 66.5238 29.9596 66.5757C29.717 66.6276 29.5579 66.6785 29.4833 66.7282C29.369 66.809 29.3123 66.9118 29.3123 67.0365C29.3123 67.1589 29.3579 67.2646 29.4492 67.3536C29.5404 67.4431 29.6569 67.4876 29.7979 67.4876C29.9556 67.4876 30.1062 67.4356 30.2494 67.3318C30.3551 67.2527 30.4249 67.1563 30.4583 67.0424C30.4813 66.9674 30.4924 66.8254 30.4924 66.6161V66.4418Z" fill="white"/>
<path d="M31.8516 67.0865L32.7297 66.9526C32.7671 67.1229 32.8428 67.252 32.9571 67.3403C33.0714 67.4286 33.2312 67.4724 33.4364 67.4724C33.6627 67.4724 33.833 67.4308 33.9469 67.3481C34.0237 67.2898 34.0623 67.2119 34.0623 67.114C34.0623 67.048 34.0415 66.9931 34.0003 66.9493C33.9565 66.9077 33.859 66.8691 33.7076 66.8339C33.002 66.6785 32.5546 66.536 32.3654 66.4076C32.1038 66.2292 31.9729 65.981 31.9729 65.6634C31.9729 65.377 32.086 65.1359 32.3123 64.9411C32.5386 64.746 32.8896 64.6484 33.3648 64.6484C33.8174 64.6484 34.1535 64.7219 34.3735 64.8695C34.5935 65.0168 34.7452 65.2346 34.8283 65.5236L34.0033 65.6761C33.968 65.5473 33.9009 65.4486 33.8022 65.3804C33.7035 65.3114 33.5629 65.2776 33.3804 65.2776C33.15 65.2776 32.9849 65.3099 32.8855 65.3741C32.8191 65.4197 32.7857 65.4791 32.7857 65.5518C32.7857 65.6141 32.8146 65.6672 32.8729 65.7106C32.9519 65.7688 33.2242 65.8512 33.6902 65.9569C34.1561 66.0626 34.4815 66.1925 34.6662 66.3461C34.8487 66.5019 34.9404 66.7185 34.9404 66.9968C34.9404 67.2995 34.8139 67.5607 34.5605 67.7784C34.3071 67.9962 33.9324 68.1053 33.4364 68.1053C32.986 68.1053 32.6295 68.014 32.3669 67.8315C32.1042 67.6482 31.9324 67.3997 31.8516 67.0865Z" fill="white"/>
<path d="M37.1328 66.5406L38.0295 66.4534C38.0836 66.7547 38.1931 66.9754 38.3582 67.1168C38.5233 67.2581 38.7459 67.3282 39.0259 67.3282C39.3227 67.3282 39.5464 67.2655 39.6971 67.1398C39.8477 67.0144 39.923 66.8675 39.923 66.699C39.923 66.5911 39.8915 66.4994 39.828 66.4238C39.7649 66.3477 39.654 66.2817 39.4964 66.226C39.3884 66.1882 39.1424 66.1225 38.7585 66.0268C38.2643 65.9044 37.9178 65.7538 37.7186 65.5753C37.4385 65.3238 37.2983 65.0177 37.2983 64.6564C37.2983 64.4238 37.3643 64.2064 37.496 64.0042C37.6277 63.8016 37.8177 63.6477 38.0658 63.542C38.3137 63.4359 38.6134 63.3828 38.964 63.3828C39.5368 63.3828 39.9682 63.5086 40.2576 63.7597C40.5473 64.0109 40.6991 64.3463 40.7139 64.7655L39.7924 64.8055C39.7531 64.5714 39.6685 64.4026 39.5386 64.2999C39.4088 64.1971 39.214 64.1456 38.9547 64.1456C38.6869 64.1456 38.4773 64.2005 38.3255 64.3106C38.228 64.3811 38.1794 64.4757 38.1794 64.5941C38.1794 64.702 38.225 64.7944 38.3163 64.8712C38.4324 64.9688 38.7147 65.0704 39.1632 65.1765C39.6117 65.2822 39.9434 65.3917 40.1582 65.5048C40.373 65.618 40.5414 65.7731 40.6627 65.9689C40.784 66.1648 40.8449 66.4078 40.8449 66.6961C40.8449 66.9576 40.7722 67.2025 40.6267 67.4306C40.4813 67.6588 40.2762 67.8283 40.0102 67.9396C39.7442 68.0509 39.4133 68.1062 39.0167 68.1062C38.4398 68.1062 37.9965 67.973 37.6874 67.7059C37.378 67.4399 37.1929 67.0515 37.1328 66.5406Z" fill="white"/>
<path d="M42.2126 65.7317L41.4183 65.5889C41.5077 65.2691 41.6613 65.0324 41.879 64.8788C42.0972 64.7252 42.4207 64.6484 42.8506 64.6484C43.2409 64.6484 43.5314 64.6948 43.7225 64.7868C43.9135 64.8792 44.0478 64.9964 44.1257 65.1389C44.2036 65.281 44.2426 65.5418 44.2426 65.9216L44.2333 66.943C44.2333 67.2335 44.2474 67.4479 44.2752 67.5859C44.3034 67.7239 44.3557 67.8719 44.4325 68.0296H43.567C43.544 67.9713 43.5162 67.8853 43.4828 67.771C43.468 67.7191 43.4579 67.6849 43.4516 67.6682C43.3021 67.814 43.1422 67.9227 42.9723 67.9954C42.802 68.0682 42.6203 68.1045 42.4274 68.1045C42.0868 68.1045 41.8186 68.0121 41.6223 67.8274C41.4261 67.6426 41.3281 67.4089 41.3281 67.1266C41.3281 66.94 41.3726 66.7734 41.4621 66.6269C41.5515 66.4803 41.6765 66.3683 41.8371 66.2908C41.9981 66.2125 42.23 66.1446 42.5331 66.0864C42.9419 66.0096 43.2253 65.9383 43.3834 65.8719V65.7848C43.3834 65.6163 43.3418 65.4969 43.2587 65.4249C43.1756 65.3529 43.0191 65.3177 42.7887 65.3177C42.6329 65.3177 42.5116 65.3481 42.4244 65.4093C42.3372 65.4709 42.2663 65.5781 42.2126 65.7317ZM43.3834 66.4418C43.2713 66.4796 43.0936 66.5238 42.8506 66.5757C42.608 66.6276 42.4489 66.6785 42.3743 66.7282C42.26 66.809 42.2033 66.9118 42.2033 67.0365C42.2033 67.1589 42.2489 67.2646 42.3402 67.3536C42.4314 67.4431 42.5479 67.4876 42.6889 67.4876C42.8466 67.4876 42.9972 67.4356 43.1404 67.3318C43.2461 67.2527 43.3159 67.1563 43.3492 67.0424C43.3722 66.9674 43.3834 66.8254 43.3834 66.6161V66.4418Z" fill="white"/>
<path d="M45.9576 68.0257L44.625 64.7188H45.5436L46.1664 66.4064L46.3471 66.9703C46.3946 66.8267 46.4246 66.7324 46.4373 66.6868C46.4666 66.5933 46.4974 66.4998 46.5307 66.4064L47.1596 64.7188H48.0596L46.7455 68.0257H45.9576Z" fill="white"/>
<path d="M48.5391 64.2704V63.4609H49.4138V64.2704H48.5391ZM48.5391 68.0259V64.7189H49.4138V68.0259H48.5391Z" fill="white"/>
<path d="M52.1621 66.9771L53.0339 67.1236C52.9218 67.4434 52.7449 67.6868 52.503 67.8541C52.2611 68.021 51.9588 68.1049 51.5956 68.1049C51.0206 68.1049 50.595 67.9172 50.319 67.541C50.1013 67.2401 49.9922 66.8602 49.9922 66.4013C49.9922 65.8534 50.1354 65.4245 50.4218 65.1137C50.7082 64.8035 51.0706 64.6484 51.5084 64.6484C52.0003 64.6484 52.3887 64.8109 52.6729 65.1355C52.9571 65.4601 53.0932 65.9584 53.081 66.6284H50.8889C50.8952 66.8877 50.9657 67.0899 51.1007 67.2342C51.2354 67.3785 51.4038 67.4505 51.6049 67.4505C51.7421 67.4505 51.8571 67.413 51.9506 67.3384C52.0441 67.2639 52.1146 67.1433 52.1621 66.9771ZM52.2122 66.093C52.2058 65.8393 52.1406 65.6475 52.0159 65.5154C51.8916 65.3837 51.7399 65.3177 51.5614 65.3177C51.3704 65.3177 51.2127 65.3874 51.0881 65.5265C50.9634 65.6657 50.9022 65.8545 50.9044 66.093H52.2122Z" fill="white"/>
<path d="M56.7486 68.0296H55.8735V66.3416C55.8735 65.9847 55.8549 65.7536 55.8174 65.649C55.78 65.5444 55.7195 65.4624 55.6353 65.4045C55.5511 65.3466 55.4502 65.3177 55.3318 65.3177C55.1801 65.3177 55.0443 65.3589 54.9237 65.4423C54.8032 65.5251 54.7208 65.6353 54.6763 65.7722C54.6318 65.909 54.6095 66.1628 54.6095 66.5323V68.03H53.7344V64.723H54.5472V65.209C54.8358 64.8354 55.199 64.6484 55.6372 64.6484C55.8304 64.6484 56.0067 64.6833 56.1665 64.7527C56.3264 64.8224 56.4474 64.9107 56.5294 65.0187C56.6114 65.1266 56.6685 65.2491 56.7004 65.386C56.7327 65.5232 56.7486 65.7191 56.7486 65.9747V68.0296Z" fill="white"/>
<path d="M57 64.1777V63.6016H59.0052V64.1777H57ZM57.5758 68.0296V64.7227H58.4505V68.0296H57.5758Z" fill="white"/>
<path d="M59.25 68.0259V63.4609H60.1248V65.1051C60.3945 64.798 60.7143 64.6444 61.0838 64.6444C61.4863 64.6444 61.8194 64.7902 62.0832 65.0821C62.3466 65.3734 62.4787 65.7922 62.4787 66.3383C62.4787 66.9029 62.3444 67.3377 62.0754 67.643C61.8064 67.9483 61.4804 68.1008 61.096 68.1008C60.9072 68.1008 60.7206 68.0537 60.5369 67.9587C60.3533 67.8645 60.1949 67.725 60.0621 67.5399V68.0263H59.25V68.0259ZM60.1185 66.3008C60.1185 66.6436 60.1726 66.8962 60.2806 67.0606C60.4323 67.2932 60.6334 67.4093 60.8846 67.4093C61.0778 67.4093 61.2422 67.3266 61.378 67.1615C61.5141 66.9968 61.582 66.7367 61.582 66.3817C61.582 66.0037 61.5134 65.731 61.3765 65.5644C61.2392 65.3971 61.0641 65.3136 60.8504 65.3136C60.6408 65.3136 60.4665 65.3949 60.3273 65.5577C60.1882 65.7206 60.1185 65.9688 60.1185 66.3008Z" fill="white"/>
<path d="M63.7829 65.7317L62.9886 65.5889C63.078 65.2691 63.2316 65.0324 63.4493 64.8788C63.6675 64.7252 63.991 64.6484 64.421 64.6484C64.8112 64.6484 65.1017 64.6948 65.2928 64.7868C65.4838 64.8792 65.6181 64.9964 65.696 65.1389C65.7739 65.281 65.8129 65.5418 65.8129 65.9216L65.8036 66.943C65.8036 67.2335 65.8177 67.4479 65.8455 67.5859C65.8737 67.7239 65.926 67.8719 66.0028 68.0296H65.1373C65.1143 67.9713 65.0865 67.8853 65.0531 67.771C65.0383 67.7191 65.0283 67.6849 65.0219 67.6682C64.8724 67.814 64.7125 67.9227 64.5426 67.9954C64.3724 68.0682 64.1906 68.1045 63.9977 68.1045C63.6571 68.1045 63.3889 68.0121 63.1926 67.8274C62.9964 67.6426 62.8984 67.4089 62.8984 67.1266C62.8984 66.94 62.943 66.7734 63.0324 66.6269C63.1218 66.4803 63.2468 66.3683 63.4074 66.2908C63.5684 66.2125 63.8003 66.1446 64.1034 66.0864C64.5122 66.0096 64.7956 65.9383 64.9537 65.8719V65.7848C64.9537 65.6163 64.9121 65.4969 64.829 65.4249C64.7459 65.3529 64.5894 65.3177 64.359 65.3177C64.2032 65.3177 64.0819 65.3481 63.9947 65.4093C63.9071 65.4709 63.8367 65.5781 63.7829 65.7317ZM64.9537 66.4418C64.8416 66.4796 64.6639 66.5238 64.421 66.5757C64.1783 66.6276 64.0192 66.6785 63.9446 66.7282C63.8303 66.809 63.7736 66.9118 63.7736 67.0365C63.7736 67.1589 63.8192 67.2646 63.9105 67.3536C64.0017 67.4431 64.1182 67.4876 64.2592 67.4876C64.4169 67.4876 64.5675 67.4356 64.7107 67.3318C64.8164 67.2527 64.8862 67.1563 64.9196 67.0424C64.9426 66.9674 64.9537 66.8254 64.9537 66.6161V66.4418Z" fill="white"/>
<path d="M0 0V53.2325H78.3685V0H0ZM76.8615 51.6966H1.50694V1.45982H76.8615V51.6966Z" fill="white"/>
</svg>
