<svg width="24" height="22" viewBox="0 0 24 22" fill="none" xmlns="http://www.w3.org/2000/svg">
<path d="M21.6562 13.0117C21.5332 13.4629 21.123 13.75 20.6719 13.75H8.6543L8.94141 15.0625H19.9336C20.5488 15.0625 21.041 15.6777 20.877 16.293L20.6719 17.2773C21.4512 17.6465 21.9844 18.4258 21.9844 19.3281C21.9844 20.5996 20.918 21.625 19.6875 21.625C18.416 21.625 17.3906 20.5996 17.3906 19.3281C17.3906 18.7129 17.6367 18.1387 18.0469 17.6875H9.47461C9.88477 18.1387 10.1719 18.7129 10.1719 19.3281C10.1719 20.5996 9.10547 21.625 7.875 21.625C6.60352 21.625 5.57812 20.5996 5.57812 19.3281C5.57812 18.5078 6.0293 17.7695 6.72656 17.3594L3.81445 3.25H0.984375C0.410156 3.25 0 2.83984 0 2.26562V1.60938C0 1.07617 0.410156 0.625 0.984375 0.625H5.16797C5.61914 0.625 6.0293 0.994141 6.15234 1.44531L6.52148 3.25H22.5996C23.2559 3.25 23.707 3.86523 23.584 4.48047L21.6562 13.0117Z" fill="#1F65E8"/>
</svg>
