<svg width="38" height="38" viewBox="0 0 38 38" fill="none" xmlns="http://www.w3.org/2000/svg">
<g clip-path="url(#clip0_222_770)">
<path d="M30.6274 35.9916C30.9532 35.9916 31.2747 36.1156 31.5192 36.3518C33.0826 37.8614 35.3631 38.3641 37.3903 37.7349C36.0856 35.0169 35.9049 31.9029 36.9159 29.0197C38.1707 25.4325 38.4851 21.837 37.0571 18.2309C35.8025 15.0631 33.3815 12.4312 30.3175 10.9304C30.506 11.9354 30.601 12.9593 30.601 13.994C30.6011 18.3861 28.9122 22.517 25.8457 25.6259C22.7788 28.7351 18.6676 30.4834 14.2697 30.5488C13.4526 30.5616 12.6392 30.5135 11.835 30.4075C14.252 34.6442 18.8105 37.4035 23.8197 37.4778C26.011 37.5117 28.115 37.0526 30.0745 36.1169C30.2509 36.0325 30.4399 35.9916 30.6274 35.9916Z" fill="#1F65E8"/>
<path d="M14.3062 0.00279207C6.50434 -0.152124 0.0188542 6.15945 4.23044e-05 13.9596C-0.00456661 15.8653 0.367438 17.713 1.1058 19.4516C1.11653 19.4769 1.1265 19.5025 1.13553 19.5285C2.14657 22.4117 1.96588 25.5255 0.661092 28.2437C2.68854 28.8725 4.96873 28.3702 6.53219 26.8604C6.91736 26.4883 7.49366 26.3946 7.97694 26.6257C9.9361 27.5614 12.0404 28.0219 14.2316 27.9867C21.9724 27.8717 28.036 21.7254 28.0359 13.994C28.036 6.43138 21.8768 0.15498 14.3062 0.00279207ZM6.54065 16.084C5.41975 16.084 4.51104 15.1768 4.51104 14.0578C4.51104 12.9388 5.41975 12.0316 6.54065 12.0316C7.66156 12.0316 8.57026 12.9388 8.57026 14.0578C8.57017 15.1768 7.66156 16.084 6.54065 16.084ZM14.018 16.084C12.8971 16.084 11.9884 15.1768 11.9884 14.0578C11.9884 12.9388 12.8971 12.0316 14.018 12.0316C15.1389 12.0316 16.0476 12.9388 16.0476 14.0578C16.0476 15.1768 15.1389 16.084 14.018 16.084ZM21.4954 16.084C20.3745 16.084 19.4658 15.1768 19.4658 14.0578C19.4658 12.9388 20.3745 12.0316 21.4954 12.0316C22.6163 12.0316 23.5251 12.9388 23.5251 14.0578C23.5251 15.1768 22.6163 16.084 21.4954 16.084Z" fill="#1F65E8"/>
</g>
<defs>
<clipPath id="clip0_222_770">
<rect width="38" height="38" fill="white"/>
</clipPath>
</defs>
</svg>
