<svg width="60" height="60" viewBox="0 0 60 60" fill="none" xmlns="http://www.w3.org/2000/svg">
  <rect width="60" height="60" rx="8" fill="#F5F5F5"/>
  <path d="M30 15C21.716 15 15 21.716 15 30C15 38.284 21.716 45 30 45C38.284 45 45 38.284 45 30C45 21.716 38.284 15 30 15ZM30 42C23.373 42 18 36.627 18 30C18 23.373 23.373 18 30 18C36.627 18 42 23.373 42 30C42 36.627 36.627 42 30 42Z" fill="#666666"/>
  <path d="M30 20C24.486 20 20 24.486 20 30C20 35.514 24.486 40 30 40C35.514 40 40 35.514 40 30C40 24.486 35.514 20 30 20ZM30 37C26.134 37 23 33.866 23 30C23 26.134 26.134 23 30 23C33.866 23 37 26.134 37 30C37 33.866 33.866 37 30 37Z" fill="#666666"/>
  <circle cx="30" cy="30" r="3" fill="#666666"/>
</svg>
