<svg width="48" height="48" viewBox="0 0 48 48" fill="none" xmlns="http://www.w3.org/2000/svg">
<rect width="48" height="48" rx="8" fill="#E5E7EB"/>
<path d="M24 12C17.373 12 12 17.373 12 24C12 30.627 17.373 36 24 36C30.627 36 36 30.627 36 24C36 17.373 30.627 12 24 12ZM24 34C18.486 34 14 29.514 14 24C14 18.486 18.486 14 24 14C29.514 14 34 18.486 34 24C34 29.514 29.514 34 24 34Z" fill="#6B7280"/>
<path d="M24 16C19.589 16 16 19.589 16 24C16 28.411 19.589 32 24 32C28.411 32 32 28.411 32 24C32 19.589 28.411 16 24 16ZM24 30C20.691 30 18 27.309 18 24C18 20.691 20.691 18 24 18C27.309 18 30 20.691 30 24C30 27.309 27.309 30 24 30Z" fill="#6B7280"/>
<circle cx="24" cy="24" r="2" fill="#6B7280"/>
</svg> 