<svg width="31" height="31" viewBox="0 0 31 31" fill="none" xmlns="http://www.w3.org/2000/svg">
<path fill-rule="evenodd" clip-rule="evenodd" d="M18.5031 0C20.2469 0 21.9906 0.775 23.0562 2.22812L27.8031 8.1375C28.5781 9.20312 29.0625 10.4625 29.0625 11.7219V25.1875C29.0625 28.3844 26.4469 31 23.25 31H7.75C4.55313 31 1.9375 28.3844 1.9375 25.1875V5.8125C1.9375 2.61563 4.55313 0 7.75 0H18.5031ZM21.5063 10.9469C19.7625 9.20312 17.05 9.00937 15.1125 10.5594C14.725 10.85 14.6281 11.5281 14.9187 11.9156C15.2094 12.3031 15.8875 12.4 16.275 12.1094C17.4375 11.2375 19.0844 11.3344 20.0531 12.4C21.2156 13.5625 21.2156 15.4031 20.0531 16.4688L16.6625 19.8594L15.0156 21.5063L14.9187 21.6031C13.7562 22.6687 12.0125 22.5719 10.9469 21.5063C9.88125 20.4406 9.78437 18.6969 10.85 17.5344L10.9469 17.4375L13.175 15.2094L13.2719 15.1125C13.6594 14.8219 14.2406 14.8219 14.5312 15.2094C14.9187 15.5969 14.9187 16.1781 14.5312 16.5656L12.3031 18.7937L12.2063 18.8906C11.9156 19.2781 11.9156 19.8594 12.3031 20.15C12.6906 20.5375 13.2719 20.5375 13.6594 20.15L15.8875 17.9219L15.9844 17.825C16.9531 16.6625 16.9531 14.9187 15.8875 13.8531C14.725 12.6906 12.8844 12.6906 11.8187 13.8531L10.9469 14.725L10.85 14.8219L10.2688 15.4031L9.59062 16.0813C7.65312 18.0188 7.65312 21.0219 9.59062 22.9594C11.5281 24.8969 14.5312 24.8969 16.4688 22.9594L18.6969 20.7312L18.7937 20.6344L21.6031 17.825L21.7969 17.6313C23.3469 15.7906 23.3469 12.7875 21.5063 10.9469Z" fill="white"/>
</svg>
