<svg width="25" height="25" viewBox="0 0 25 25" fill="none" xmlns="http://www.w3.org/2000/svg">
<path d="M12.5 0C10.0277 0 7.61099 0.733112 5.55538 2.10663C3.49976 3.48015 1.89761 5.43238 0.951511 7.71646C0.00541602 10.0005 -0.242126 12.5139 0.24019 14.9386C0.722505 17.3634 1.91301 19.5907 3.66117 21.3388C5.40933 23.087 7.63661 24.2775 10.0614 24.7598C12.4861 25.2421 14.9995 24.9946 17.2835 24.0485C19.5676 23.1024 21.5199 21.5002 22.8934 19.4446C24.2669 17.389 25 14.9723 25 12.5C25 9.18479 23.683 6.00537 21.3388 3.66117C18.9946 1.31696 15.8152 0 12.5 0ZM8.86514 19.0789H6.13816V10.2944H8.86514V19.0789ZM7.50001 9.0954C7.18617 9.09669 6.87899 9.00492 6.6173 8.83167C6.35561 8.65842 6.15115 8.41148 6.02978 8.12206C5.9084 7.83264 5.87556 7.51373 5.93539 7.20565C5.99522 6.89756 6.14505 6.61413 6.36593 6.39118C6.58681 6.16823 6.86883 6.01577 7.17635 5.95307C7.48386 5.89036 7.80306 5.92024 8.0936 6.03891C8.38414 6.15758 8.63298 6.35973 8.80866 6.61979C8.98433 6.87985 9.07897 7.18616 9.0806 7.5C9.08148 7.92084 8.9157 8.3249 8.61952 8.62386C8.32333 8.92282 7.92083 9.09235 7.50001 9.0954ZM19.079 19.0789H16.3536V14.8026C16.3536 13.7829 16.3339 12.4753 14.9359 12.4753C13.5378 12.4753 13.2911 13.5839 13.2911 14.7286V19.0789H10.5757V10.2944H13.1924V11.4918H13.2303C13.5938 10.801 14.4836 10.0724 15.8109 10.0724C18.5707 10.0724 19.079 11.8914 19.079 14.2533V19.0789Z" fill="#1F65E8"/>
</svg>
