<svg width="25" height="25" viewBox="0 0 25 25" fill="none" xmlns="http://www.w3.org/2000/svg">
<path d="M12.207 14.7705C13.6228 14.7705 14.7705 13.6228 14.7705 12.207C14.7705 10.7913 13.6228 9.64355 12.207 9.64355C10.7913 9.64355 9.64355 10.7913 9.64355 12.207C9.64355 13.6228 10.7913 14.7705 12.207 14.7705Z" fill="#1F65E8"/>
<path d="M12.207 0C5.46528 0 0 5.46528 0 12.207C0 18.9488 5.46528 24.4141 12.207 24.4141C18.9488 24.4141 24.4141 18.9488 24.4141 12.207C24.4141 5.46528 18.9488 0 12.207 0ZM19.7489 15.3096C19.6903 16.4701 19.3642 17.6146 18.5185 18.4513C17.6645 19.296 16.5146 19.6108 15.3429 19.6688H9.07119C7.89932 19.6108 6.74961 19.2962 5.89565 18.4513C5.04985 17.6146 4.72378 16.4701 4.66519 15.3096V9.10449C4.72378 7.94395 5.0499 6.79951 5.89565 5.9627C6.74961 5.11797 7.89946 4.80322 9.07119 4.74526H15.3429C16.5147 4.80322 17.6645 5.11782 18.5184 5.9627C19.3642 6.79951 19.6903 7.94395 19.7489 9.10449L19.7489 15.3096Z" fill="#1F65E8"/>
<path d="M15.2636 6.15886C13.736 6.11697 10.6784 6.11697 9.15075 6.15886C8.35578 6.18069 7.45456 6.37859 6.88815 6.98357C6.29958 7.61243 6.07717 8.37219 6.05461 9.22214C6.01496 10.7139 6.05461 15.1915 6.05461 15.1915C6.08044 16.0413 6.29958 16.8012 6.88815 17.4301C7.45456 18.0352 8.35578 18.2329 9.15075 18.2548C10.6784 18.2967 13.736 18.2967 15.2636 18.2548C16.0586 18.2329 16.9598 18.035 17.5262 17.4301C18.1148 16.8012 18.3372 16.0414 18.3598 15.1915V9.22214C18.3372 8.37219 18.1148 7.61243 17.5262 6.98357C16.9596 6.37839 16.0584 6.18069 15.2636 6.15886ZM12.207 16.1802C11.4211 16.1802 10.6529 15.9472 9.9995 15.5106C9.34608 15.074 8.83681 14.4534 8.53607 13.7274C8.23533 13.0013 8.15665 12.2024 8.30996 11.4316C8.46327 10.6609 8.8417 9.95289 9.39739 9.3972C9.95308 8.84151 10.6611 8.46308 11.4318 8.30977C12.2026 8.15646 13.0015 8.23514 13.7276 8.53588C14.4536 8.83662 15.0742 9.34589 15.5108 9.99931C15.9474 10.6527 16.1804 11.4209 16.1804 12.2068C16.1804 13.2606 15.7618 14.2713 15.0166 15.0164C14.2715 15.7616 13.2608 16.1802 12.207 16.1802ZM16.1973 9.05359C16.0401 9.05355 15.8865 9.00691 15.7558 8.91957C15.6252 8.83222 15.5234 8.7081 15.4632 8.56289C15.4031 8.41767 15.3874 8.2579 15.4181 8.10376C15.4488 7.94962 15.5245 7.80804 15.6356 7.69692C15.7468 7.5858 15.8884 7.51014 16.0425 7.47949C16.1967 7.44884 16.3564 7.46459 16.5016 7.52474C16.6468 7.5849 16.7709 7.68675 16.8582 7.81743C16.9456 7.94811 16.9922 8.10175 16.9922 8.25891C16.9922 8.36329 16.9716 8.46664 16.9316 8.56307C16.8917 8.65949 16.8331 8.74711 16.7593 8.8209C16.6855 8.8947 16.5979 8.95323 16.5015 8.99315C16.405 9.03308 16.3017 9.05361 16.1973 9.05359Z" fill="#1F65E8"/>
</svg>
