<svg width="23" height="23" viewBox="0 0 23 23" fill="none" xmlns="http://www.w3.org/2000/svg">
<g clip-path="url(#clip0_151_256)">
<path d="M19.6304 3.36692C15.1387 -1.12343 7.85727 -1.12235 3.36692 3.36939C-1.12342 7.86113 -1.12234 15.1425 3.36939 19.6329C7.86113 24.1232 15.1425 24.1221 19.6329 19.6304C21.7894 17.4732 23.0006 14.5477 22.9999 11.4974C22.9993 8.44767 21.7872 5.52308 19.6304 3.36692ZM17.4162 16.0193C17.4157 16.0197 17.4153 16.0203 17.4147 16.0208V16.017L16.832 16.5958C16.0785 17.3589 14.981 17.6728 13.9378 17.4238C12.8869 17.1425 11.8878 16.6947 10.9785 16.0975C10.1337 15.5575 9.35083 14.9264 8.64403 14.2153C7.9937 13.5697 7.40944 12.8608 6.89985 12.0993C6.34246 11.2798 5.90128 10.3871 5.58885 9.4466C5.23069 8.3417 5.52749 7.1293 6.35553 6.31478L7.03785 5.63246C7.22756 5.4419 7.53581 5.44123 7.72632 5.63093C7.72682 5.63143 7.72736 5.63192 7.72785 5.63246L9.88217 7.78678C10.0727 7.97649 10.0734 8.28474 9.8837 8.47525C9.8832 8.47575 9.88271 8.47624 9.88217 8.47678L8.61717 9.74178C8.2542 10.1008 8.20856 10.6713 8.50985 11.0835C8.96738 11.7114 9.47369 12.3022 10.024 12.8506C10.6376 13.4669 11.3047 14.0275 12.0174 14.5258C12.4291 14.8131 12.9874 14.7646 13.3437 14.4108L14.5665 13.1688C14.7562 12.9783 15.0644 12.9776 15.255 13.1673C15.2555 13.1678 15.2559 13.1683 15.2565 13.1688L17.4147 15.3308C17.6053 15.5205 17.6059 15.8287 17.4162 16.0193Z" fill="#1F65E8"/>
</g>
<defs>
<clipPath id="clip0_151_256">
<rect width="23" height="23" fill="white"/>
</clipPath>
</defs>
</svg>
