<svg width="27" height="21" viewBox="0 0 27 21" fill="none" xmlns="http://www.w3.org/2000/svg">
<path d="M25.2856 0H1.71431C0.767597 0 0 0.767549 0 1.71426V19.2857C0 20.2324 0.767597 21 1.71431 21H25.2856C26.2324 21 27 20.2324 27 19.2857V1.71426C27 0.767549 26.2325 0 25.2856 0ZM25.2856 1.71426V14.1818L21.9072 11.1102C21.3994 10.6487 20.6185 10.6671 20.1334 11.1527L16.7142 14.5714L9.97243 6.51853C9.46283 5.90995 8.5294 5.90397 8.01214 6.50525L1.71431 13.8244V1.71426H25.2856ZM18 6.21426C18 4.91225 19.0551 3.85711 20.3571 3.85711C21.6591 3.85711 22.7142 4.91225 22.7142 6.21426C22.7142 7.51627 21.6592 8.57137 20.3571 8.57137C19.0551 8.57142 18 7.51627 18 6.21426Z" fill="white"/>
</svg>
