<svg width="240" height="37" viewBox="0 0 240 37" fill="none" xmlns="http://www.w3.org/2000/svg">
<g clip-path="url(#clip0_151_260)">
<path fill-rule="evenodd" clip-rule="evenodd" d="M0 0.807114C0.0288008 0.814392 0.0579048 0.828343 0.0867056 0.828343C1.52099 0.82531 2.95496 0.821064 4.38894 0.817425C4.50839 0.817122 4.62814 0.818942 4.74728 0.823187C4.82732 0.825917 4.8922 0.861097 4.92433 0.93722C4.97072 1.04731 5.01468 1.15831 5.05591 1.27052C5.37484 2.14002 5.69104 3.01013 6.01209 3.87872C6.97434 6.4851 7.93902 9.09056 8.90187 11.6969C9.17109 12.4254 9.43696 13.1551 9.70648 13.8836C9.73194 13.9524 9.77045 14.0173 9.80986 14.0798C9.81653 14.0901 9.87352 14.0874 9.88383 14.0734C9.91778 14.0267 9.9475 13.9746 9.96781 13.92C10.2776 13.0951 10.5854 12.2689 10.8943 11.4437C11.3445 10.2406 11.7962 9.03779 12.2467 7.83499C12.9752 5.89067 13.7031 3.94605 14.4316 2.00173C14.552 1.67995 14.6796 1.3609 14.7921 1.03639C14.8512 0.866253 14.9588 0.801655 15.1301 0.816819C15.1895 0.821974 15.2496 0.817122 15.3096 0.817122C16.5793 0.817122 17.8492 0.816515 19.1189 0.818335C19.2377 0.818335 19.3569 0.82986 19.4748 0.843507C19.4918 0.845327 19.5206 0.892032 19.5163 0.911442C19.4966 0.998179 19.4721 1.08461 19.4393 1.16711C19.2532 1.63961 19.0643 2.11091 18.876 2.58281C18.0117 4.7467 17.1465 6.9106 16.2831 9.07479C15.3866 11.3224 14.4914 13.5703 13.5964 15.8185C13.0383 17.2203 12.4862 18.6244 11.922 20.0238C11.6943 20.5882 11.8074 20.5169 11.1874 20.519C10.2012 20.5224 9.21535 20.5205 8.22945 20.519C7.93538 20.5184 7.91719 20.5035 7.80562 20.2227C7.05559 18.3345 6.30647 16.4463 5.55704 14.5584C4.79064 12.6286 4.02362 10.6992 3.25813 8.76909C2.69667 7.35278 2.13793 5.93525 1.57647 4.51894C1.14688 3.43593 0.714563 2.35414 0.283157 1.27174C0.255569 1.20259 0.22404 1.13496 0.197361 1.0652C0.161891 0.972704 0.0860993 0.929032 0 0.896884V0.807114Z" fill="#1F65E8"/>
<path fill-rule="evenodd" clip-rule="evenodd" d="M80.8728 1.78862C80.2959 1.77709 79.6165 1.86777 78.9443 2.0182C78.8137 2.04762 78.6842 2.08613 78.5575 2.12981C78.0776 2.29479 77.6062 2.47767 77.1453 2.69421C76.6288 2.93683 76.1585 3.25163 75.6838 3.56128C75.6465 3.58585 75.6125 3.61587 75.5789 3.64529C75.1378 4.0253 74.7061 4.41228 74.3229 4.85537C73.9488 5.28754 73.6362 5.75975 73.3452 6.2456C73.139 6.58982 72.962 6.95709 72.8183 7.33195C72.6209 7.84722 72.4463 8.37249 72.3668 8.92325C72.352 9.02667 72.3241 9.12827 72.3086 9.23168C72.2886 9.36422 72.2677 9.49705 72.2598 9.6308C72.228 10.1825 72.2128 10.7332 72.2422 11.2864C72.2726 11.8575 72.3853 12.4125 72.5302 12.9602C72.683 13.5382 72.9107 14.0899 73.1757 14.6279C73.4216 15.1277 73.7402 15.5784 74.0818 16.0112C74.4514 16.4794 74.8628 16.911 75.3224 17.2986C75.7362 17.6477 76.1807 17.947 76.6494 18.2084C77.1575 18.492 77.6865 18.737 78.2419 18.9184C78.3271 18.9463 78.4086 18.9845 78.4941 19.0106C78.6651 19.0628 78.8355 19.1216 79.0101 19.1577C79.5661 19.2729 80.1267 19.3527 80.696 19.3697C81.537 19.3955 82.365 19.3081 83.1823 19.1119C83.2548 19.0943 83.3272 19.0761 83.3978 19.0518C83.9623 18.8574 84.5165 18.6394 85.048 18.3625C85.4861 18.1344 85.8944 17.8597 86.3116 17.5982C86.3619 17.5667 86.4074 17.527 86.4532 17.4884C86.9097 17.103 87.359 16.7099 87.7319 16.2386C87.8617 16.0749 88.002 15.9187 88.1206 15.7473C88.4353 15.2927 88.713 14.8175 88.9446 14.3128C89.101 13.9728 89.2359 13.6259 89.3639 13.2756C89.4254 13.1076 89.4963 12.9405 89.5333 12.7664C89.6385 12.2702 89.7495 11.7741 89.7522 11.2621C89.7528 11.1281 89.7737 10.9943 89.7834 10.8603C89.791 10.756 89.8044 10.651 89.7986 10.5473C89.7783 10.1746 89.7649 9.80063 89.724 9.43003C89.6397 8.66789 89.4303 7.93638 89.1186 7.23702C88.8263 6.58133 88.4853 5.95142 88.0809 5.35699C88.0305 5.28299 87.9799 5.20869 87.9217 5.14076C87.543 4.69827 87.1668 4.25367 86.7078 3.88913C86.6375 3.83363 86.5744 3.76933 86.5038 3.71444C86.398 3.63195 86.2916 3.54976 86.18 3.47515C85.6461 3.11698 85.0892 2.79823 84.5038 2.53226C84.0418 2.32208 83.5667 2.14194 83.0726 2.02245C82.3877 1.85716 81.6907 1.78286 80.8728 1.78862ZM81.7571 0.000183105C81.7947 0.0208061 81.8311 0.0571995 81.8702 0.0602323C82.2431 0.0896503 82.609 0.16638 82.9771 0.2237C83.614 0.323175 84.2261 0.512118 84.8215 0.757773C85.3884 0.991298 85.9338 1.26789 86.4783 1.54781C86.518 1.56813 86.5587 1.58815 86.5947 1.61454C87.0043 1.91387 87.43 2.19016 87.8071 2.53408C88.2376 2.92713 88.659 3.32806 89.0407 3.76933C89.4715 4.26762 89.8614 4.79259 90.1694 5.37822C90.4198 5.85498 90.6429 6.34326 90.8527 6.83821C91.0576 7.32163 91.2014 7.82538 91.3044 8.33671C91.4193 8.90687 91.4966 9.48401 91.5248 10.0681C91.5564 10.7278 91.5203 11.3813 91.4375 12.0343C91.3526 12.703 91.1938 13.3551 90.9925 13.9971C90.9612 14.0966 90.9206 14.1933 90.8794 14.2892C90.6247 14.879 90.3522 15.4607 90.0372 16.0209C89.9426 16.1895 89.8319 16.3496 89.7234 16.5101C89.2444 17.2194 88.6587 17.8336 88.0372 18.4189C87.6222 18.8101 87.1617 19.1392 86.703 19.4731C86.6429 19.5171 86.5796 19.5574 86.5138 19.5923C85.8799 19.9271 85.2399 20.2522 84.5696 20.5061C84.0675 20.6959 83.5491 20.8348 83.018 20.9328C82.3989 21.0465 81.7744 21.0862 81.1493 21.1317C81.1344 21.1329 81.1196 21.136 81.1047 21.1354C80.6133 21.1053 80.1212 21.0805 79.6307 21.042C79.4379 21.0265 79.2478 20.9795 79.0565 20.9479C78.3759 20.836 77.7205 20.6422 77.0835 20.3766C76.5308 20.1464 75.9918 19.8874 75.4807 19.5805C75.0086 19.2963 74.5572 18.9775 74.1401 18.6106C73.6559 18.1848 73.2172 17.7168 72.8116 17.2191C72.2055 16.4755 71.6971 15.6703 71.3197 14.7829C70.9968 14.0226 70.7801 13.2362 70.6148 12.4285C70.509 11.9121 70.462 11.3959 70.4614 10.8724C70.4611 10.4542 70.4699 10.036 70.4763 9.61776C70.4772 9.54345 70.4818 9.46794 70.4948 9.39485C70.597 8.82165 70.6964 8.24845 70.8598 7.68769C71.015 7.15604 71.203 6.63622 71.4307 6.13339C71.6586 5.63025 71.9291 5.14895 72.2462 4.69372C72.6054 4.17754 72.9998 3.68987 73.4313 3.23435C73.8105 2.83341 74.2077 2.44825 74.6639 2.13132C74.7252 2.08886 74.7861 2.04519 74.8461 2.00091C75.4258 1.57329 76.0597 1.24211 76.7139 0.946413C77.1356 0.755347 77.5634 0.582175 78.0097 0.452675C78.4265 0.33197 78.8464 0.233101 79.2769 0.177904C79.5579 0.141814 79.8387 0.102691 80.1188 0.059929C80.1591 0.0538634 80.1952 0.0208061 80.2331 0.000183105H81.7571Z" fill="#1F65E8"/>
<path fill-rule="evenodd" clip-rule="evenodd" d="M237.975 32.2961C237.978 32.2961 237.98 32.2958 237.983 32.2958C237.974 32.1472 237.966 31.9986 237.956 31.8497C237.954 31.8066 237.878 31.7369 237.833 31.7344C237.475 31.7135 237.118 31.7071 236.763 31.7745C236.661 31.7942 236.559 31.8188 236.46 31.8515C236.141 31.957 235.914 32.1518 235.851 32.4993C235.846 32.5287 235.835 32.5572 235.833 32.587C235.813 32.8551 235.875 33.0937 236.102 33.2596C236.372 33.4562 236.928 33.495 237.216 33.33C237.41 33.2193 237.592 33.0901 237.762 32.9412C237.92 32.8014 237.999 32.6406 237.976 32.4302C237.971 32.3862 237.975 32.3407 237.975 32.2961ZM239.534 34.437C239.25 34.5568 238.951 34.5543 238.653 34.5328C238.552 34.5255 238.452 34.4794 238.355 34.4439C238.297 34.4227 238.26 34.3708 238.249 34.3099C238.233 34.2222 238.224 34.1331 238.212 34.0448C238.199 33.9535 238.124 33.9196 238.057 33.9757C237.954 34.0615 237.861 34.1637 237.749 34.2341C237.365 34.474 236.961 34.6556 236.49 34.6362C236.177 34.6232 235.865 34.6408 235.557 34.5513C235.296 34.4749 235.047 34.3742 234.835 34.208C234.522 33.9626 234.299 33.6496 234.213 33.2527C234.125 32.8502 234.141 32.4502 234.255 32.0565C234.34 31.7611 234.526 31.5252 234.748 31.3226C234.983 31.1085 235.259 30.9571 235.566 30.8753C235.941 30.7755 236.321 30.6942 236.711 30.6851C237.025 30.6778 237.337 30.6672 237.651 30.6578C237.71 30.6557 237.77 30.6526 237.829 30.6484C237.898 30.6435 237.962 30.5729 237.967 30.4968C237.969 30.467 237.976 30.4367 237.972 30.4073C237.947 30.2156 237.937 30.0197 237.892 29.8326C237.814 29.5111 237.582 29.3337 237.274 29.2491C237.217 29.2336 237.156 29.2312 237.097 29.2251C236.502 29.1675 235.939 29.2803 235.404 29.5423C235.244 29.6209 235.08 29.6928 234.914 29.7589C234.774 29.8138 234.599 29.7222 234.557 29.5766C234.507 29.4037 234.479 29.2269 234.492 29.0462C234.495 28.9867 234.506 28.9279 234.513 28.8685C234.531 28.7277 234.603 28.6176 234.704 28.5233C234.836 28.3978 234.996 28.3153 235.162 28.2473C235.313 28.1852 235.467 28.1233 235.626 28.0842C236.524 27.8622 237.423 27.8194 238.325 28.0717C238.731 28.1855 239.051 28.4123 239.281 28.7647C239.363 28.8906 239.43 29.0234 239.449 29.1757C239.457 29.236 239.48 29.29 239.534 29.3252V34.437Z" fill="#191C24"/>
<path fill-rule="evenodd" clip-rule="evenodd" d="M227.521 36.9478C227.474 36.8574 227.37 36.861 227.298 36.8116C227.236 36.7688 227.178 36.7212 227.155 36.6457C227.049 36.3072 227.058 35.9685 227.163 35.6328C227.187 35.5578 227.262 35.516 227.339 35.5133C227.458 35.5087 227.578 35.5236 227.697 35.523C227.929 35.5224 228.093 35.4083 228.197 35.2051C228.278 35.0438 228.334 34.8746 228.328 34.6896C228.325 34.5701 228.328 34.4506 228.328 34.3308C228.328 32.478 228.328 30.625 228.329 28.7726C228.329 28.6234 228.332 28.4739 228.342 28.325C228.351 28.2067 228.452 28.0996 228.568 28.0763C228.968 27.9959 229.368 27.9822 229.768 28.072C229.906 28.103 230.008 28.2121 230.016 28.3519C230.023 28.4563 230.022 28.5612 230.022 28.6655C230.023 30.6232 230.021 32.5806 230.025 34.5379C230.025 34.8843 229.971 35.2227 229.91 35.5603C229.851 35.8927 229.669 36.1693 229.469 36.4313C229.358 36.5769 229.196 36.663 229.034 36.7397C228.927 36.7907 228.81 36.8225 228.7 36.8689C228.662 36.8856 228.631 36.9211 228.597 36.9478H227.521Z" fill="#191C24"/>
<path fill-rule="evenodd" clip-rule="evenodd" d="M35.8601 10.6302V15.7359C35.8601 15.8702 35.8598 16.0046 35.8619 16.1389C35.8625 16.1835 35.8695 16.2278 35.8741 16.2724C35.8798 16.3273 35.9359 16.3867 35.9877 16.3916C36.0472 16.397 36.1066 16.4049 36.1657 16.4049C37.2701 16.4058 38.3746 16.4061 39.479 16.4052C39.5681 16.4052 39.6591 16.4043 39.7461 16.3876C40.2745 16.2879 40.7993 16.1723 41.2977 15.9652C41.7385 15.7817 42.162 15.5703 42.5486 15.2788C42.9342 14.9883 43.264 14.6465 43.573 14.2835C43.7658 14.0572 43.9459 13.8146 44.0956 13.5583C44.3521 13.1198 44.5543 12.6555 44.6801 12.1587C44.7865 11.7372 44.8645 11.3111 44.8778 10.8783C44.902 10.0976 44.8314 9.32731 44.5167 8.59853C44.434 8.40686 44.35 8.21549 44.2578 8.02836C43.8485 7.19768 43.2907 6.49408 42.5173 5.96789C42.0468 5.64793 41.5608 5.36679 41.0248 5.16632C40.5001 4.9701 39.9607 4.87305 39.4062 4.8682C38.3915 4.85971 37.3765 4.86638 36.3618 4.86547C35.8255 4.86517 35.8604 4.85395 35.8601 5.39014C35.8598 7.13672 35.8601 8.88331 35.8601 10.6302ZM31.5661 10.6636C31.5661 7.58527 31.5655 4.50699 31.5667 1.42872C31.567 0.755437 31.5051 0.817913 32.1578 0.81761C34.5926 0.816396 37.0276 0.81397 39.4623 0.819126C40.1799 0.820642 40.8918 0.887364 41.599 1.02323C42.323 1.16244 43.0057 1.40931 43.6766 1.70804C44.1981 1.94004 44.6847 2.22968 45.1531 2.54933C45.4729 2.76799 45.7812 3.00819 46.0704 3.26598C46.4828 3.63325 46.8738 4.02357 47.2288 4.44907C48.0356 5.41531 48.5743 6.52077 48.9766 7.70507C49.1655 8.26068 49.2579 8.83448 49.3777 9.40373C49.3932 9.47591 49.3907 9.55234 49.3938 9.62695C49.4204 10.3139 49.4195 11.0008 49.3938 11.6877C49.3907 11.7623 49.3895 11.8375 49.3771 11.9109C49.2146 12.856 48.9727 13.7761 48.5734 14.6538C48.3497 15.1451 48.0862 15.6122 47.8158 16.0768C47.7633 16.1668 47.6997 16.2502 47.639 16.3355C47.2204 16.9217 46.7277 17.444 46.1984 17.9277C45.8134 18.2798 45.3995 18.6001 44.9615 18.8888C44.4352 19.236 43.8786 19.5229 43.2992 19.7643C42.7896 19.9766 42.2648 20.1468 41.7221 20.2623C41.1064 20.3936 40.4822 20.4494 39.858 20.5086C39.7246 20.521 39.5894 20.5195 39.4551 20.5195C37.0052 20.5201 34.5553 20.5201 32.1057 20.5192C31.9714 20.5192 31.8374 20.5113 31.7037 20.504C31.6491 20.5013 31.5858 20.4413 31.5833 20.3903C31.5758 20.2566 31.567 20.1222 31.567 19.9885C31.5655 18.8678 31.5661 17.7469 31.5661 16.6263V10.6636Z" fill="#1F65E8"/>
<path fill-rule="evenodd" clip-rule="evenodd" d="M53.0981 10.6265C53.0981 7.56338 53.0978 4.50026 53.0987 1.43715C53.0987 1.27338 53.1078 1.1093 53.1157 0.945532C53.1181 0.890336 53.1787 0.833016 53.2333 0.82968C53.3376 0.823917 53.4416 0.818155 53.5462 0.817852C53.9642 0.816335 54.3823 0.817245 54.8007 0.817245C58.938 0.817245 63.0753 0.816942 67.2129 0.817245C67.3621 0.817245 67.5115 0.816639 67.6607 0.820581C67.8153 0.824827 67.8629 0.877598 67.8693 1.04531C67.8717 1.10506 67.872 1.1648 67.872 1.22485C67.872 2.2557 67.8723 3.28654 67.8714 4.31769C67.8714 4.40685 67.865 4.49632 67.8596 4.58579C67.8565 4.63461 67.7923 4.69982 67.7434 4.70558C67.6843 4.71256 67.6249 4.72075 67.5655 4.72196C67.4312 4.72499 67.2966 4.72378 67.1623 4.72378C64.1152 4.72378 61.0683 4.72347 58.0212 4.72469C57.8575 4.72469 57.6935 4.73348 57.5298 4.74107C57.4819 4.74319 57.4143 4.81234 57.4085 4.85783C57.4027 4.90211 57.3946 4.94638 57.3946 4.99097C57.3937 6.09672 57.3933 7.20248 57.3946 8.30793C57.3949 8.36676 57.4058 8.42681 57.4218 8.48352C57.4288 8.50839 57.4573 8.53448 57.4822 8.54479C57.5225 8.56147 57.5677 8.57269 57.6113 8.5742C57.7605 8.57906 57.9099 8.57966 58.0594 8.57966C60.6581 8.57997 63.2572 8.57966 65.8562 8.58057C66.0203 8.58057 66.1846 8.58573 66.3486 8.5921C66.4165 8.59483 66.4817 8.66974 66.4868 8.74495C66.492 8.81956 66.4971 8.89416 66.4971 8.96847C66.4977 10.0145 66.4974 11.0605 66.4971 12.1062C66.4971 12.1659 66.4956 12.2257 66.4926 12.2854C66.4871 12.3876 66.4238 12.4589 66.3301 12.4616C66.1806 12.4659 66.0315 12.4674 65.882 12.4674C63.7162 12.4677 61.5507 12.4677 59.3848 12.4677C58.847 12.4677 58.3092 12.4668 57.7717 12.4686C57.6829 12.4689 57.5922 12.4732 57.5055 12.4907C57.4704 12.4977 57.4285 12.5402 57.4158 12.5757C57.3964 12.6303 57.3943 12.6927 57.394 12.7519C57.393 13.9322 57.393 15.1126 57.3943 16.2933C57.3943 16.3524 57.3973 16.4146 57.4161 16.4695C57.4288 16.5059 57.4676 16.541 57.5034 16.5589C57.5416 16.5777 57.5901 16.5808 57.6341 16.5817C57.7835 16.5847 57.933 16.5844 58.0821 16.5844C61.1441 16.5844 64.2061 16.5838 67.2681 16.585C67.9305 16.5853 67.8702 16.5228 67.8717 17.1837C67.8735 18.095 67.872 19.0067 67.872 19.9183C67.872 20.0227 67.8729 20.1273 67.8708 20.2319C67.8656 20.4776 67.8305 20.5131 67.5822 20.5185C67.4627 20.5213 67.343 20.5197 67.2235 20.5197C62.7279 20.5201 58.2319 20.5201 53.7359 20.5197C53.6016 20.5197 53.467 20.5207 53.3327 20.5167C53.156 20.5116 53.1051 20.4558 53.1002 20.2638C53.0969 20.1297 53.0981 19.9951 53.0981 19.8604V10.6265Z" fill="#1F65E8"/>
<path fill-rule="evenodd" clip-rule="evenodd" d="M26.9039 10.7174C26.9039 13.7808 26.9046 16.8439 26.9033 19.9071C26.9033 20.5749 26.9646 20.5185 26.3113 20.5194C25.2356 20.5209 24.1603 20.5209 23.0847 20.5191C22.6654 20.5185 22.6651 20.516 22.6614 20.0963C22.6608 20.0068 22.6614 19.9171 22.6614 19.8273C22.6614 13.7159 22.6614 7.60426 22.6617 1.49289C22.6617 1.32851 22.6629 1.16414 22.6678 0.999759C22.6711 0.890276 22.729 0.829014 22.8285 0.824161C22.9179 0.819612 23.0073 0.817489 23.0971 0.817489C24.2173 0.816882 25.3375 0.816882 26.458 0.817792C26.5623 0.817792 26.6666 0.824464 26.7706 0.83053C26.8242 0.833563 26.8818 0.892399 26.8882 0.946382C26.8933 0.990661 26.9012 1.03524 26.9018 1.07952C26.9039 1.21418 26.9039 1.34853 26.9039 1.48288V10.7174Z" fill="#1F65E8"/>
<path fill-rule="evenodd" clip-rule="evenodd" d="M189.862 28.2501H189.861C189.861 28.4879 189.861 28.726 189.862 28.964C189.862 29.0529 189.864 29.1421 189.868 29.2312C189.873 29.3228 189.945 29.391 190.046 29.3923C190.298 29.3944 190.552 29.4056 190.803 29.388C191.054 29.3704 191.305 29.3404 191.542 29.2373C191.744 29.1496 191.888 29.0138 191.989 28.8221C192.126 28.5598 192.14 28.2841 192.1 27.9975C192.063 27.7291 191.929 27.528 191.711 27.3748C191.536 27.2514 191.337 27.1856 191.127 27.1795C190.756 27.1683 190.385 27.1726 190.013 27.1707C189.999 27.1707 189.981 27.1732 189.971 27.1823C189.939 27.2096 189.896 27.2359 189.884 27.2714C189.865 27.3263 189.864 27.3882 189.863 27.4473C189.861 27.7148 189.862 27.9823 189.862 28.2501ZM189.862 31.8828H189.861C189.861 32.0017 189.86 32.1212 189.862 32.24C189.864 32.4933 189.867 32.7462 189.87 32.9995C189.871 33.0483 189.935 33.1196 189.981 33.1247C189.995 33.1262 190.01 33.1323 190.025 33.1323C190.456 33.1341 190.889 33.1499 191.319 33.1317C191.586 33.1202 191.849 33.0468 192.08 32.8991C192.142 32.8593 192.209 32.8169 192.252 32.7596C192.453 32.4945 192.624 32.2161 192.563 31.8591C192.561 31.8449 192.564 31.8294 192.562 31.8145C192.535 31.3939 192.341 31.0755 191.959 30.8926C191.731 30.7834 191.491 30.7015 191.23 30.7058C191.141 30.707 191.052 30.6885 190.963 30.687C190.651 30.6824 190.338 30.6794 190.026 30.6797C189.929 30.6797 189.873 30.747 189.866 30.855C189.865 30.885 189.863 30.9144 189.863 30.9444C189.862 31.2571 189.862 31.5698 189.862 31.8828ZM188.132 30.1793C188.132 29.015 188.131 27.851 188.133 26.6864C188.134 26.5229 188.141 26.358 188.162 26.1957C188.187 25.9922 188.345 25.8491 188.553 25.8266C188.642 25.8172 188.732 25.8175 188.821 25.8175C189.597 25.8172 190.373 25.8184 191.149 25.8169C191.693 25.8157 192.219 25.9124 192.72 26.1193C193.039 26.2509 193.31 26.4529 193.517 26.7452C193.777 27.1137 193.902 27.5138 193.897 27.9605C193.894 28.1986 193.904 28.4357 193.825 28.6689C193.743 28.9143 193.62 29.1299 193.441 29.3161C193.285 29.4772 193.114 29.6185 192.933 29.7492C192.919 29.7592 192.918 29.8065 192.929 29.8256C192.942 29.8487 192.974 29.8633 193.001 29.8754C193.095 29.9191 193.192 29.9582 193.286 30.0022C194.005 30.3394 194.364 30.9165 194.407 31.6981C194.425 32.042 194.4 32.3814 194.299 32.7168C194.182 33.1001 193.98 33.4247 193.676 33.6791C193.209 34.07 192.672 34.3202 192.067 34.4094C191.698 34.4637 191.328 34.4995 190.953 34.4946C190.282 34.4852 189.61 34.4916 188.939 34.4916C188.79 34.4916 188.642 34.4892 188.495 34.45C188.317 34.4024 188.213 34.2878 188.17 34.1167C188.148 34.0309 188.139 33.9402 188.135 33.8514C188.129 33.7322 188.132 33.6127 188.132 33.4932C188.132 32.3887 188.132 31.2841 188.132 30.1793Z" fill="#191C24"/>
<path fill-rule="evenodd" clip-rule="evenodd" d="M202.027 32.2777H202.032C202.026 32.144 202.021 32.0096 202.013 31.8762C202.009 31.8031 201.941 31.737 201.868 31.7327C201.555 31.7161 201.241 31.7058 200.931 31.7564C200.784 31.7801 200.638 31.8143 200.496 31.8571C200.306 31.915 200.136 32.02 200.029 32.1862C199.888 32.4069 199.84 32.6568 199.918 32.9152C199.962 33.0602 200.043 33.1836 200.174 33.2704C200.46 33.4593 200.996 33.4912 201.288 33.321C201.442 33.2319 201.595 33.1324 201.728 33.0156C202.055 32.7296 202.025 32.7515 202.027 32.3675V32.2777ZM203.682 32.0524C203.682 32.7245 203.681 33.3965 203.682 34.0686C203.682 34.3564 203.629 34.4817 203.26 34.5223C203.083 34.542 202.902 34.5438 202.724 34.5332C202.623 34.5275 202.523 34.4829 202.425 34.4504C202.346 34.4246 202.311 34.3588 202.296 34.2821C202.277 34.1805 202.263 34.0783 202.243 33.977C202.236 33.9433 202.202 33.9306 202.172 33.9506C202.109 33.9897 202.047 34.0307 201.992 34.0783C201.581 34.4304 201.114 34.6363 200.566 34.6345C200.237 34.633 199.91 34.6421 199.589 34.5451C199.328 34.4662 199.078 34.3631 198.87 34.1917C198.553 33.9297 198.332 33.6052 198.259 33.1824C198.193 32.8051 198.224 32.4382 198.307 32.0721C198.329 31.9726 198.377 31.875 198.429 31.7864C198.701 31.3291 199.098 31.0261 199.607 30.8811C199.995 30.7704 200.39 30.6922 200.796 30.684C201.094 30.6782 201.392 30.6673 201.691 30.6573C201.765 30.6546 201.841 30.6555 201.912 30.6379C201.948 30.6288 201.983 30.5857 202.001 30.5497C202.019 30.5114 202.027 30.4626 202.023 30.4196C202.008 30.2412 201.998 30.0611 201.964 29.8861C201.897 29.5349 201.639 29.3017 201.298 29.2468C200.898 29.1825 200.496 29.1949 200.101 29.3065C199.856 29.376 199.62 29.4633 199.393 29.5804C199.261 29.6489 199.121 29.7044 198.983 29.7578C198.84 29.813 198.662 29.7314 198.618 29.5886C198.533 29.3117 198.523 29.029 198.599 28.7497C198.627 28.6499 198.702 28.5699 198.785 28.5013C198.924 28.3849 199.082 28.3018 199.249 28.2353C199.387 28.1804 199.527 28.1219 199.671 28.0886C200.343 27.9339 201.019 27.832 201.712 27.9415C201.948 27.9788 202.184 28.0173 202.413 28.0819C202.921 28.2247 203.273 28.5477 203.474 29.0327C203.619 29.3817 203.683 29.7478 203.682 30.1257C203.681 30.7677 203.682 31.4104 203.682 32.0524Z" fill="#191C24"/>
<path fill-rule="evenodd" clip-rule="evenodd" d="M215.59 26.4405C215.694 26.4405 215.799 26.4356 215.903 26.442C215.976 26.4466 216.051 26.4608 216.123 26.4787C216.273 26.5157 216.355 26.6109 216.366 26.7608C216.373 26.8648 216.373 26.9694 216.374 27.0737C216.375 27.2827 216.373 27.4917 216.375 27.7003C216.376 27.7746 216.384 27.8489 216.391 27.9229C216.396 27.9745 216.458 28.04 216.507 28.0424C216.641 28.0491 216.775 28.0542 216.909 28.0561C217.162 28.0597 217.416 28.0573 217.669 28.0636C217.794 28.0664 217.893 28.1607 217.915 28.2841C217.923 28.3281 217.933 28.3724 217.934 28.417C217.936 28.6256 217.936 28.8346 217.934 29.0435C217.932 29.274 217.777 29.4424 217.544 29.4402C217.291 29.4375 217.037 29.4399 216.784 29.4424C216.694 29.4433 216.605 29.4505 216.516 29.4575C216.467 29.4615 216.4 29.5258 216.394 29.5734C216.386 29.6471 216.376 29.7211 216.376 29.7954C216.374 30.5411 216.37 31.2872 216.377 32.0333C216.379 32.2413 216.4 32.4512 216.437 32.6559C216.482 32.9088 216.637 33.0838 216.886 33.166C216.988 33.1991 217.093 33.2033 217.196 33.1839C217.357 33.1542 217.516 33.1126 217.676 33.0784C217.781 33.0553 217.894 33.1269 217.91 33.2324C217.955 33.529 217.958 33.8266 217.907 34.1222C217.877 34.2978 217.769 34.4134 217.598 34.4725C217.285 34.5808 216.964 34.6451 216.633 34.6305C216.44 34.6221 216.246 34.6036 216.055 34.569C215.502 34.4686 215.107 34.1583 214.873 33.6458C214.843 33.5785 214.813 33.5072 214.803 33.4347C214.752 33.0811 214.684 32.7299 214.688 32.3684C214.697 31.5777 214.691 30.7868 214.69 29.9961C214.69 29.8767 214.69 29.7575 214.686 29.638C214.681 29.5106 214.622 29.4524 214.49 29.4469C214.371 29.4417 214.251 29.4445 214.132 29.4396C213.892 29.4296 213.79 29.3344 213.748 29.0893C213.704 28.8364 213.711 28.5844 213.757 28.3327C213.797 28.1158 213.859 28.0615 214.09 28.0585C214.781 28.0497 214.681 28.127 214.69 27.4168C214.693 27.2078 214.69 26.9988 214.696 26.7899C214.7 26.6334 214.771 26.5421 214.926 26.5005C215.04 26.4702 215.159 26.4508 215.277 26.4396C215.38 26.4296 215.485 26.4375 215.59 26.4375V26.4405Z" fill="#191C24"/>
<path fill-rule="evenodd" clip-rule="evenodd" d="M208.172 29.8654C208.172 28.5362 208.172 27.2069 208.173 25.8776C208.173 25.7433 208.174 25.6086 208.184 25.4746C208.193 25.3608 208.26 25.278 208.368 25.2447C208.468 25.214 208.571 25.1852 208.674 25.1819C208.927 25.1731 209.181 25.1776 209.435 25.1813C209.494 25.1819 209.554 25.1968 209.611 25.2107C209.792 25.2538 209.887 25.3681 209.897 25.5613C209.902 25.6653 209.901 25.7703 209.901 25.8749C209.901 28.5334 209.901 31.1923 209.9 33.8508C209.9 33.97 209.898 34.0898 209.889 34.2087C209.881 34.3221 209.819 34.4058 209.715 34.4489C209.632 34.4828 209.546 34.5235 209.46 34.5271C209.192 34.5383 208.923 34.5344 208.655 34.5332C208.61 34.5332 208.565 34.5229 208.523 34.5095C208.243 34.4213 208.171 34.3797 208.173 34.0777C208.173 33.9582 208.172 33.8387 208.172 33.7192V29.8654Z" fill="#191C24"/>
<path fill-rule="evenodd" clip-rule="evenodd" d="M221.96 31.2992C221.96 30.4337 221.96 29.5678 221.96 28.7022C221.96 28.583 221.96 28.4632 221.967 28.3444C221.973 28.2234 222.068 28.1084 222.179 28.0842C222.592 27.9944 223.007 27.981 223.422 28.0711C223.553 28.0996 223.664 28.2191 223.675 28.3504C223.683 28.4396 223.685 28.5294 223.685 28.6188C223.685 30.3951 223.685 32.1711 223.685 33.9471C223.685 33.992 223.685 34.0366 223.685 34.0815C223.684 34.3478 223.623 34.4312 223.33 34.5137C223.273 34.5294 223.212 34.5376 223.153 34.5385C222.944 34.5416 222.735 34.5431 222.526 34.5394C222.453 34.5379 222.377 34.5282 222.306 34.507C222.015 34.4193 221.959 34.3714 221.96 34.0754C221.961 33.1501 221.96 32.2248 221.96 31.2992Z" fill="#191C24"/>
<path fill-rule="evenodd" clip-rule="evenodd" d="M229.176 25.3782C229.362 25.4042 229.525 25.4224 229.686 25.4509C229.859 25.4819 229.978 25.5865 230.048 25.7485C230.184 26.062 230.195 26.3829 230.098 26.7068C230.049 26.8706 229.935 26.9883 229.778 27.0592C229.482 27.1933 229.173 27.2009 228.861 27.1444C228.759 27.1262 228.658 27.0941 228.562 27.0562C228.384 26.987 228.264 26.8636 228.239 26.6659C228.21 26.4451 228.173 26.2237 228.229 26.002C228.25 25.9159 228.275 25.83 228.308 25.7481C228.374 25.5853 228.496 25.4794 228.669 25.4482C228.844 25.417 229.021 25.3991 229.176 25.3782Z" fill="#191C24"/>
<path fill-rule="evenodd" clip-rule="evenodd" d="M221.85 26.2421C221.848 26.0613 221.863 25.886 221.951 25.7217C222.026 25.5822 222.132 25.4881 222.287 25.4527C222.642 25.3726 222.997 25.3683 223.35 25.4511C223.556 25.4991 223.694 25.631 223.748 25.8333C223.829 26.1429 223.817 26.4535 223.705 26.7549C223.646 26.9166 223.531 27.0285 223.365 27.0861C222.952 27.2305 222.545 27.1989 222.146 27.034C222.082 27.0076 222.029 26.9436 221.984 26.8866C221.909 26.791 221.877 26.674 221.865 26.5542C221.854 26.4507 221.854 26.3464 221.85 26.2421Z" fill="#191C24"/>
<path fill-rule="evenodd" clip-rule="evenodd" d="M77.8867 10.4458C77.8736 10.1007 77.9843 9.64972 78.1795 9.22847C78.3226 8.92034 78.5015 8.62525 78.7755 8.40021C78.9477 8.25858 79.1142 8.11028 79.2933 7.97532C79.649 7.70722 80.0528 7.58439 80.4842 7.50403C80.9056 7.42548 81.317 7.46157 81.7272 7.54103C82.2053 7.63383 82.6227 7.86371 82.985 8.18458C83.276 8.44237 83.534 8.73018 83.7196 9.07804C84.0197 9.64032 84.1595 10.1425 84.1055 10.8377C84.0476 11.5852 83.7175 12.2012 83.2327 12.752C83.0635 12.9445 82.8695 13.0995 82.6573 13.2421C82.3784 13.4295 82.0691 13.5414 81.7517 13.6108C81.3752 13.6933 80.9929 13.7416 80.5985 13.6745C80.302 13.6242 80.0167 13.5493 79.736 13.4504C79.5083 13.3703 79.3109 13.2299 79.1233 13.0856C78.6412 12.715 78.2771 12.254 78.0761 11.6696C77.9534 11.3123 77.8903 10.949 77.8867 10.4458Z" fill="#1F65E8"/>
<path fill-rule="evenodd" clip-rule="evenodd" d="M86.0406 4.50539C85.8775 4.4326 85.7126 4.36345 85.5519 4.28581C85.025 4.03076 84.4675 3.86972 83.9015 3.73203C83.3188 3.59009 82.7285 3.5164 82.1295 3.51973C81.9209 3.52094 81.7126 3.54733 81.504 3.54976C81.0223 3.55461 80.5575 3.65924 80.094 3.77479C79.4407 3.93735 78.814 4.16663 78.2123 4.47476C77.7311 4.72102 77.287 5.02096 76.8559 5.3391C76.5809 5.54169 76.3272 5.77885 76.0904 6.02603C75.7193 6.41331 75.3658 6.81576 75.0714 7.27038C74.7786 7.72317 74.5367 8.20144 74.2981 8.68214C74.2584 8.76221 74.228 8.84682 74.1989 8.93113C74.1456 9.08641 74.0977 9.24351 74.0446 9.39879C73.9528 9.66749 73.8976 9.94499 73.8303 10.2198C73.6975 10.7608 73.6814 11.3128 73.6235 11.8608C73.6175 11.9199 73.6141 11.9812 73.6223 12.0397C73.6948 12.5417 73.6905 13.053 73.8191 13.5479C73.8488 13.6626 73.8603 13.7827 73.8758 13.9007C73.8855 13.9774 73.8609 14.048 73.8197 14.1126L73.8291 14.1217C73.77 13.9847 73.7193 13.8433 73.6499 13.7117C73.5026 13.4318 73.404 13.1361 73.3325 12.8295C73.2543 12.4953 73.1751 12.1617 73.1066 11.8247C72.9717 11.1572 72.9866 10.4882 73.0363 9.8164C73.0487 9.65263 73.0657 9.48886 73.0875 9.3263C73.1057 9.19317 73.1257 9.05912 73.1603 8.92992C73.3107 8.36643 73.4826 7.80931 73.7172 7.27523C73.9158 6.82395 74.1622 6.39785 74.4433 5.99024C74.7589 5.5329 75.1324 5.12681 75.5195 4.73285C75.6447 4.60547 75.7927 4.50114 75.9273 4.38317C76.3457 4.01468 76.8234 3.73445 77.3191 3.49153C77.7605 3.27499 78.208 3.06451 78.6909 2.94805C78.8359 2.91317 78.9774 2.86495 79.1205 2.82189C79.3355 2.75729 79.5559 2.72241 79.7784 2.69057C80.2526 2.62263 80.7282 2.58776 81.2063 2.5823C81.2961 2.58108 81.387 2.57168 81.4749 2.58442C81.903 2.64568 82.3368 2.67267 82.7558 2.79035C82.8277 2.81036 82.8995 2.83129 82.9723 2.84736C83.8299 3.03479 84.6051 3.41813 85.3464 3.87093C85.5865 4.01772 85.7963 4.21515 86.0148 4.3956C86.0382 4.41501 86.0279 4.47567 86.0333 4.51722L86.0406 4.50539Z" fill="#1F65E8"/>
<path fill-rule="evenodd" clip-rule="evenodd" d="M84.0166 17.155C83.9909 17.1416 83.9578 17.1344 83.9411 17.1137C83.9136 17.0798 83.8935 17.0385 83.8754 16.9982C83.6301 16.455 83.3851 15.9115 83.1417 15.3675C83.1177 15.3135 83.0932 15.2565 83.0877 15.1988C83.0841 15.16 83.1014 15.1009 83.1305 15.0806C83.2275 15.0126 83.3318 14.9532 83.4376 14.8992C84.0188 14.6017 84.4953 14.1756 84.8961 13.6694C85.1265 13.3786 85.3384 13.0695 85.4743 12.7168C85.5167 12.6061 85.5761 12.5018 85.6301 12.3953C85.6546 12.3468 85.7347 12.3107 85.7814 12.3232C85.8102 12.331 85.839 12.338 85.8669 12.3483C86.4535 12.5658 87.0401 12.7829 87.6261 13.0019C87.7571 13.051 87.7938 13.1265 87.7422 13.2409C87.6319 13.4853 87.5349 13.7379 87.4012 13.9694C86.9968 14.6678 86.5329 15.3189 85.9348 15.8736C85.3824 16.3859 84.7612 16.7874 84.1024 17.1392C84.0779 17.1523 84.0454 17.1501 84.0166 17.155Z" fill="#1F65E8"/>
<g opacity="0.7">
<path fill-rule="evenodd" clip-rule="evenodd" d="M114.64 11.0256C114.73 11.0386 114.801 11.0578 114.871 11.0578C117.313 11.0593 119.756 11.0631 122.199 11.0572C123.302 11.0552 124.316 10.7722 125.194 10.1001C126.122 9.3893 126.606 8.44101 126.781 7.32522C126.995 5.9598 126.514 4.7929 125.572 3.83014C124.667 2.90489 123.481 2.52528 122.164 2.52735C119.758 2.53207 117.353 2.52853 114.947 2.53C114.843 2.53 114.739 2.54684 114.64 2.55511V11.0256ZM122.675 12.1795C123.553 13.3213 124.418 14.4463 125.283 15.5715C126.216 16.7836 127.15 17.9951 128.081 19.2084C128.354 19.5638 128.292 19.933 127.923 20.1909C127.616 20.4063 127.212 20.3271 126.968 20.0122C125.063 17.5431 123.158 15.074 121.244 12.6123C121.156 12.5003 120.974 12.3946 120.835 12.3937C118.832 12.3798 116.829 12.3845 114.826 12.3854C114.778 12.3854 114.73 12.3946 114.619 12.4061V12.8108C114.619 15.0433 114.617 17.2755 114.62 19.5079C114.621 19.8491 114.485 20.1 114.163 20.2477C113.884 20.3756 113.613 20.3177 113.424 20.1147C113.289 19.9691 113.197 19.7549 113.163 19.559C113.119 19.3062 113.152 19.0409 113.152 18.7812V1.7371V1.27566H113.618C116.513 1.27566 119.407 1.28305 122.301 1.27271C123.933 1.26709 125.393 1.71495 126.561 2.83576C127.455 3.69365 128.015 4.74179 128.182 5.9725C128.355 7.23866 128.098 8.41501 127.419 9.4989C126.632 10.7565 125.489 11.5742 124.014 11.9382C123.584 12.0439 123.141 12.0974 122.675 12.1795Z" fill="#191C24"/>
<path fill-rule="evenodd" clip-rule="evenodd" d="M141.923 19.3397C141.926 19.3693 141.93 19.3985 141.933 19.4281C142.71 19.2913 143.512 19.2328 144.258 19.0018C146.028 18.4541 147.443 17.4189 148.516 15.9294C150.077 13.7634 150.498 11.3791 149.921 8.84945C149.508 7.0415 148.585 5.47697 147.089 4.25335C145.749 3.15764 144.226 2.47316 142.484 2.37833C139.522 2.21674 137.144 3.39398 135.426 5.67962C133.801 7.84149 133.359 10.2994 133.97 12.9159C134.477 15.0839 135.687 16.8216 137.573 18.0647C138.863 18.9149 140.327 19.3761 141.923 19.3397ZM141.951 20.6464C139.792 20.6635 137.871 20.0242 136.169 18.7182C134.184 17.1956 132.977 15.2127 132.518 12.8453C131.937 9.84944 132.536 7.04002 134.506 4.62823C136.849 1.7615 139.951 0.563288 143.698 1.20139C145.748 1.54998 147.487 2.53372 148.881 4.05394C150.423 5.73339 151.317 7.6988 151.512 9.92418C151.779 12.975 150.829 15.6568 148.65 17.8937C147.112 19.4727 145.189 20.3542 142.975 20.6402C142.639 20.6839 142.293 20.6464 141.951 20.6464Z" fill="#191C24"/>
<path fill-rule="evenodd" clip-rule="evenodd" d="M172.336 2.58717C172.328 2.75792 172.318 2.87402 172.318 2.98953C172.317 5.21077 172.326 7.43172 172.309 9.65267C172.307 9.98974 172.419 10.0648 172.745 10.0642C175.995 10.0538 179.244 10.0577 182.493 10.0583C182.639 10.0583 182.786 10.0571 182.932 10.0689C183.301 10.0993 183.581 10.3522 183.596 10.6603C183.611 10.9643 183.307 11.2822 182.949 11.3244C182.829 11.3389 182.705 11.3315 182.583 11.3315C179.322 11.3318 176.06 11.3315 172.799 11.3315H172.34C172.331 11.476 172.319 11.5903 172.319 11.7043C172.317 14.0198 172.324 16.3356 172.31 18.6511C172.308 18.9778 172.403 19.0697 172.739 19.0688C176.44 19.0585 180.141 19.062 183.842 19.0635C184.025 19.0635 184.214 19.0582 184.388 19.0998C184.699 19.1734 184.909 19.3642 184.921 19.6933C184.935 20.0366 184.742 20.2484 184.411 20.3358C184.272 20.3725 184.122 20.381 183.977 20.381C179.788 20.3834 175.598 20.3799 171.408 20.3893C171.078 20.3902 170.972 20.3093 170.972 19.9763C170.982 13.8804 170.982 7.78445 170.973 1.68851C170.973 1.38127 171.055 1.28556 171.382 1.28644C175.609 1.29649 179.835 1.29235 184.062 1.29501C184.206 1.29531 184.358 1.30358 184.494 1.34789C184.795 1.44597 184.947 1.66753 184.92 1.97418C184.894 2.26753 184.751 2.49618 184.427 2.55644C184.273 2.5851 184.112 2.58599 183.954 2.58599C180.253 2.58746 176.552 2.58717 172.851 2.58717H172.336Z" fill="#191C24"/>
<path fill-rule="evenodd" clip-rule="evenodd" d="M96.0238 13.2111V13.6953C96.0238 15.6323 96.0247 17.5697 96.0229 19.5067C96.0226 20.0066 95.7703 20.3038 95.3536 20.31C94.9373 20.3159 94.6074 19.9714 94.6074 19.5094C94.6056 13.5089 94.6062 7.50835 94.6071 1.50783C94.6071 1.44934 94.616 1.39114 94.6239 1.29454C94.7562 1.28804 94.886 1.27652 95.0158 1.27652C97.5437 1.27534 100.072 1.27061 102.6 1.27711C105.484 1.28479 107.876 2.95183 108.625 5.61295C109.333 8.12813 108.436 10.6634 106.106 12.191C105.004 12.9133 103.782 13.2043 102.474 13.209C100.483 13.2164 98.4924 13.2111 96.5015 13.2111H96.0238ZM96.0479 11.8398H96.4981C98.6353 11.8398 100.772 11.8288 102.909 11.8445C103.995 11.8525 104.925 11.4575 105.717 10.8031C107.502 9.32989 107.97 6.97453 106.839 5.00055C105.968 3.47974 104.599 2.62539 102.766 2.60501C100.678 2.58197 98.5895 2.59969 96.5012 2.59969H96.0479V11.8398Z" fill="#191C24"/>
<path fill-rule="evenodd" clip-rule="evenodd" d="M190.976 13.6509C191.755 12.8722 192.538 12.097 193.312 11.3139C196.214 8.378 199.113 5.43948 202.014 2.50273C202.376 2.13583 202.737 1.76626 203.113 1.41176C203.323 1.21412 203.558 1.05962 203.891 1.13318C204.183 1.19788 204.39 1.38753 204.373 1.63421C204.355 1.89033 204.237 2.19195 204.057 2.37718C202.651 3.82236 201.22 5.2448 199.798 6.67403C198.875 7.60134 197.952 8.52866 197.029 9.45716C196.972 9.51535 196.923 9.58212 196.851 9.66808C197.301 10.204 197.746 10.7339 198.192 11.2622C200.364 13.8314 202.537 16.4003 204.709 18.9693C204.724 18.9876 204.74 19.0056 204.755 19.024C205.107 19.4523 205.122 19.8301 204.795 20.0833C204.45 20.3513 204.103 20.2682 203.738 19.8369C201.186 16.8207 198.633 13.8054 196.08 10.7901C196.034 10.736 195.981 10.687 195.914 10.6179C195.857 10.6616 195.797 10.6973 195.75 10.7446C194.169 12.3384 192.587 13.931 191.016 15.5333C190.922 15.629 190.872 15.8021 190.871 15.9401C190.859 17.1803 190.869 18.4207 190.861 19.6612C190.857 20.1678 190.439 20.4635 189.979 20.3002C189.732 20.2121 189.567 20.0514 189.56 19.7779C189.557 19.6482 189.552 19.5179 189.552 19.3882C189.552 13.6231 189.552 7.85836 189.552 2.09329C189.552 1.43185 189.747 1.15858 190.219 1.15918C190.665 1.15947 190.881 1.467 190.881 2.11485C190.882 5.81259 190.882 9.51003 190.882 13.2078V13.6214L190.976 13.6509Z" fill="#191C24"/>
<path fill-rule="evenodd" clip-rule="evenodd" d="M232.53 20.4389C229.856 20.36 227.557 19.384 225.575 17.6785C225.44 17.5621 225.382 17.215 225.46 17.0507C225.549 16.8632 225.813 16.6936 226.032 16.6416C226.202 16.602 226.46 16.7089 226.612 16.8301C228.398 18.2605 230.429 19.0809 232.756 19.1772C233.783 19.2194 234.807 19.1913 235.776 18.802C237.499 18.1095 238.482 16.1092 237.782 14.3364C237.398 13.3645 236.714 12.701 235.774 12.2348C234.493 11.6003 233.094 11.395 231.711 11.1099C230.16 10.79 228.655 10.3043 227.473 9.2337C226.58 8.42515 226.166 7.37346 226.091 6.16934C226.006 4.78235 226.483 3.62254 227.419 2.62137C228.052 1.94457 228.823 1.44561 229.773 1.292C230.671 1.14636 231.577 0.976491 232.483 0.950198C234.128 0.902636 235.667 1.35138 237.078 2.16998C237.578 2.46067 238.034 2.82226 238.516 3.14308C238.71 3.27218 238.741 3.42461 238.676 3.63259C238.503 4.18088 237.954 4.37409 237.495 4.02313C235.959 2.84648 234.22 2.20543 232.256 2.23526C231.104 2.2524 229.963 2.41192 228.986 3.07986C227.133 4.34691 226.921 6.8553 228.466 8.33209C229.11 8.94803 229.991 9.30726 230.885 9.52912C232.183 9.85113 233.514 10.0674 234.791 10.4499C236.218 10.8777 237.581 11.4783 238.526 12.6865C239.642 14.1152 239.77 16.1615 238.779 17.7485C237.961 19.0578 236.8 19.8865 235.255 20.1704C234.361 20.3343 233.45 20.4102 232.547 20.5257C232.541 20.4968 232.536 20.4678 232.53 20.4389Z" fill="#191C24"/>
<path fill-rule="evenodd" clip-rule="evenodd" d="M214.388 2.59957H213.949C212.153 2.59957 210.357 2.60873 208.562 2.58923C208.316 2.58628 208.013 2.50356 207.838 2.34935C207.446 2.00283 207.645 1.4371 208.166 1.32101C208.284 1.29501 208.409 1.29412 208.53 1.29412C212.94 1.29265 217.35 1.29265 221.76 1.29353C222.303 1.29353 222.569 1.45956 222.62 1.81819C222.684 2.26102 222.394 2.5783 221.894 2.58421C221.124 2.59337 220.355 2.58716 219.585 2.58716C218.473 2.58716 217.362 2.58687 216.25 2.58716C215.769 2.58746 215.768 2.58805 215.768 3.04358C215.768 7.55668 215.768 12.0704 215.768 16.5835C215.768 17.5758 215.768 18.5684 215.768 19.561C215.768 19.8868 215.642 20.1793 215.311 20.246C215.095 20.2901 214.79 20.2248 214.621 20.0927C214.473 19.9772 214.405 19.7025 214.398 19.4948C214.373 18.7394 214.388 17.9828 214.388 17.2269V3.08435V2.59957Z" fill="#191C24"/>
<path fill-rule="evenodd" clip-rule="evenodd" d="M165.381 8.60833C165.381 10.6402 165.344 12.673 165.395 14.7034C165.425 15.8856 165.121 16.9456 164.465 17.9149C163.4 19.488 161.873 20.3355 159.942 20.4871C158.494 20.6008 157.185 20.1934 156.028 19.3716C155.274 18.836 154.683 18.1438 154.287 17.3122C154.156 17.0381 154.253 16.7004 154.503 16.5193C154.762 16.3317 155.135 16.3391 155.365 16.6006C155.671 16.9483 155.909 17.3509 156.21 17.7025C157.285 18.9586 159.316 19.4956 160.906 18.9615C162.856 18.3066 164.067 16.6614 164.068 14.6532C164.07 10.4361 164.072 6.2187 164.063 2.00162C164.062 1.67961 164.209 1.47784 164.478 1.35997C164.74 1.24476 165.029 1.26455 165.21 1.50089C165.315 1.63855 165.373 1.84239 165.374 2.01668C165.385 4.2137 165.381 6.41131 165.381 8.60833Z" fill="#191C24"/>
</g>
</g>
<defs>
<clipPath id="clip0_151_260">
<rect width="240" height="37" fill="white"/>
</clipPath>
</defs>
</svg>
