<svg width="18" height="17" viewBox="0 0 18 17" fill="none" xmlns="http://www.w3.org/2000/svg">
<path d="M11.78 1.64844L4.54688 4.85414L7.87168 6.32775L15.1047 3.12196L11.78 1.64844Z" fill="#C7C7C7"/>
<path d="M3.46902 4.37718L10.7022 1.17148L8.22802 0.0750469C8.11638 0.0255639 7.99561 0 7.87348 0C7.75136 0 7.63059 0.0255639 7.51895 0.0750469L0.640625 3.12362L3.46902 4.37718Z" fill="#C7C7C7"/>
<path d="M7.43753 7.0933L0 3.79688V12.4022C2.44439e-05 12.5716 0.0492184 12.7373 0.141611 12.8793C0.234003 13.0213 0.365621 13.1334 0.520488 13.202L7.43749 16.2676L7.43753 7.0933Z" fill="#C7C7C7"/>
<path d="M8.3125 13V16.265L9.24991 15.8496C8.64014 15.0247 8.31152 14.0258 8.3125 13Z" fill="#C7C7C7"/>
<path d="M13.125 8.19018C14.0575 8.18939 14.9699 8.46122 15.75 8.97223V3.79688L8.3125 7.0933V13.0027C8.31393 11.7268 8.82142 10.5035 9.72363 9.60134C10.6258 8.69912 11.8491 8.19163 13.125 8.19018Z" fill="#C7C7C7"/>
<path d="M13.125 9.0625C12.3462 9.0625 11.585 9.29343 10.9374 9.72609C10.2899 10.1587 9.78525 10.7737 9.48723 11.4932C9.18921 12.2127 9.11123 13.0044 9.26316 13.7682C9.41509 14.532 9.7901 15.2336 10.3408 15.7842C10.8914 16.3349 11.593 16.7099 12.3568 16.8618C13.1206 17.0138 13.9123 16.9358 14.6318 16.6378C15.3513 16.3398 15.9663 15.8351 16.3989 15.1876C16.8316 14.54 17.0625 13.7788 17.0625 13C17.0625 11.9557 16.6477 10.9542 15.9092 10.2158C15.1708 9.47734 14.1693 9.0625 13.125 9.0625ZM14.7468 14.0032C14.7882 14.0436 14.8212 14.0919 14.8438 14.1451C14.8664 14.1984 14.8782 14.2557 14.8786 14.3135C14.8789 14.3714 14.8677 14.4288 14.8457 14.4823C14.8237 14.5358 14.7914 14.5845 14.7504 14.6254C14.7095 14.6663 14.6609 14.6987 14.6073 14.7207C14.5538 14.7427 14.4964 14.7538 14.4386 14.7535C14.3807 14.7532 14.3235 14.7414 14.2702 14.7188C14.2169 14.6961 14.1687 14.6632 14.1282 14.6218L13.125 13.6186L12.1218 14.6218C12.0814 14.6632 12.0331 14.6961 11.9799 14.7188C11.9266 14.7414 11.8694 14.7532 11.8115 14.7535C11.7536 14.7538 11.6962 14.7427 11.6427 14.7207C11.5892 14.6987 11.5405 14.6663 11.4996 14.6254C11.4587 14.5845 11.4263 14.5358 11.4043 14.4823C11.3823 14.4288 11.3712 14.3714 11.3715 14.3135C11.3718 14.2557 11.3836 14.1984 11.4062 14.1451C11.4289 14.0919 11.4618 14.0436 11.5032 14.0032L12.5064 13L11.5032 11.9968C11.4618 11.9564 11.4289 11.9081 11.4062 11.8549C11.3836 11.8016 11.3718 11.7443 11.3715 11.6865C11.3712 11.6286 11.3823 11.5712 11.4043 11.5177C11.4263 11.4642 11.4587 11.4155 11.4996 11.3746C11.5405 11.3337 11.5892 11.3013 11.6427 11.2793C11.6962 11.2573 11.7536 11.2462 11.8115 11.2465C11.8694 11.2468 11.9266 11.2586 11.9799 11.2812C12.0331 11.3039 12.0814 11.3368 12.1218 11.3782L13.125 12.3814L14.1282 11.3782C14.1686 11.3368 14.2169 11.3039 14.2701 11.2812C14.3234 11.2586 14.3807 11.2468 14.4385 11.2465C14.4964 11.2462 14.5538 11.2573 14.6073 11.2793C14.6608 11.3013 14.7095 11.3337 14.7504 11.3746C14.7913 11.4155 14.8237 11.4642 14.8457 11.5177C14.8677 11.5712 14.8788 11.6286 14.8785 11.6865C14.8782 11.7443 14.8664 11.8016 14.8438 11.8549C14.8211 11.9081 14.7882 11.9564 14.7468 11.9968L13.7436 13L14.7468 14.0032Z" fill="#C7C7C7"/>
</svg>
