<svg width="30" height="30" viewBox="0 0 30 30" fill="none" xmlns="http://www.w3.org/2000/svg">
<g clip-path="url(#clip0_222_350)">
<path d="M15 0C6.71601 0 0 6.71601 0 15C0 23.284 6.71601 30 15 30C23.284 30 30 23.284 30 15C30 6.71601 23.284 0 15 0Z" fill="#A1B6CB"/>
<path d="M16.6415 13.6425L23.0628 6.17822H21.5411L15.9655 12.6593L11.5123 6.17822H6.37598L13.1101 15.9788L6.37598 23.8062H7.89771L13.7857 16.962L18.4887 23.8062H23.625L16.6411 13.6425H16.6415ZM8.446 7.32377H10.7833L21.5418 22.7128H19.2045L8.446 7.32377Z" fill="white"/>
</g>
<defs>
<clipPath id="clip0_222_350">
<rect width="30" height="30" fill="white"/>
</clipPath>
</defs>
</svg>
