<svg width="14" height="14" viewBox="0 0 14 14" fill="none" xmlns="http://www.w3.org/2000/svg">
<path d="M7 0C5.61553 0 4.26215 0.410543 3.11101 1.17971C1.95987 1.94888 1.06266 3.04213 0.532846 4.32122C0.00303301 5.6003 -0.13559 7.00776 0.134506 8.36563C0.404603 9.7235 1.07129 10.9708 2.05026 11.9497C3.02922 12.9287 4.2765 13.5954 5.63437 13.8655C6.99224 14.1356 8.3997 13.997 9.67878 13.4672C10.9579 12.9373 12.0511 12.0401 12.8203 10.889C13.5895 9.73785 14 8.38447 14 7C13.9978 5.14416 13.2596 3.36495 11.9473 2.05267C10.635 0.74039 8.85584 0.00218939 7 0ZM10.1818 7.63636H7.63636V10.1818C7.63636 10.3506 7.56932 10.5125 7.44998 10.6318C7.33064 10.7511 7.16878 10.8182 7 10.8182C6.83123 10.8182 6.66937 10.7511 6.55002 10.6318C6.43068 10.5125 6.36364 10.3506 6.36364 10.1818V7.63636H3.81818C3.64941 7.63636 3.48755 7.56932 3.36821 7.44998C3.24887 7.33063 3.18182 7.16877 3.18182 7C3.18182 6.83122 3.24887 6.66936 3.36821 6.55002C3.48755 6.43068 3.64941 6.36364 3.81818 6.36364H6.36364V3.81818C6.36364 3.64941 6.43068 3.48755 6.55002 3.3682C6.66937 3.24886 6.83123 3.18182 7 3.18182C7.16878 3.18182 7.33064 3.24886 7.44998 3.3682C7.56932 3.48755 7.63636 3.64941 7.63636 3.81818V6.36364H10.1818C10.3506 6.36364 10.5125 6.43068 10.6318 6.55002C10.7511 6.66936 10.8182 6.83122 10.8182 7C10.8182 7.16877 10.7511 7.33063 10.6318 7.44998C10.5125 7.56932 10.3506 7.63636 10.1818 7.63636Z" fill="#1F65E8"/>
</svg>
