<svg width="29" height="29" viewBox="0 0 29 29" fill="none" xmlns="http://www.w3.org/2000/svg">
<g clip-path="url(#clip0_222_1997)">
<path d="M29 14.5C29 6.49187 22.5081 0 14.5 0C6.49187 0 0 6.49187 0 14.5C0 22.5081 6.49187 29 14.5 29C22.5081 29 29 22.5081 29 14.5Z" fill="#1F65E8"/>
<path d="M9.49609 11.108C9.49609 10.4743 9.69955 9.83221 10.1065 9.18179C10.5134 8.53137 11.1071 7.99268 11.8876 7.56572C12.6682 7.13903 13.5787 6.92557 14.6192 6.92534C15.5863 6.92534 16.4402 7.10379 17.1808 7.46071C17.9214 7.81762 18.4935 8.30293 18.897 8.91665C19.2939 9.5084 19.5047 10.2053 19.5024 10.9178C19.5024 11.4848 19.3872 11.9818 19.1569 12.4088C18.941 12.8167 18.6643 13.1895 18.3364 13.5144C18.0196 13.8247 17.4509 14.3467 16.6304 15.0804C16.4387 15.252 16.2567 15.434 16.0851 15.6257C15.9666 15.7565 15.8641 15.9011 15.78 16.0562C15.7153 16.1808 15.6634 16.3115 15.6249 16.4465C15.5881 16.5766 15.5331 16.805 15.4597 17.1318C15.3329 17.8257 14.936 18.1725 14.2691 18.1724C14.1079 18.1766 13.9474 18.1486 13.7971 18.0902C13.6468 18.0318 13.5096 17.9441 13.3935 17.8322C13.1566 17.6057 13.0382 17.2688 13.0383 16.8216C13.0383 16.2613 13.125 15.7761 13.2984 15.366C13.4638 14.9681 13.6975 14.6022 13.9888 14.2848C14.3568 13.8968 14.7442 13.5278 15.1495 13.1791C15.5764 12.8056 15.8849 12.5238 16.0752 12.3336C16.264 12.1451 16.4257 11.9313 16.5554 11.6982C16.6852 11.4658 16.7524 11.2038 16.7505 10.9377C16.7544 10.683 16.7032 10.4304 16.6005 10.1972C16.4977 9.96407 16.3458 9.75588 16.1552 9.58688C15.7581 9.22015 15.2462 9.03671 14.6192 9.03656C13.8854 9.03656 13.3451 9.22159 12.9983 9.59164C12.6515 9.96169 12.358 10.507 12.1176 11.2276C11.8908 11.9819 11.4606 12.359 10.8269 12.359C10.6505 12.3625 10.4752 12.3292 10.3124 12.2611C10.1496 12.1931 10.0028 12.0918 9.88131 11.9637C9.6245 11.7001 9.49609 11.4149 9.49609 11.108ZM14.3791 22.0747C13.9871 22.0802 13.6071 21.9393 13.3135 21.6794C13.0098 21.416 12.8581 21.0475 12.8582 20.5737C12.8539 20.3761 12.8909 20.1797 12.9667 19.9971C13.0425 19.8145 13.1554 19.6497 13.2984 19.5131C13.4404 19.3724 13.6092 19.2618 13.7949 19.1878C13.9806 19.1139 14.1793 19.0781 14.3791 19.0826C14.5757 19.0798 14.7709 19.1164 14.9531 19.1903C15.1352 19.2643 15.3007 19.374 15.4397 19.513C15.5787 19.6521 15.6884 19.8176 15.7623 19.9998C15.8362 20.182 15.8728 20.3772 15.8699 20.5737C15.8699 21.0408 15.7197 21.4076 15.4195 21.6744C15.136 21.9348 14.7641 22.0779 14.3791 22.0747Z" fill="white"/>
</g>
<defs>
<clipPath id="clip0_222_1997">
<rect width="29" height="29" fill="white"/>
</clipPath>
</defs>
</svg>
