<svg width="13" height="13" viewBox="0 0 13 13" fill="none" xmlns="http://www.w3.org/2000/svg">
<g clip-path="url(#clip0_223_2751)">
<path d="M11.0703 1.52344H8.80585L8.55829 0.781066C8.40244 0.313904 7.96689 0 7.47447 0H5.52553C5.03308 0 4.59756 0.313904 4.44135 0.781066L4.19407 1.52344H1.92969C1.29964 1.52344 0.787109 2.03597 0.787109 2.66602V3.42773C0.787109 3.85196 1.16901 3.80859 1.57887 3.80859C5.09684 3.80859 8.28643 3.80859 11.832 3.80859C12.0425 3.80859 12.2129 3.63825 12.2129 3.42773V2.66602C12.2129 2.03597 11.7004 1.52344 11.0703 1.52344ZM4.99721 1.52344L5.16402 1.02207C5.2161 0.866227 5.36151 0.761719 5.52553 0.761719H7.47447C7.63849 0.761719 7.78393 0.866227 7.83562 1.02207L8.00262 1.52344H4.99721Z" fill="#C8C8C8"/>
<path d="M1.64258 4.62109L2.24985 11.9608C2.30378 12.5533 2.79288 13 3.3876 13H9.61376C10.2085 13 10.6976 12.5533 10.7519 11.9575L11.3588 4.62109H1.64258ZM4.59637 11.0957C4.59637 11.5978 3.83465 11.5998 3.83465 11.0957V5.76367C3.83465 5.26162 4.59637 5.25957 4.59637 5.76367V11.0957ZM6.88153 11.0957C6.88153 11.5978 6.11981 11.5998 6.11981 11.0957V5.76367C6.11981 5.26162 6.88153 5.25957 6.88153 5.76367V11.0957ZM9.16668 11.0957C9.16668 11.5978 8.40496 11.5998 8.40496 11.0957V5.76367C8.40496 5.55316 8.57531 5.38281 8.78582 5.38281C8.99634 5.38281 9.16668 5.55316 9.16668 5.76367V11.0957Z" fill="#C8C8C8"/>
</g>
<defs>
<clipPath id="clip0_223_2751">
<rect width="13" height="13" fill="white"/>
</clipPath>
</defs>
</svg>
