<svg width="35" height="31" viewBox="0 0 35 31" fill="none" xmlns="http://www.w3.org/2000/svg">
<path d="M35.0002 16.7175V24.0124C35.0002 25.5444 33.9918 26.8332 32.6273 27.2343V30.0915C32.6273 30.4197 32.4494 30.7237 32.1765 30.8817C31.8929 31.046 31.5543 31.0365 31.2748 30.8697L25.5562 27.3559H19.8731C18.0697 27.3559 16.6104 25.8604 16.6104 24.0124V23.1006H24.6188C27.3951 23.1006 29.6612 20.7783 29.6612 17.9333V13.374H31.7375C33.5409 13.374 35.0002 14.8695 35.0002 16.7175Z" fill="#B4AF9F"/>
<path d="M24.6187 0H3.26272C1.46336 0 0 1.49959 0 3.3435V17.9333C0 19.4614 1.00512 20.752 2.37288 21.151V26.4441C2.37288 26.786 2.55943 27.0983 2.8555 27.255C3.27171 27.474 3.4149 27.1861 3.78004 27.1861L11.8528 21.2768H24.6187C26.418 21.2768 27.8814 19.7773 27.8814 17.9333V3.3435C27.8814 1.49959 26.418 0 24.6187 0ZM19.8729 15.1977H8.00848C7.51722 15.1977 7.11865 14.7893 7.11865 14.2859C7.11865 13.7825 7.51722 13.374 8.00848 13.374H19.8729C20.3642 13.374 20.7627 13.7825 20.7627 14.2859C20.7627 14.7893 20.3642 15.1977 19.8729 15.1977ZM19.8729 7.90282H8.00848C7.51722 7.90282 7.11865 7.49438 7.11865 6.99096C7.11865 6.48754 7.51722 6.07909 8.00848 6.07909H19.8729C20.3642 6.07909 20.7627 6.48754 20.7627 6.99096C20.7627 7.49438 20.3642 7.90282 19.8729 7.90282Z" fill="#B4AF9F"/>
</svg>
