<svg width="56" height="56" viewBox="0 0 56 56" fill="none" xmlns="http://www.w3.org/2000/svg">
<circle cx="28" cy="28" r="28" fill="#4366D2" fill-opacity="0.2"/>
<path d="M13.1426 32.0156H40.7168C41.3483 32.0156 41.8594 31.5177 41.8594 30.9023V10.8633C41.8594 10.2479 41.3483 9.75 40.7168 9.75H13.1426C12.511 9.75 12 10.2479 12 10.8633V30.9023C12 31.5177 12.511 32.0156 13.1426 32.0156Z" fill="#191C24"/>
<path d="M23.5 34.2422V35.3555C23.5 35.9697 22.9878 36.4688 22.3574 36.4688H20.0723C19.4407 36.4688 18.9297 36.9667 18.9297 37.582C18.9297 38.1974 19.4407 38.6953 20.0723 38.6953H33.8594C34.4909 38.6953 35.002 38.1974 35.002 37.582C35.002 36.9667 34.4909 36.4688 33.8594 36.4688H31.498C30.8676 36.4688 30.3555 35.9697 30.3555 35.3555V34.2422H23.5Z" fill="#191C24"/>
<path d="M49.8574 5.29688H38.4316C37.8001 5.29688 37.2891 5.79481 37.2891 6.41016V7.52344H40.7168C42.6069 7.52344 44.1445 9.02162 44.1445 10.8633V30.9023C44.1445 32.744 42.6069 34.2422 40.7168 34.2422H37.2891V37.582C37.2891 38.1974 37.8001 38.6953 38.4316 38.6953H49.8574C50.489 38.6953 51 38.1974 51 37.582V6.41016C51 5.79481 50.489 5.29688 49.8574 5.29688ZM47.5723 33.1289C46.9413 33.1289 46.4297 32.6305 46.4297 32.0156C46.4297 31.4006 46.9413 30.9023 47.5723 30.9023C48.2033 30.9023 48.7148 31.4006 48.7148 32.0156C48.7148 32.6305 48.2033 33.1289 47.5723 33.1289ZM47.5723 28.6758C46.9413 28.6758 46.4297 28.1773 46.4297 27.5625C46.4297 26.9475 46.9413 26.4492 47.5723 26.4492C48.2033 26.4492 48.7148 26.9475 48.7148 27.5625C48.7148 28.1773 48.2033 28.6758 47.5723 28.6758Z" fill="#191C24"/>
</svg>
