<svg width="56" height="57" viewBox="0 0 56 57" fill="none" xmlns="http://www.w3.org/2000/svg">
<circle cx="28" cy="29" r="28" fill="#4366D2" fill-opacity="0.2"/>
<g clip-path="url(#clip0_5470_447)">
<path fill-rule="evenodd" clip-rule="evenodd" d="M40.6098 14.5912H35.9253L36.6477 3.54704C36.681 3.54918 36.7145 3.55041 36.7482 3.55041H39.7868C39.8206 3.55041 39.8541 3.54918 39.8873 3.54704L40.6098 14.5912ZM31.8465 4.09354H24.1744V5.58773H31.8465V4.09354ZM16.5675 13.9697H13.4832V23.6755H16.5675V13.9697ZM36.7483 2.40197H39.7869C40.0128 2.40197 40.1976 2.21715 40.1976 1.99124V1.30136C40.1976 1.07544 40.0128 0.890625 39.7869 0.890625H36.7483C36.5224 0.890625 36.3376 1.07544 36.3376 1.30136V1.99124C36.3376 2.21715 36.5224 2.40197 36.7483 2.40197ZM42.516 23.6755H34.0192V15.7396H42.516V23.6755ZM40.8545 17.4928H35.6807V19.6498H40.8545V17.4928ZM48.5246 8.89573L43.6644 10.9567V23.6755H48.5246V8.89573H48.5246ZM25.8361 23.6755H23.1502V6.73617H32.8707V23.6755H30.1848V18.1924C30.1848 17.6636 29.7521 17.2309 29.2233 17.2309H26.7975C26.2687 17.2309 25.836 17.6636 25.836 18.1924L25.8361 23.6755ZM28.5847 11.1837H30.3769V9.39144H28.5847V11.1837ZM28.5847 14.1243H30.3769V12.3321H28.5847V14.1243ZM25.6441 11.1837H27.4363V9.39144H25.6441V11.1837ZM25.6441 14.1243H27.4363V12.3321H25.6441V14.1243ZM22.0019 9.1392L17.7159 10.9567V23.6755H22.0019V9.1392ZM10.9062 24.8239V26.1514H51.1016V24.8239H10.9062ZM31.0039 34.0993C27.1228 34.0993 23.9413 31.1046 23.6439 27.2998H16.6074V29.1134L19.1394 29.6126L20.5667 33.0578L19.1291 35.2014L22.5189 38.5912L24.6626 37.1536L28.1076 38.5809L28.6069 41.1129H33.4008L33.9 38.581L37.3451 37.1537L39.4887 38.5913L42.8786 35.2015L41.441 33.0579L42.8682 29.6127L45.4002 29.1135V27.2999H38.3638C38.0662 31.1046 34.8848 34.0994 31.0037 34.0994L31.0039 34.0993Z" fill="#191C24"/>
</g>
<defs>
<clipPath id="clip0_5470_447">
<rect width="42" height="42" fill="white" transform="translate(10)"/>
</clipPath>
</defs>
</svg>
