<svg width="56" height="57" viewBox="0 0 56 57" fill="none" xmlns="http://www.w3.org/2000/svg">
<circle cx="28" cy="29" r="28" fill="#4366D2" fill-opacity="0.2"/>
<g clip-path="url(#clip0_5470_448)">
<path d="M34.5 5.375C35.2427 5.375 35.8438 4.77399 35.8438 4.03125V1.34375C35.8438 0.601014 35.2427 0 34.5 0C33.7573 0 33.1562 0.601014 33.1562 1.34375V4.03125C33.1562 4.77399 33.7573 5.375 34.5 5.375Z" fill="#191C24"/>
<path d="M54.6562 20.1562H51.9688C51.226 20.1562 50.625 20.7573 50.625 21.5C50.625 22.2427 51.226 22.8438 51.9688 22.8438H54.6562C55.399 22.8438 56 22.2427 56 21.5C56 20.7573 55.399 20.1562 54.6562 20.1562Z" fill="#191C24"/>
<path d="M18.375 21.5C18.375 20.7573 17.774 20.1562 17.0312 20.1562H14.3438C13.601 20.1562 13 20.7573 13 21.5C13 22.2427 13.601 22.8438 14.3438 22.8438H17.0312C17.774 22.8438 18.375 22.2427 18.375 21.5Z" fill="#191C24"/>
<path d="M46.8516 10.4939C47.1954 10.4939 47.5392 10.3627 47.8016 10.1002L49.7018 8.20007C50.2267 7.67517 50.2267 6.82483 49.7018 6.29993C49.1769 5.77502 48.3265 5.77502 47.8016 6.29993L45.9015 8.20007C45.3766 8.72497 45.3766 9.57532 45.9015 10.1002C46.1639 10.3627 46.5077 10.4939 46.8516 10.4939Z" fill="#191C24"/>
<path d="M21.2001 10.1002C21.4625 10.3627 21.8063 10.4939 22.1501 10.4939C22.494 10.4939 22.8378 10.3627 23.1002 10.1002C23.6251 9.57532 23.6251 8.72497 23.1002 8.20007L21.2001 6.29993C20.6752 5.77502 19.8248 5.77502 19.2999 6.29993C18.775 6.82483 18.775 7.67517 19.2999 8.20007L21.2001 10.1002Z" fill="#191C24"/>
<path d="M50.625 29.5625H47.9375V21.5C47.9375 14.091 41.909 8.0625 34.5 8.0625C27.091 8.0625 21.0625 14.091 21.0625 21.5V29.5625H18.375C17.6323 29.5625 17.0312 30.1635 17.0312 30.9062C17.0312 31.649 17.6323 32.25 18.375 32.25H26.4375V38.9688C26.4375 39.7115 27.0385 40.3125 27.7812 40.3125C28.524 40.3125 29.125 39.7115 29.125 38.9688V32.25H39.875V41.6562C39.875 42.399 40.476 43 41.2188 43C41.9615 43 42.5625 42.399 42.5625 41.6562V32.25H50.625C51.3677 32.25 51.9688 31.649 51.9688 30.9062C51.9688 30.1635 51.3677 29.5625 50.625 29.5625ZM23.75 29.5625V21.5C23.75 16.7911 26.7969 12.8329 31.0115 11.3787C28.2519 13.3247 26.4375 16.5228 26.4375 20.1562V29.5625H23.75Z" fill="#191C24"/>
</g>
<defs>
<clipPath id="clip0_5470_448">
<rect width="43" height="43" fill="white" transform="translate(13)"/>
</clipPath>
</defs>
</svg>
