<svg width="56" height="56" viewBox="0 0 56 56" fill="none" xmlns="http://www.w3.org/2000/svg">
<circle cx="28" cy="28" r="28" fill="#4366D2" fill-opacity="0.2"/>
<g clip-path="url(#clip0_5470_442)">
<path d="M41.25 21.8906H51.25V20.0625H50V16.4062H49.375V13.3594H48.125V16.4062H47.5V20.0625H41.25V21.8906Z" fill="#191C24"/>
<path d="M36.875 4.82812H35.625V7.86281L36.875 7.61906V4.82812Z" fill="#191C24"/>
<path d="M39.375 3.60938H38.125V7.37531L39.375 7.13156V3.60938Z" fill="#191C24"/>
<path d="M41.875 4.82812H40.625V6.88781L41.875 6.64406V4.82812Z" fill="#191C24"/>
<path d="M37.9688 36.1731C38.4113 35.997 38.8875 35.905 39.375 35.905V21.8894H40V18.8425H44.375V7.39844L33.125 9.59219V34.8404C33.5263 34.7405 33.945 34.6862 34.375 34.6862C35.7469 34.6862 37.0387 35.2359 37.9688 36.1731ZM40 11.53H42.5V15.1863H40V11.53ZM35 11.53H37.5V15.1863H35V11.53ZM35 17.6238H37.5V21.28H35V17.6238ZM35 23.7175H37.5V27.3737H35V23.7175ZM35 29.8112H37.5V33.4675H35V29.8112Z" fill="#191C24"/>
<path d="M44.375 34.6875C44.805 34.6875 45.2231 34.7442 45.625 34.8453V25.5469H43.125V34.849C43.5288 34.7466 43.9469 34.6875 44.375 34.6875Z" fill="#191C24"/>
<path d="M48.7056 37.125H48.75C48.9619 37.125 49.1687 37.1475 49.375 37.1731V25.5469H46.875V35.3389C47.6281 35.763 48.2631 36.3749 48.7056 37.125Z" fill="#191C24"/>
<path d="M51.875 38.2133V23.1094H40.625V36.1293C40.6763 36.147 40.7306 36.1549 40.7812 36.175C41.105 35.8484 41.475 35.5723 41.875 35.3468V24.3281H50.625V37.4967C51.0769 37.6765 51.4962 37.9166 51.875 38.2133Z" fill="#191C24"/>
<path d="M51.99 40.1719C51.3412 39.0811 50.1362 38.3438 48.75 38.3438C48.4719 38.3438 48.2012 38.3754 47.94 38.4315C47.4512 36.9666 46.0412 35.9062 44.375 35.9062C42.9606 35.9062 41.73 36.6704 41.0912 37.7978C40.6431 37.3834 40.0412 37.125 39.375 37.125C38.7088 37.125 38.1069 37.3834 37.6588 37.7978C37.02 36.6704 35.7894 35.9062 34.375 35.9062C32.69 35.9062 31.2656 36.9897 30.7925 38.4802C30.5419 38.3986 30.2788 38.3438 30 38.3438L29.6781 38.3657C29.2494 37.6247 28.4344 37.125 27.5 37.125C26.1194 37.125 25 38.2164 25 39.5625C25 39.7733 25.0294 39.9769 25.0806 40.1719H23.8087C23.7737 39.9708 23.75 39.7679 23.75 39.5625C23.75 37.5461 25.4319 35.9062 27.5 35.9062C28.5 35.9062 29.4456 36.2975 30.1394 36.9653C30.575 36.2853 31.1744 35.7308 31.875 35.3377V13.3594H23.125V19.8066C23.5656 19.9754 23.9863 20.199 24.375 20.4817V19.4531H25.625V20.6719H24.6137C24.8444 20.8596 25.0662 21.0613 25.27 21.2886C26.0462 21.3282 26.7794 21.5427 27.4425 21.8906H28.125V22.3178C29.6294 23.4122 30.625 25.2684 30.625 27.375C30.625 30.0221 29.0563 32.2738 26.875 33.1135V34.1458L23.125 38.4108V40.1719H21.875V37.9592L25.625 33.6942V32.1945C27.7412 31.8545 29.375 29.8259 29.375 27.375C29.375 24.687 27.4119 22.5 25 22.5C24.8925 22.5 24.7825 22.5067 24.6712 22.5171C23.8687 21.3946 22.6344 20.6719 21.25 20.6719C18.8381 20.6719 16.875 22.8589 16.875 25.5469C16.875 27.9978 18.5088 30.0264 20.625 30.3664V24.9375H21.875V30.7741C22.545 31.5419 23.4212 32.0392 24.375 32.1939V33.2433L21.875 36.0872V30.7741C21.7719 30.6559 21.6719 30.5334 21.5788 30.403C21.47 30.4121 21.3613 30.4219 21.25 30.4219C21.0375 30.4219 20.83 30.3993 20.625 30.3664V31.1604C20.1019 30.6991 19.4538 30.4219 18.75 30.4219C17.0269 30.4219 15.625 32.0617 15.625 34.0781C15.625 35.8441 16.7006 37.3206 18.125 37.6606V40.1719H15.625V41.3906H54.375V40.1719H51.99ZM25.625 18.2344H24.375V17.0156H25.625V18.2344ZM25.625 15.7969H24.375V14.5781H25.625V15.7969ZM28.125 20.6719H26.875V19.4531H28.125V20.6719ZM28.125 18.2344H26.875V17.0156H28.125V18.2344ZM28.125 15.7969H26.875V14.5781H28.125V15.7969ZM29.375 14.5781H30.625V15.7969H29.375V14.5781ZM29.375 17.0156H30.625V18.2344H29.375V17.0156ZM29.375 19.4531H30.625V20.6719H29.375V19.4531ZM29.375 23.1094V21.8906H30.625V23.1094H29.375ZM19.375 37.6606C19.8375 37.5503 20.2612 37.317 20.625 36.9964V40.1719H19.375V37.6606Z" fill="#191C24"/>
</g>
<defs>
<clipPath id="clip0_5470_442">
<rect width="40" height="39" fill="white" transform="translate(15 3)"/>
</clipPath>
</defs>
</svg>
