<svg width="56" height="60" viewBox="0 0 56 60" fill="none" xmlns="http://www.w3.org/2000/svg">
<circle cx="28" cy="32" r="28" fill="#4366D2" fill-opacity="0.2"/>
<path d="M21.7742 50H44.2258C44.4311 50 44.628 49.9177 44.7732 49.7712C44.9184 49.6247 45 49.426 45 49.2188V33.2035C44.9991 32.6502 44.8043 32.115 44.4501 31.6926C44.0959 31.2702 43.6051 30.9877 43.0645 30.8951V25.7818C43.0637 25.2977 42.9144 24.8257 42.6372 24.4306C42.3599 24.0355 41.9684 23.7366 41.5161 23.5749V21.4851C41.5157 21.0708 41.3524 20.6736 41.0621 20.3807C40.7719 20.0878 40.3783 19.923 39.9677 19.9226V13.1669C40.5915 12.9793 41.1274 12.5714 41.4776 12.0177C41.8278 11.4641 41.9688 10.8018 41.8748 10.1519C41.7809 9.50196 41.4582 8.9079 40.9659 8.47831C40.4735 8.04872 39.8444 7.81231 39.1935 7.81231C38.5427 7.81231 37.9136 8.04872 37.4212 8.47831C36.9289 8.9079 36.6062 9.50196 36.5123 10.1519C36.4183 10.8018 36.5593 11.4641 36.9095 12.0177C37.2597 12.5714 37.7956 12.9793 38.4194 13.1669V19.9226C38.0088 19.923 37.6152 20.0878 37.325 20.3807C37.0347 20.6736 36.8714 21.0708 36.871 21.4851V23.4381H35.3226V21.4851C35.3222 21.0708 35.1589 20.6736 34.8686 20.3807C34.5783 20.0878 34.1847 19.923 33.7742 19.9226V5.35464C34.3979 5.16698 34.9339 4.75904 35.2841 4.20542C35.6343 3.65179 35.7753 2.98946 35.6813 2.33956C35.5873 1.68965 35.2647 1.09559 34.7723 0.665998C34.28 0.236409 33.6509 0 33 0C32.3491 0 31.72 0.236409 31.2277 0.665998C30.7353 1.09559 30.4127 1.68965 30.3187 2.33956C30.2247 2.98946 30.3657 3.65179 30.7159 4.20542C31.0661 4.75904 31.6021 5.16698 32.2258 5.35464V19.9226C31.8153 19.923 31.4217 20.0878 31.1314 20.3807C30.8411 20.6736 30.6778 21.0708 30.6774 21.4851V23.4381H29.129V21.4851C29.1286 21.0708 28.9653 20.6736 28.675 20.3807C28.3848 20.0878 27.9912 19.923 27.5806 19.9226V13.1669C28.2044 12.9793 28.7403 12.5714 29.0905 12.0177C29.4407 11.4641 29.5817 10.8018 29.4877 10.1519C29.3938 9.50196 29.0711 8.9079 28.5788 8.47831C28.0864 8.04872 27.4573 7.81231 26.8065 7.81231C26.1556 7.81231 25.5265 8.04872 25.0341 8.47831C24.5418 8.9079 24.2191 9.50196 24.1252 10.1519C24.0312 10.8018 24.1722 11.4641 24.5224 12.0177C24.8726 12.5714 25.4085 12.9793 26.0323 13.1669V19.9226C25.6217 19.923 25.2281 20.0878 24.9379 20.3807C24.6476 20.6736 24.4843 21.0708 24.4839 21.4851V23.5749C24.0316 23.7366 23.64 24.0354 23.3628 24.4306C23.0856 24.8257 22.9363 25.2977 22.9355 25.7818V30.8951C22.3949 30.9877 21.9041 31.2702 21.5499 31.6926C21.1957 32.115 21.0009 32.6502 21 33.2035V49.2188C21 49.426 21.0816 49.6247 21.2268 49.7712C21.372 49.9177 21.5689 50 21.7742 50ZM38.8068 46.4845C38.6537 46.4845 38.504 46.4388 38.3766 46.353C38.2492 46.2672 38.1499 46.1452 38.0913 46.0024C38.0326 45.8597 38.0173 45.7026 38.0471 45.551C38.0769 45.3994 38.1507 45.2602 38.2589 45.1509C38.3672 45.0416 38.5052 44.9672 38.6554 44.937C38.8056 44.9069 38.9613 44.9223 39.1028 44.9815C39.2442 45.0406 39.3652 45.1408 39.4502 45.2693C39.5353 45.3978 39.5807 45.5489 39.5806 45.7034C39.5806 45.9105 39.4991 46.1091 39.354 46.2556C39.2089 46.402 39.0121 46.4844 38.8068 46.4845ZM39.5806 42.5783C39.5806 42.7855 39.4991 42.9842 39.3539 43.1307C39.2087 43.2772 39.0118 43.3595 38.8065 43.3595C38.6011 43.3595 38.4042 43.2772 38.259 43.1307C38.1138 42.9842 38.0323 42.7855 38.0323 42.5783V35.5472C38.0323 35.34 38.1138 35.1413 38.259 34.9948C38.4042 34.8483 38.6011 34.766 38.8065 34.766C39.0118 34.766 39.2087 34.8483 39.3539 34.9948C39.4991 35.1413 39.5806 35.34 39.5806 35.5472V42.5783ZM24.4839 25.7818C24.4841 25.5747 24.5657 25.3761 24.7109 25.2297C24.856 25.0832 25.0528 25.0008 25.2581 25.0006H40.7419C40.9472 25.0008 41.144 25.0832 41.2891 25.2297C41.4342 25.3761 41.5159 25.5747 41.5161 25.7818V30.8598H24.4839V25.7818Z" fill="#191C24"/>
</svg>
