<svg width="56" height="56" viewBox="0 0 56 56" fill="none" xmlns="http://www.w3.org/2000/svg">
<circle cx="28" cy="28" r="28" fill="#4366D2" fill-opacity="0.2"/>
<g clip-path="url(#clip0_5470_444)">
<path d="M50.8141 18.7713C50.6907 18.8017 50.5841 18.8809 50.5174 18.9915C50.4508 19.1022 50.4297 19.2353 50.4585 19.3619C50.8088 20.8847 50.9861 22.4437 50.9871 24.0082C50.9809 29.3017 48.9254 34.3765 45.2714 38.1196C41.6175 41.8626 36.6635 43.9682 31.496 43.9746C27.2519 43.9898 23.1216 42.5687 19.747 39.9321C20.2001 39.24 20.3811 38.3981 20.2538 37.575C20.1265 36.752 19.7003 36.0086 19.0605 35.4939C18.4207 34.9792 17.6147 34.7312 16.804 34.7996C15.9932 34.868 15.2377 35.2477 14.6887 35.8627C14.1398 36.4777 13.838 37.2824 13.8438 38.1158C13.8497 38.9491 14.1627 39.7493 14.7203 40.3561C15.2778 40.963 16.0386 41.3315 16.8502 41.388C17.6618 41.4444 18.4643 41.1846 19.0968 40.6605C22.6499 43.4627 27.0119 44.9748 31.496 44.959C34.5852 44.9555 37.6336 44.2361 40.4128 42.8545C43.192 41.4729 45.63 39.465 47.5441 36.9811C49.4582 34.4973 50.7988 31.602 51.4655 28.512C52.1322 25.4221 52.1077 22.2177 51.3939 19.1388C51.3795 19.0756 51.3532 19.0159 51.3162 18.9631C51.2793 18.9104 51.2325 18.8656 51.1786 18.8315C51.1247 18.7973 51.0648 18.7744 51.0022 18.7641C50.9397 18.7538 50.8757 18.7562 50.8141 18.7713Z" fill="#191C24"/>
<path d="M12.0078 24.0055C12.008 20.454 12.933 16.9667 14.6872 13.9033C16.4415 10.84 18.9616 8.31133 21.9877 6.57814C25.0139 4.84494 28.4365 3.96992 31.9028 4.0433C35.3691 4.11667 38.7535 5.13578 41.7072 6.99555C41.4023 7.6637 41.3535 8.42477 41.5705 9.12802C41.7874 9.83128 42.2543 10.4254 42.8786 10.7928C43.5029 11.1601 44.2391 11.2739 44.9415 11.1116C45.6438 10.9492 46.261 10.5226 46.6708 9.91622C47.0806 9.30982 47.2531 8.56788 47.1543 7.83733C47.0554 7.10679 46.6923 6.44093 46.1369 5.97163C45.5814 5.50233 44.8742 5.26383 44.1553 5.30336C43.4364 5.34289 42.7581 5.65757 42.2549 6.18508C39.1568 4.22312 35.6033 3.14427 31.9619 3.06003C28.3205 2.97579 24.7231 3.88922 21.5416 5.70591C18.3602 7.5226 15.71 10.1766 13.865 13.3938C12.02 16.6109 11.0471 20.2743 11.0469 24.0055C11.0452 25.2845 11.1588 26.5608 11.3864 27.8184C11.406 27.9317 11.4639 28.0342 11.55 28.1081C11.6362 28.1819 11.745 28.2222 11.8573 28.2219C11.8864 28.2219 11.9154 28.2186 11.9438 28.2121C12.069 28.1889 12.1802 28.1158 12.2528 28.0088C12.3255 27.9017 12.3537 27.7695 12.3313 27.6412C12.1154 26.4419 12.0071 25.225 12.0078 24.0055Z" fill="#191C24"/>
<path d="M28.6172 20.7503V21.0456H34.3828V20.7503C34.338 16.7603 28.662 16.7603 28.6172 20.7503Z" fill="#191C24"/>
<path d="M44.935 13.7774C39.5281 13.8332 34.3262 10.4109 32.3371 8.9343C32.0929 8.75354 31.7992 8.65625 31.4979 8.65625C31.1966 8.65625 30.9029 8.75354 30.6587 8.9343C28.6695 10.4109 23.4548 13.8201 18.0608 13.7774C17.8692 13.7755 17.6792 13.8124 17.5016 13.886C17.324 13.9596 17.1624 14.0684 17.026 14.2063C16.8896 14.3441 16.7813 14.5082 16.7071 14.6892C16.6329 14.8701 16.5944 15.0643 16.5938 15.2606C16.597 22.837 18.0768 33.6749 30.8477 40.2965C31.049 40.4016 31.2719 40.4565 31.4979 40.4565C31.7239 40.4565 31.9467 40.4016 32.1481 40.2965C44.919 33.6749 46.3988 22.837 46.402 15.2606C46.3991 14.8647 46.2431 14.4862 45.968 14.2081C45.693 13.9301 45.3214 13.7752 44.935 13.7774ZM36.783 28.7596C36.783 29.4123 36.5299 30.0382 36.0794 30.4998C35.6289 30.9613 35.0178 31.2206 34.3807 31.2206H28.6151C27.9779 31.2206 27.3669 30.9613 26.9164 30.4998C26.4658 30.0382 26.2127 29.4123 26.2127 28.7596V23.5096C26.213 23.031 26.3495 22.5628 26.6055 22.1624C26.8615 21.7621 27.2259 21.4468 27.6541 21.2554V20.7468C27.7118 15.4804 35.284 15.4804 35.3416 20.7468V21.2554C35.7699 21.4468 36.1343 21.7621 36.3903 22.1624C36.6463 22.5628 36.7828 23.031 36.783 23.5096V28.7596Z" fill="#191C24"/>
<path d="M32.2889 25.5686C32.2818 25.5245 32.2838 25.4794 32.2949 25.4362C32.3059 25.393 32.3257 25.3527 32.353 25.3179C32.4603 25.1589 32.5231 24.973 32.5346 24.7801C32.5461 24.5872 32.5059 24.3948 32.4183 24.2236C32.3307 24.0525 32.1991 23.9091 32.0376 23.8091C31.8762 23.7091 31.6912 23.6562 31.5025 23.6562C31.3139 23.6562 31.1289 23.7091 30.9674 23.8091C30.806 23.9091 30.6744 24.0525 30.5868 24.2236C30.4992 24.3948 30.459 24.5872 30.4705 24.7801C30.482 24.973 30.5448 25.1589 30.6521 25.3179C30.6793 25.3523 30.699 25.3923 30.71 25.4351C30.7211 25.4779 30.7232 25.5226 30.7162 25.5663C30.6409 25.9505 30.4279 27.0491 30.2777 27.8116C30.2594 27.9067 30.2619 28.0048 30.2851 28.0988C30.3082 28.1928 30.3514 28.2804 30.4115 28.3552C30.4717 28.4301 30.5472 28.4904 30.6328 28.5317C30.7184 28.5731 30.8118 28.5946 30.9064 28.5945H32.098C32.1928 28.5946 32.2864 28.5731 32.3721 28.5315C32.4578 28.49 32.5335 28.4296 32.5936 28.3545C32.6537 28.2794 32.6968 28.1916 32.7198 28.0974C32.7428 28.0032 32.745 27.9049 32.7265 27.8097L32.2889 25.5686Z" fill="#191C24"/>
</g>
<defs>
<clipPath id="clip0_5470_444">
<rect width="41" height="42" fill="white" transform="translate(11 3)"/>
</clipPath>
</defs>
</svg>
