<svg width="56" height="56" viewBox="0 0 56 56" fill="none" xmlns="http://www.w3.org/2000/svg">
<circle cx="28" cy="28" r="28" fill="#4366D2" fill-opacity="0.2"/>
<path d="M44.7348 1.14844H21.2642C17.8666 1.14844 15.1172 3.98167 15.1172 7.45726V31.5455C15.1172 35.0211 17.8666 37.8543 21.2642 37.8543H44.7348C48.1213 37.8543 50.8819 35.0211 50.8819 31.5455V7.45726C50.8819 3.98167 48.1213 1.14844 44.7348 1.14844ZM28.529 4.58961H30.2054C31.1219 4.58961 31.8819 5.35814 31.8819 6.3102C31.8819 7.26226 31.1219 8.03079 30.2054 8.03079H28.529C27.6013 8.03079 26.8525 7.26226 26.8525 6.3102C26.8525 5.35814 27.6013 4.58961 28.529 4.58961ZM38.1184 18.5723C38.409 18.7902 38.5878 19.1343 38.5878 19.5014C38.5878 19.8799 38.409 20.224 38.1184 20.442L30.2948 26.1773C30.0937 26.3149 29.8701 26.3837 29.6466 26.3837C29.4678 26.3837 29.289 26.3493 29.1325 26.2576C28.7637 26.0626 28.529 25.6726 28.529 25.2367V13.7661C28.529 13.3417 28.7637 12.9517 29.1325 12.7567C29.5013 12.5617 29.9484 12.5846 30.2948 12.837L38.1184 18.5723ZM22.9407 34.4131H21.2642C20.3366 34.4131 19.5878 33.6446 19.5878 32.6926C19.5878 31.7405 20.3366 30.972 21.2642 30.972H22.9407C23.8572 30.972 24.6172 31.7405 24.6172 32.6926C24.6172 33.6446 23.8572 34.4131 22.9407 34.4131ZM22.9407 8.03079H21.2642C20.3366 8.03079 19.5878 7.26226 19.5878 6.3102C19.5878 5.35814 20.3366 4.58961 21.2642 4.58961H22.9407C23.8572 4.58961 24.6172 5.35814 24.6172 6.3102C24.6172 7.26226 23.8572 8.03079 22.9407 8.03079ZM30.2054 34.4131H28.529C27.6013 34.4131 26.8525 33.6446 26.8525 32.6926C26.8525 31.7405 27.6013 30.972 28.529 30.972H30.2054C31.1219 30.972 31.8819 31.7405 31.8819 32.6926C31.8819 33.6446 31.1219 34.4131 30.2054 34.4131ZM37.4701 34.4131H35.7937C34.866 34.4131 34.1172 33.6446 34.1172 32.6926C34.1172 31.7405 34.866 30.972 35.7937 30.972H37.4701C38.3866 30.972 39.1466 31.7405 39.1466 32.6926C39.1466 33.6446 38.3866 34.4131 37.4701 34.4131ZM37.4701 8.03079H35.7937C34.866 8.03079 34.1172 7.26226 34.1172 6.3102C34.1172 5.35814 34.866 4.58961 35.7937 4.58961H37.4701C38.3866 4.58961 39.1466 5.35814 39.1466 6.3102C39.1466 7.26226 38.3866 8.03079 37.4701 8.03079ZM44.7348 34.4131H43.0584C42.1307 34.4131 41.3819 33.6446 41.3819 32.6926C41.3819 31.7405 42.1307 30.972 43.0584 30.972H44.7348C45.6513 30.972 46.4113 31.7405 46.4113 32.6926C46.4113 33.6446 45.6513 34.4131 44.7348 34.4131ZM44.7348 8.03079H43.0584C42.1307 8.03079 41.3819 7.26226 41.3819 6.3102C41.3819 5.35814 42.1307 4.58961 43.0584 4.58961H44.7348C45.6513 4.58961 46.4113 5.35814 46.4113 6.3102C46.4113 7.26226 45.6513 8.03079 44.7348 8.03079Z" fill="#191C24"/>
</svg>
