<svg width="59" height="59" viewBox="0 0 59 59" fill="none" xmlns="http://www.w3.org/2000/svg">
<circle cx="28" cy="31" r="28" fill="#4366D2" fill-opacity="0.2"/>
<path d="M22.6205 26.4106C22.1892 27.0238 22.341 27.8678 22.9538 28.2937L23.88 28.9369C22.3683 30.3955 20.341 31.2208 18.2235 31.2208H15.6953V28.3009C15.6953 27.5566 15.0919 26.9532 14.3477 26.9532C13.6034 26.9532 13 27.5566 13 28.3009V42.047C13 42.7913 13.6034 43.3946 14.3477 43.3946C15.0919 43.3946 15.6953 42.7913 15.6953 42.047V39.3068H17.522C22.3585 39.3068 27.0882 37.2731 30.448 33.4983L31.7962 34.4345C32.4083 34.862 33.2575 34.7051 33.6784 34.0859L34.602 32.7302L23.6689 24.9219L22.6205 26.4106Z" fill="#191C24"/>
<path d="M58.4115 26.5349L57.9146 26.1953L47.5781 34.4546L50.5358 36.5839C51.1134 36.9997 51.9211 36.8946 52.3713 36.336L58.6999 28.4944C59.196 27.8794 59.0579 26.9758 58.4115 26.5349Z" fill="#191C24"/>
<path d="M56.3195 21.8263L30.406 3.11243C29.2421 2.27168 27.626 2.49018 26.7269 3.60945L18.2105 14.2097C17.242 15.4155 17.4864 17.1921 18.7453 18.0912L41.6708 34.463C42.1608 34.8128 42.8242 34.7956 43.2952 34.4191L56.3717 23.9718C57.0665 23.4168 57.0426 22.3484 56.3195 21.8263ZM46.7811 24.2095C46.0368 24.2095 45.4334 23.6062 45.4334 22.8619C45.4334 22.1176 46.0368 21.5142 46.7811 21.5142C47.5253 21.5142 48.1287 22.1176 48.1287 22.8619C48.1287 23.6062 47.5253 24.2095 46.7811 24.2095Z" fill="#191C24"/>
</svg>
