<svg width="39" height="39" viewBox="0 0 39 39" fill="none" xmlns="http://www.w3.org/2000/svg">
<circle cx="19.5" cy="19.5" r="19.5" fill="#4366D2" fill-opacity="0.2"/>
<g clip-path="url(#clip0_5513_436)">
<path fill-rule="evenodd" clip-rule="evenodd" d="M28.1346 10.0771H24.9001L25.3989 2.45138C25.4218 2.45285 25.445 2.4537 25.4683 2.4537H27.5664C27.5897 2.4537 27.6128 2.45285 27.6357 2.45138L28.1346 10.0771ZM22.0838 2.82872H16.7863V3.86043H22.0838V2.82872ZM11.5339 9.64797H9.40431V16.3496H11.5339V9.64797ZM25.4683 1.66073H27.5664C27.7224 1.66073 27.85 1.53312 27.85 1.37713V0.900787C27.85 0.744799 27.7224 0.617188 27.5664 0.617188H25.4683C25.3123 0.617188 25.1847 0.744799 25.1847 0.900787V1.37713C25.1847 1.53312 25.3123 1.66073 25.4683 1.66073ZM29.4508 16.3496H23.5839V10.87H29.4508V16.3496ZM28.3035 12.0806H24.7311V13.5699H28.3035V12.0806ZM33.5995 6.14452L30.2437 7.56756V16.3496H33.5996V6.14452H33.5995ZM17.9337 16.3496H16.0792V4.6534H22.7909V16.3496H20.9364V12.5637C20.9364 12.1986 20.6376 11.8998 20.2725 11.8998H18.5975C18.2324 11.8998 17.9337 12.1986 17.9337 12.5637L17.9337 16.3496ZM19.8316 7.72428H21.069V6.4868H19.8316V7.72428ZM19.8316 9.75474H21.069V8.51725H19.8316V9.75474ZM17.8011 7.72428H19.0386V6.4868H17.8011V7.72428ZM17.8011 9.75474H19.0386V8.51725H17.8011V9.75474ZM15.2863 6.31263L12.3269 7.56756V16.3496H15.2863V6.31263ZM7.625 17.1425V18.0592H35.3789V17.1425H7.625ZM21.502 23.547C18.8222 23.547 16.6254 21.4792 16.42 18.8521H11.5615V20.1043L13.3098 20.4491L14.2953 22.8278L13.3027 24.308L15.6433 26.6485L17.1234 25.6559L19.5021 26.6414L19.8469 28.3897H23.1569L23.5016 26.6415L25.8804 25.656L27.3605 26.6486L29.7011 24.308L28.7085 22.8279L29.694 20.4491L31.4423 20.1044V18.8522H26.5838C26.3783 21.4792 24.1816 23.5471 21.5018 23.5471L21.502 23.547Z" fill="#191C24"/>
</g>
<defs>
<clipPath id="clip0_5513_436">
<rect width="29" height="29" fill="white" transform="translate(7)"/>
</clipPath>
</defs>
</svg>
