<svg width="56" height="56" viewBox="0 0 56 56" fill="none" xmlns="http://www.w3.org/2000/svg">
<g clip-path="url(#clip0_222_1450)">
<path d="M45.1355 53.0404C45.6156 53.0404 46.0894 53.2231 46.4498 53.5712C48.7537 55.7959 52.1144 56.5367 55.102 55.6095C53.1792 51.604 52.9128 47.015 54.4028 42.7661C56.2519 37.4796 56.7153 32.181 54.6108 26.8668C52.762 22.1984 49.1942 18.3199 44.6789 16.1082C44.9567 17.5891 45.0967 19.0981 45.0967 20.6229C45.0968 27.0955 42.6079 33.1832 38.0888 37.7646C33.5691 42.3466 27.5106 44.9231 21.0294 45.0194C19.8253 45.0382 18.6266 44.9674 17.4414 44.8112C21.0034 51.0548 27.7211 55.1212 35.1032 55.2307C38.3325 55.2806 41.4331 54.604 44.3207 53.2251C44.5808 53.1007 44.8592 53.0404 45.1355 53.0404Z" fill="white"/>
<path d="M21.0828 0.0042367C9.58535 -0.22406 0.0277851 9.0772 6.23433e-05 20.5722C-0.00672974 23.3806 0.541488 26.1036 1.62961 28.6657C1.64541 28.703 1.6601 28.7407 1.67341 28.7789C3.16337 33.0279 2.89709 37.6167 0.97424 41.6224C3.96206 42.5491 7.32234 41.8088 9.62638 39.5839C10.194 39.0355 11.0433 38.8975 11.7555 39.2379C14.6427 40.6168 17.7437 41.2955 20.9729 41.2437C32.3804 41.0743 41.3161 32.0166 41.316 20.6229C41.3161 9.47794 32.2394 0.228514 21.0828 0.0042367ZM9.63885 23.7029C7.98699 23.7029 6.64784 22.366 6.64784 20.7169C6.64784 19.0678 7.98699 17.7309 9.63885 17.7309C11.2907 17.7309 12.6299 19.0678 12.6299 20.7169C12.6297 22.366 11.2907 23.7029 9.63885 23.7029ZM20.6581 23.7029C19.0062 23.7029 17.6671 22.366 17.6671 20.7169C17.6671 19.0678 19.0062 17.7309 20.6581 17.7309C22.31 17.7309 23.6491 19.0678 23.6491 20.7169C23.6491 22.366 22.31 23.7029 20.6581 23.7029ZM31.6775 23.7029C30.0256 23.7029 28.6865 22.366 28.6865 20.7169C28.6865 19.0678 30.0256 17.7309 31.6775 17.7309C33.3293 17.7309 34.6685 19.0678 34.6685 20.7169C34.6685 22.366 33.3293 23.7029 31.6775 23.7029Z" fill="white"/>
</g>
<defs>
<clipPath id="clip0_222_1450">
<rect width="56" height="56" fill="white"/>
</clipPath>
</defs>
</svg>
