<svg width="41" height="41" viewBox="0 0 41 41" fill="none" xmlns="http://www.w3.org/2000/svg">
<circle cx="19.5" cy="21.5" r="19.5" fill="#4366D2" fill-opacity="0.2"/>
<path d="M15.6925 18.3716C15.3925 18.7981 15.4981 19.3852 15.9244 19.6816L16.5687 20.129C15.5171 21.1437 14.1068 21.7178 12.6337 21.7178H10.875V19.6866C10.875 19.1688 10.4553 18.7491 9.9375 18.7491C9.41975 18.7491 9 19.1688 9 19.6866V29.2491C9 29.7668 9.41975 30.1866 9.9375 30.1866C10.4553 30.1866 10.875 29.7668 10.875 29.2491V27.3428H12.1458C15.5103 27.3428 18.8005 25.9281 21.1377 23.3021L22.0756 23.9534C22.5014 24.2508 23.0922 24.1417 23.385 23.7109L24.0275 22.7678L16.4219 17.3359L15.6925 18.3716Z" fill="#191C24"/>
<path d="M40.5909 18.455L40.2453 18.2188L33.0547 23.9644L35.1122 25.4456C35.514 25.7348 36.0759 25.6617 36.3891 25.2731L40.7916 19.8181C41.1367 19.3903 41.0406 18.7617 40.5909 18.455Z" fill="#191C24"/>
<path d="M39.1343 15.1863L21.1075 2.16789C20.2978 1.58301 19.1736 1.73501 18.5481 2.51364L12.6237 9.8877C11.9499 10.7265 12.12 11.9625 12.9957 12.5879L28.9439 23.977C29.2847 24.2203 29.7462 24.2083 30.0739 23.9465L39.1706 16.6788C39.654 16.2926 39.6373 15.5495 39.1343 15.1863ZM32.4988 16.8441C31.9811 16.8441 31.5613 16.4244 31.5613 15.9066C31.5613 15.3889 31.9811 14.9691 32.4988 14.9691C33.0166 14.9691 33.4363 15.3889 33.4363 15.9066C33.4363 16.4244 33.0166 16.8441 32.4988 16.8441Z" fill="#191C24"/>
</svg>
