<svg width="38" height="39" viewBox="0 0 38 39" fill="none" xmlns="http://www.w3.org/2000/svg">
<ellipse cx="19" cy="19.5" rx="19" ry="19.5" fill="#4366D2" fill-opacity="0.2"/>
<g clip-path="url(#clip0_5513_431)">
<path d="M35.1576 12.8921C35.0703 12.9131 34.9949 12.9678 34.9477 13.0442C34.9006 13.1206 34.8856 13.2125 34.9061 13.2999C35.1538 14.3514 35.2792 15.4279 35.2799 16.5081C35.2755 20.1631 33.8216 23.6671 31.2372 26.2516C28.6527 28.8361 25.1486 30.29 21.4936 30.2944C18.4916 30.3049 15.5702 29.3237 13.1833 27.5031C13.5038 27.0253 13.6318 26.4439 13.5418 25.8756C13.4517 25.3073 13.1502 24.7941 12.6977 24.4387C12.2452 24.0833 11.6751 23.9121 11.1016 23.9593C10.5282 24.0065 9.99377 24.2687 9.60548 24.6933C9.2172 25.118 9.00374 25.6736 9.00787 26.249C9.01201 26.8244 9.23344 27.3769 9.62778 27.7959C10.0221 28.2149 10.5603 28.4694 11.1343 28.5084C11.7084 28.5474 12.276 28.368 12.7234 28.0061C15.2366 29.9409 18.3219 30.985 21.4936 30.9741C23.6786 30.9717 25.8348 30.475 27.8005 29.521C29.7663 28.567 31.4908 27.1806 32.8446 25.4656C34.1985 23.7506 35.1468 21.7514 35.6183 19.6179C36.0899 17.4843 36.0726 15.2718 35.5676 13.1459C35.5575 13.1022 35.5389 13.061 35.5127 13.0246C35.4866 12.9881 35.4535 12.9572 35.4154 12.9337C35.3773 12.9101 35.3349 12.8943 35.2906 12.8871C35.2464 12.88 35.2012 12.8817 35.1576 12.8921Z" fill="#191C24"/>
<path d="M7.71095 16.5051C7.7111 14.0529 8.36531 11.645 9.60613 9.5298C10.8469 7.41461 12.6295 5.66865 14.7699 4.47192C16.9104 3.27519 19.3313 2.67101 21.783 2.72167C24.2348 2.77234 26.6286 3.476 28.7178 4.76013C28.5022 5.22147 28.4677 5.74697 28.6211 6.23255C28.7746 6.71814 29.1048 7.12838 29.5464 7.38203C29.988 7.63568 30.5087 7.71424 31.0055 7.60215C31.5022 7.49005 31.9388 7.19549 32.2286 6.77678C32.5185 6.35808 32.6406 5.84579 32.5706 5.34136C32.5007 4.83694 32.2438 4.37718 31.851 4.05314C31.4581 3.7291 30.9579 3.56442 30.4494 3.59172C29.9409 3.61901 29.4612 3.83629 29.1052 4.20052C26.9139 2.84583 24.4005 2.10092 21.8248 2.04275C19.2491 1.98459 16.7047 2.61528 14.4544 3.86967C12.2041 5.12405 10.3295 6.9566 9.02455 9.17794C7.71955 11.3993 7.03142 13.9288 7.03126 16.5051C7.03005 17.3882 7.11044 18.2695 7.27142 19.1378C7.28524 19.216 7.32622 19.2869 7.38714 19.3378C7.44807 19.3888 7.52503 19.4167 7.60447 19.4165C7.62504 19.4164 7.64556 19.4142 7.66564 19.4097C7.75423 19.3937 7.83285 19.3432 7.88425 19.2693C7.93564 19.1953 7.95562 19.1041 7.93978 19.0154C7.78706 18.1874 7.71046 17.3471 7.71095 16.5051Z" fill="#191C24"/>
<path d="M19.4609 14.2616V14.4655H23.5391V14.2616C23.5073 11.5066 19.4927 11.5066 19.4609 14.2616Z" fill="#191C24"/>
<path d="M30.9994 9.4423C27.175 9.48082 23.4956 7.11777 22.0887 6.09824C21.9159 5.97343 21.7082 5.90625 21.4951 5.90625C21.2819 5.90625 21.0742 5.97343 20.9015 6.09824C19.4945 7.11777 15.8061 9.47175 11.9908 9.4423C11.8553 9.44095 11.7209 9.46642 11.5952 9.51724C11.4696 9.56806 11.3553 9.64323 11.2589 9.73841C11.1624 9.83359 11.0858 9.94691 11.0333 10.0718C10.9808 10.1968 10.9536 10.3309 10.9531 10.4664C10.9554 15.6977 12.0021 23.1811 21.0352 27.7531C21.1776 27.8257 21.3352 27.8635 21.4951 27.8635C21.655 27.8635 21.8126 27.8257 21.955 27.7531C30.988 23.1811 32.0348 15.6977 32.037 10.4664C32.035 10.193 31.9246 9.93168 31.73 9.73969C31.5355 9.54769 31.2727 9.44073 30.9994 9.4423ZM25.2334 19.7871C25.2334 20.2378 25.0543 20.67 24.7357 20.9887C24.417 21.3073 23.9848 21.4864 23.5341 21.4864H19.456C19.0054 21.4864 18.5732 21.3073 18.2545 20.9887C17.9358 20.67 17.7568 20.2378 17.7568 19.7871V16.1621C17.757 15.8317 17.8535 15.5084 18.0346 15.232C18.2157 14.9555 18.4734 14.7379 18.7763 14.6057V14.2545C18.8171 10.6182 24.173 10.6182 24.2138 14.2545V14.6057C24.5167 14.7379 24.7745 14.9555 24.9556 15.232C25.1367 15.5084 25.2332 15.8317 25.2334 16.1621V19.7871Z" fill="#191C24"/>
<path d="M22.0561 17.586C22.0511 17.5556 22.0525 17.5245 22.0603 17.4947C22.0681 17.4648 22.0821 17.437 22.1014 17.4129C22.1773 17.3032 22.2217 17.1748 22.2299 17.0416C22.238 16.9084 22.2096 16.7756 22.1476 16.6574C22.0857 16.5392 21.9926 16.4402 21.8784 16.3712C21.7642 16.3021 21.6333 16.2656 21.4999 16.2656C21.3665 16.2656 21.2356 16.3021 21.1214 16.3712C21.0072 16.4402 20.9141 16.5392 20.8522 16.6574C20.7902 16.7756 20.7618 16.9084 20.7699 17.0416C20.7781 17.1748 20.8225 17.3032 20.8984 17.4129C20.9176 17.4367 20.9315 17.4643 20.9393 17.4939C20.9472 17.5234 20.9486 17.5543 20.9437 17.5845C20.8904 17.8498 20.7398 18.6083 20.6335 19.1348C20.6206 19.2005 20.6224 19.2682 20.6388 19.3331C20.6551 19.398 20.6857 19.4585 20.7282 19.5102C20.7707 19.5618 20.8242 19.6035 20.8847 19.632C20.9452 19.6606 21.0113 19.6754 21.0783 19.6754H21.9211C21.9881 19.6754 22.0543 19.6606 22.115 19.6319C22.1756 19.6032 22.2291 19.5615 22.2716 19.5096C22.3141 19.4578 22.3446 19.3972 22.3609 19.3321C22.3771 19.2671 22.3787 19.1992 22.3656 19.1335L22.0561 17.586Z" fill="#191C24"/>
</g>
<defs>
<clipPath id="clip0_5513_431">
<rect width="29" height="29" fill="white" transform="translate(7 2)"/>
</clipPath>
</defs>
</svg>
