<svg width="39" height="39" viewBox="0 0 39 39" fill="none" xmlns="http://www.w3.org/2000/svg">
<ellipse cx="19.5" cy="20" rx="19.5" ry="19" fill="#4366D2" fill-opacity="0.2"/>
<g clip-path="url(#clip0_5513_437)">
<path d="M24 3.75C24.5182 3.75 24.9375 3.33069 24.9375 2.8125V0.9375C24.9375 0.419312 24.5182 0 24 0C23.4818 0 23.0625 0.419312 23.0625 0.9375V2.8125C23.0625 3.33069 23.4818 3.75 24 3.75Z" fill="#191C24"/>
<path d="M38.0625 14.0625H36.1875C35.6693 14.0625 35.25 14.4818 35.25 15C35.25 15.5182 35.6693 15.9375 36.1875 15.9375H38.0625C38.5807 15.9375 39 15.5182 39 15C39 14.4818 38.5807 14.0625 38.0625 14.0625Z" fill="#191C24"/>
<path d="M12.75 15C12.75 14.4818 12.3307 14.0625 11.8125 14.0625H9.9375C9.41931 14.0625 9 14.4818 9 15C9 15.5182 9.41931 15.9375 9.9375 15.9375H11.8125C12.3307 15.9375 12.75 15.5182 12.75 15Z" fill="#191C24"/>
<path d="M32.6172 7.31787C32.8571 7.31787 33.0969 7.22632 33.28 7.04321L34.6057 5.71753C34.9719 5.35132 34.9719 4.75805 34.6057 4.39184C34.2395 4.02563 33.6462 4.02563 33.28 4.39184L31.9543 5.71753C31.5881 6.08374 31.5881 6.677 31.9543 7.04321C32.1375 7.22632 32.3773 7.31787 32.6172 7.31787Z" fill="#191C24"/>
<path d="M14.7175 7.04321C14.9006 7.22632 15.1405 7.31787 15.3804 7.31787C15.6202 7.31787 15.8601 7.22632 16.0432 7.04321C16.4094 6.677 16.4094 6.08374 16.0432 5.71753L14.7175 4.39185C14.3513 4.02563 13.7581 4.02563 13.3918 4.39185C13.0256 4.75806 13.0256 5.35132 13.3918 5.71753L14.7175 7.04321Z" fill="#191C24"/>
<path d="M35.25 20.625H33.375V15C33.375 9.83093 29.1691 5.625 24 5.625C18.8309 5.625 14.625 9.83093 14.625 15V20.625H12.75C12.2318 20.625 11.8125 21.0443 11.8125 21.5625C11.8125 22.0807 12.2318 22.5 12.75 22.5H18.375V27.1875C18.375 27.7057 18.7943 28.125 19.3125 28.125C19.8307 28.125 20.25 27.7057 20.25 27.1875V22.5H27.75V29.0625C27.75 29.5807 28.1693 30 28.6875 30C29.2057 30 29.625 29.5807 29.625 29.0625V22.5H35.25C35.7682 22.5 36.1875 22.0807 36.1875 21.5625C36.1875 21.0443 35.7682 20.625 35.25 20.625ZM16.5 20.625V15C16.5 11.7147 18.6257 8.95316 21.5662 7.93866C19.6408 9.29627 18.375 11.5275 18.375 14.0625V20.625H16.5Z" fill="#191C24"/>
</g>
<defs>
<clipPath id="clip0_5513_437">
<rect width="30" height="30" fill="white" transform="translate(9)"/>
</clipPath>
</defs>
</svg>
