<svg width="39" height="39" viewBox="0 0 39 39" fill="none" xmlns="http://www.w3.org/2000/svg">
<circle cx="19.5" cy="19.5" r="19.5" fill="#4366D2" fill-opacity="0.2"/>
<g clip-path="url(#clip0_5513_438)">
<path d="M31.0303 0.796875H14.9715C12.6468 0.796875 10.7656 2.75835 10.7656 5.16452V21.841C10.7656 24.2472 12.6468 26.2086 14.9715 26.2086H31.0303C33.3474 26.2086 35.2362 24.2472 35.2362 21.841V5.16452C35.2362 2.75835 33.3474 0.796875 31.0303 0.796875ZM19.9421 3.17923H21.0892C21.7162 3.17923 22.2362 3.71129 22.2362 4.3704C22.2362 5.02952 21.7162 5.56158 21.0892 5.56158H19.9421C19.3074 5.56158 18.795 5.02952 18.795 4.3704C18.795 3.71129 19.3074 3.17923 19.9421 3.17923ZM26.5033 12.8595C26.7021 13.0104 26.8244 13.2486 26.8244 13.5028C26.8244 13.7648 26.7021 14.0031 26.5033 14.1539L21.1503 18.1245C21.0127 18.2198 20.8597 18.2675 20.7068 18.2675C20.5844 18.2675 20.4621 18.2436 20.355 18.1801C20.1027 18.0451 19.9421 17.7751 19.9421 17.4733V9.53217C19.9421 9.23835 20.1027 8.96835 20.355 8.83335C20.6074 8.69835 20.9133 8.71423 21.1503 8.88893L26.5033 12.8595ZM16.1186 23.8263H14.9715C14.3368 23.8263 13.8244 23.2942 13.8244 22.6351C13.8244 21.976 14.3368 21.4439 14.9715 21.4439H16.1186C16.7456 21.4439 17.2656 21.976 17.2656 22.6351C17.2656 23.2942 16.7456 23.8263 16.1186 23.8263ZM16.1186 5.56158H14.9715C14.3368 5.56158 13.8244 5.02952 13.8244 4.3704C13.8244 3.71129 14.3368 3.17923 14.9715 3.17923H16.1186C16.7456 3.17923 17.2656 3.71129 17.2656 4.3704C17.2656 5.02952 16.7456 5.56158 16.1186 5.56158ZM21.0892 23.8263H19.9421C19.3074 23.8263 18.795 23.2942 18.795 22.6351C18.795 21.976 19.3074 21.4439 19.9421 21.4439H21.0892C21.7162 21.4439 22.2362 21.976 22.2362 22.6351C22.2362 23.2942 21.7162 23.8263 21.0892 23.8263ZM26.0597 23.8263H24.9127C24.278 23.8263 23.7656 23.2942 23.7656 22.6351C23.7656 21.976 24.278 21.4439 24.9127 21.4439H26.0597C26.6868 21.4439 27.2068 21.976 27.2068 22.6351C27.2068 23.2942 26.6868 23.8263 26.0597 23.8263ZM26.0597 5.56158H24.9127C24.278 5.56158 23.7656 5.02952 23.7656 4.3704C23.7656 3.71129 24.278 3.17923 24.9127 3.17923H26.0597C26.6868 3.17923 27.2068 3.71129 27.2068 4.3704C27.2068 5.02952 26.6868 5.56158 26.0597 5.56158ZM31.0303 23.8263H29.8833C29.2486 23.8263 28.7362 23.2942 28.7362 22.6351C28.7362 21.976 29.2486 21.4439 29.8833 21.4439H31.0303C31.6574 21.4439 32.1774 21.976 32.1774 22.6351C32.1774 23.2942 31.6574 23.8263 31.0303 23.8263ZM31.0303 5.56158H29.8833C29.2486 5.56158 28.7362 5.02952 28.7362 4.3704C28.7362 3.71129 29.2486 3.17923 29.8833 3.17923H31.0303C31.6574 3.17923 32.1774 3.71129 32.1774 4.3704C32.1774 5.02952 31.6574 5.56158 31.0303 5.56158Z" fill="#191C24"/>
</g>
<defs>
<clipPath id="clip0_5513_438">
<rect width="26" height="27" fill="white" transform="translate(10)"/>
</clipPath>
</defs>
</svg>
