<svg width="39" height="39" viewBox="0 0 39 39" fill="none" xmlns="http://www.w3.org/2000/svg">
<circle cx="19.5" cy="19.5" r="19.5" fill="#4366D2" fill-opacity="0.2"/>
<path d="M8.79102 22.6172H27.8809C28.3181 22.6172 28.6719 22.2634 28.6719 21.8262V7.58789C28.6719 7.15067 28.3181 6.79688 27.8809 6.79688H8.79102C8.35379 6.79688 8 7.15067 8 7.58789V21.8262C8 22.2634 8.35379 22.6172 8.79102 22.6172Z" fill="#191C24"/>
<path d="M15.9609 24.2031V24.9941C15.9609 25.4306 15.6064 25.7852 15.1699 25.7852H13.5879C13.1507 25.7852 12.7969 26.139 12.7969 26.5762C12.7969 27.0134 13.1507 27.3672 13.5879 27.3672H23.1328C23.57 27.3672 23.9238 27.0134 23.9238 26.5762C23.9238 26.139 23.57 25.7852 23.1328 25.7852H21.498C21.0616 25.7852 20.707 25.4306 20.707 24.9941V24.2031H15.9609Z" fill="#191C24"/>
<path d="M34.209 3.63281H26.2988C25.8616 3.63281 25.5078 3.98661 25.5078 4.42383V5.21484H27.8809C29.1894 5.21484 30.2539 6.27934 30.2539 7.58789V21.8262C30.2539 23.1347 29.1894 24.1992 27.8809 24.1992H25.5078V26.5723C25.5078 27.0095 25.8616 27.3633 26.2988 27.3633H34.209C34.6462 27.3633 35 27.0095 35 26.5723V4.42383C35 3.98661 34.6462 3.63281 34.209 3.63281ZM32.627 23.4082C32.1901 23.4082 31.8359 23.054 31.8359 22.6172C31.8359 22.1802 32.1901 21.8262 32.627 21.8262C33.0638 21.8262 33.418 22.1802 33.418 22.6172C33.418 23.054 33.0638 23.4082 32.627 23.4082ZM32.627 20.2441C32.1901 20.2441 31.8359 19.89 31.8359 19.4531C31.8359 19.0162 32.1901 18.6621 32.627 18.6621C33.0638 18.6621 33.418 19.0162 33.418 19.4531C33.418 19.89 33.0638 20.2441 32.627 20.2441Z" fill="#191C24"/>
</svg>
