<svg width="39" height="39" viewBox="0 0 39 39" fill="none" xmlns="http://www.w3.org/2000/svg">
<circle cx="19.5" cy="19.5" r="19.5" fill="#4366D2" fill-opacity="0.2"/>
<g clip-path="url(#clip0_5513_435)">
<path d="M28.375 15.0781H35.375V13.8125H34.5V11.2812H34.0625V9.17188H33.1875V11.2812H32.75V13.8125H28.375V15.0781Z" fill="#191C24"/>
<path d="M25.3125 3.26562H24.4375V5.36656L25.3125 5.19781V3.26562Z" fill="#191C24"/>
<path d="M27.0625 2.42188H26.1875V5.02906L27.0625 4.86031V2.42188Z" fill="#191C24"/>
<path d="M28.8125 3.26562H27.9375V4.69156L28.8125 4.52281V3.26562Z" fill="#191C24"/>
<path d="M26.0781 24.9678C26.3879 24.8459 26.7213 24.7822 27.0625 24.7822V15.0791H27.5V12.9697H30.5625V5.04688L22.6875 6.56562V24.0452C22.9684 23.976 23.2615 23.9384 23.5625 23.9384C24.5228 23.9384 25.4271 24.319 26.0781 24.9678ZM27.5 7.90719H29.25V10.4384H27.5V7.90719ZM24 7.90719H25.75V10.4384H24V7.90719ZM24 12.1259H25.75V14.6572H24V12.1259ZM24 16.3447H25.75V18.8759H24V16.3447ZM24 20.5634H25.75V23.0947H24V20.5634Z" fill="#191C24"/>
<path d="M30.5625 23.9375C30.8635 23.9375 31.1562 23.9767 31.4375 24.0468V17.6094H29.6875V24.0493C29.9701 23.9784 30.2628 23.9375 30.5625 23.9375Z" fill="#191C24"/>
<path d="M33.5939 25.625H33.625C33.7733 25.625 33.9181 25.6406 34.0625 25.6583V17.6094H32.3125V24.3885C32.8397 24.6821 33.2842 25.1057 33.5939 25.625Z" fill="#191C24"/>
<path d="M35.8125 26.3785V15.9219H27.9375V24.9357C27.9734 24.9479 28.0114 24.9534 28.0469 24.9673C28.2735 24.7412 28.5325 24.5501 28.8125 24.394V16.7656H34.9375V25.8823C35.2538 26.0068 35.5474 26.173 35.8125 26.3785Z" fill="#191C24"/>
<path d="M35.893 27.7344C35.4389 26.9792 34.5954 26.4688 33.625 26.4688C33.4303 26.4688 33.2409 26.4907 33.058 26.5295C32.7159 25.5153 31.7289 24.7812 30.5625 24.7812C29.5724 24.7812 28.711 25.3103 28.2639 26.0908C27.9502 25.8039 27.5289 25.625 27.0625 25.625C26.5961 25.625 26.1748 25.8039 25.8611 26.0908C25.414 25.3103 24.5526 24.7812 23.5625 24.7812C22.383 24.7812 21.3859 25.5313 21.0547 26.5632C20.8793 26.5067 20.6951 26.4688 20.5 26.4688L20.2747 26.4839C19.9746 25.9709 19.4041 25.625 18.75 25.625C17.7836 25.625 17 26.3806 17 27.3125C17 27.4585 17.0206 27.5994 17.0564 27.7344H16.1661C16.1416 27.5952 16.125 27.4547 16.125 27.3125C16.125 25.9165 17.3023 24.7812 18.75 24.7812C19.45 24.7812 20.1119 25.0521 20.5976 25.5145C20.9025 25.0437 21.3221 24.6598 21.8125 24.3876V9.17188H15.6875V13.6353C15.9959 13.7522 16.2904 13.907 16.5625 14.1027V13.3906H17.4375V14.2344H16.7296C16.8911 14.3643 17.0464 14.504 17.189 14.6613C17.7324 14.6887 18.2456 14.8372 18.7098 15.0781H19.1875V15.3739C20.2406 16.1315 20.9375 17.4166 20.9375 18.875C20.9375 20.7076 19.8394 22.2665 18.3125 22.8478V23.5625L15.6875 26.5152V27.7344H14.8125V26.2025L17.4375 23.2498V22.2116C18.9189 21.9762 20.0625 20.5718 20.0625 18.875C20.0625 17.0141 18.6883 15.5 17 15.5C16.9247 15.5 16.8477 15.5046 16.7699 15.5118C16.2081 14.7347 15.3441 14.2344 14.375 14.2344C12.6867 14.2344 11.3125 15.7485 11.3125 17.6094C11.3125 19.3062 12.4561 20.7106 13.9375 20.946V17.1875H14.8125V21.2282C15.2815 21.7598 15.8949 22.104 16.5625 22.2112V22.9377L14.8125 24.9065V21.2282C14.7403 21.1464 14.6703 21.0616 14.6051 20.9713C14.529 20.9776 14.4529 20.9844 14.375 20.9844C14.2262 20.9844 14.081 20.9688 13.9375 20.946V21.4957C13.5713 21.1763 13.1176 20.9844 12.625 20.9844C11.4188 20.9844 10.4375 22.1196 10.4375 23.5156C10.4375 24.7382 11.1904 25.7604 12.1875 25.9958V27.7344H10.4375V28.5781H37.5625V27.7344H35.893ZM17.4375 12.5469H16.5625V11.7031H17.4375V12.5469ZM17.4375 10.8594H16.5625V10.0156H17.4375V10.8594ZM19.1875 14.2344H18.3125V13.3906H19.1875V14.2344ZM19.1875 12.5469H18.3125V11.7031H19.1875V12.5469ZM19.1875 10.8594H18.3125V10.0156H19.1875V10.8594ZM20.0625 10.0156H20.9375V10.8594H20.0625V10.0156ZM20.0625 11.7031H20.9375V12.5469H20.0625V11.7031ZM20.0625 13.3906H20.9375V14.2344H20.0625V13.3906ZM20.0625 15.9219V15.0781H20.9375V15.9219H20.0625ZM13.0625 25.9958C13.3863 25.9195 13.6829 25.7579 13.9375 25.536V27.7344H13.0625V25.9958Z" fill="#191C24"/>
</g>
<defs>
<clipPath id="clip0_5513_435">
<rect width="28" height="27" fill="white" transform="translate(10 2)"/>
</clipPath>
</defs>
</svg>
