<svg width="58" height="34" viewBox="0 0 58 34" fill="none" xmlns="http://www.w3.org/2000/svg">
<path d="M57.8021 30.4929L51.363 2.24694C51.0701 0.957878 49.9233 0.0441895 48.6013 0.0441895H9.35396C8.21958 0.0441895 7.37808 1.09813 7.62971 2.20569L14.3658 31.7531C14.6587 33.0421 15.8055 33.9558 17.1275 33.9558H55.0404C56.8595 33.9558 58.2063 32.2666 57.8021 30.4929ZM41.5867 14.6632L30.7359 23.402C30.4038 23.6681 29.9934 23.8124 29.5726 23.8124C29.5025 23.8124 29.4324 23.8083 29.3623 23.8001C28.8693 23.7444 28.4176 23.4928 28.1124 23.1009L23.8492 17.6621C23.216 16.8536 23.3583 15.6883 24.1648 15.0551C24.9733 14.4198 26.1386 14.5642 26.7718 15.3686L29.8738 19.3286L39.2602 11.7674C40.0605 11.1219 41.2299 11.2559 41.8713 12.05C42.5107 12.8503 42.3828 14.0197 41.5867 14.6632Z" fill="white"/>
<path d="M10.7466 32.578L5.23765 8.40967L3.34221 16.7112L0.186585 30.4887C-0.20529 32.2625 1.13533 33.9537 2.95033 33.9537H11.2457C11.0374 33.5185 10.858 33.0648 10.7466 32.578Z" fill="white"/>
</svg>
