<svg width="39" height="42" viewBox="0 0 39 42" fill="none" xmlns="http://www.w3.org/2000/svg">
<circle cx="19.5" cy="22.5" r="19.5" fill="#4366D2" fill-opacity="0.2"/>
<path d="M14.5484 35H30.4516C30.5971 35 30.7365 34.9424 30.8394 34.8398C30.9422 34.7373 31 34.5982 31 34.4531V23.2425C30.9993 22.8551 30.8614 22.4805 30.6105 22.1848C30.3596 21.8891 30.012 21.6914 29.629 21.6266V18.0473C29.6284 17.7084 29.5227 17.378 29.3263 17.1014C29.13 16.8248 28.8526 16.6156 28.5323 16.5024V15.0395C28.532 14.7496 28.4163 14.4716 28.2107 14.2665C28.0051 14.0615 27.7263 13.9461 27.4355 13.9458V9.21686C27.8773 9.0855 28.2569 8.79995 28.505 8.41241C28.753 8.02487 28.8529 7.56124 28.7863 7.10631C28.7198 6.65137 28.4912 6.23553 28.1425 5.93482C27.7938 5.6341 27.3481 5.46862 26.8871 5.46862C26.4261 5.46862 25.9804 5.6341 25.6317 5.93482C25.283 6.23553 25.0544 6.65137 24.9878 7.10631C24.9213 7.56124 25.0212 8.02487 25.2692 8.41241C25.5173 8.79995 25.8969 9.0855 26.3387 9.21686V13.9458C26.0479 13.9461 25.7691 14.0615 25.5635 14.2665C25.3579 14.4716 25.2422 14.7496 25.2419 15.0395V16.4067H24.1452V15.0395C24.1449 14.7496 24.0292 14.4716 23.8236 14.2665C23.618 14.0615 23.3392 13.9461 23.0484 13.9458V3.74825C23.4902 3.61689 23.8698 3.33133 24.1179 2.94379C24.3659 2.55625 24.4658 2.09263 24.3992 1.63769C24.3327 1.18276 24.1041 0.766911 23.7554 0.466199C23.4067 0.165486 22.961 0 22.5 0C22.039 0 21.5933 0.165486 21.2446 0.466199C20.8959 0.766911 20.6673 1.18276 20.6008 1.63769C20.5342 2.09263 20.6341 2.55625 20.8821 2.94379C21.1302 3.33133 21.5098 3.61689 21.9516 3.74825V13.9458C21.6608 13.9461 21.382 14.0615 21.1764 14.2665C20.9708 14.4716 20.8551 14.7496 20.8548 15.0395V16.4067H19.7581V15.0395C19.7578 14.7496 19.6421 14.4716 19.4365 14.2665C19.2309 14.0615 18.9521 13.9461 18.6613 13.9458V9.21686C19.1031 9.0855 19.4827 8.79995 19.7308 8.41241C19.9788 8.02487 20.0787 7.56124 20.0122 7.10631C19.9456 6.65137 19.717 6.23553 19.3683 5.93482C19.0196 5.6341 18.5739 5.46862 18.1129 5.46862C17.6519 5.46862 17.2062 5.6341 16.8575 5.93482C16.5088 6.23553 16.2802 6.65137 16.2137 7.10631C16.1471 7.56124 16.247 8.02487 16.495 8.41241C16.7431 8.79995 17.1227 9.0855 17.5645 9.21686V13.9458C17.2737 13.9461 16.9949 14.0615 16.7893 14.2665C16.5837 14.4716 16.468 14.7496 16.4677 15.0395V16.5024C16.1474 16.6156 15.87 16.8248 15.6737 17.1014C15.4773 17.378 15.3716 17.7084 15.371 18.0473V21.6266C14.988 21.6914 14.6404 21.8891 14.3895 22.1848C14.1386 22.4805 14.0007 22.8551 14 23.2425V34.4531C14 34.5982 14.0578 34.7373 14.1606 34.8398C14.2635 34.9424 14.4029 35 14.5484 35ZM26.6132 32.5391C26.5047 32.5392 26.3986 32.5071 26.3084 32.4471C26.2182 32.387 26.1479 32.3016 26.1063 32.2017C26.0648 32.1018 26.0539 31.9918 26.075 31.8857C26.0962 31.7796 26.1484 31.6821 26.2251 31.6056C26.3018 31.5291 26.3995 31.477 26.5059 31.4559C26.6123 31.4348 26.7226 31.4456 26.8228 31.487C26.923 31.5284 27.0087 31.5986 27.0689 31.6885C27.1292 31.7785 27.1613 31.8842 27.1613 31.9924C27.1613 32.1374 27.1035 32.2764 27.0007 32.3789C26.8979 32.4814 26.7586 32.5391 26.6132 32.5391ZM27.1613 29.8048C27.1613 29.9498 27.1035 30.0889 27.0007 30.1915C26.8978 30.2941 26.7583 30.3517 26.6129 30.3517C26.4675 30.3517 26.328 30.2941 26.2251 30.1915C26.1223 30.0889 26.0645 29.9498 26.0645 29.8048V24.8831C26.0645 24.738 26.1223 24.5989 26.2251 24.4964C26.328 24.3938 26.4675 24.3362 26.6129 24.3362C26.7583 24.3362 26.8978 24.3938 27.0007 24.4964C27.1035 24.5989 27.1613 24.738 27.1613 24.8831V29.8048ZM16.4677 18.0473C16.4679 17.9023 16.5257 17.7633 16.6285 17.6608C16.7314 17.5583 16.8707 17.5006 17.0161 17.5004H27.9839C28.1293 17.5006 28.2686 17.5583 28.3715 17.6608C28.4743 17.7633 28.5321 17.9023 28.5323 18.0473V21.6019H16.4677V18.0473Z" fill="#191C24"/>
</svg>
