<svg width="100" height="20" viewBox="0 0 100 20" fill="none" xmlns="http://www.w3.org/2000/svg">
<path d="M9.97813 0L12.3344 7.60625H19.9563L13.7906 12.3063L16.1469 19.9125L9.97813 15.2094L3.8125 19.9125L6.16875 12.3063L0 7.60625H7.62187L9.97813 0Z" fill="#EDBC1A"/>
<path d="M29.9907 0L32.3438 7.60625H39.9688L33.8001 12.3063L36.1563 19.9125L29.9907 15.2094L23.8219 19.9125L26.1782 12.3063L20.0094 7.60625H27.6344L29.9907 0Z" fill="#EDBC1A"/>
<path d="M50 0L52.3563 7.60625H59.9782L53.8125 12.3063L56.1688 19.9125L50 15.2094L43.8313 19.9125L46.1875 12.3063L40.0219 7.60625H47.6438L50 0Z" fill="#EDBC1A"/>
<path d="M70.0094 0L72.3657 7.60625H79.9907L73.8219 12.3063L76.1782 19.9125L70.0094 15.2094L63.8438 19.9125L66.2001 12.3063L60.0313 7.60625H67.6563L70.0094 0Z" fill="#EDBC1A"/>
<path d="M90.0219 0L92.3782 7.60625H100L93.8313 12.3063L96.1875 19.9125L90.0219 15.2094L83.8532 19.9125L86.2094 12.3063L80.0438 7.60625H87.6657L90.0219 0Z" fill="#EDBC1A"/>
</svg>
