<svg width="19" height="19" viewBox="0 0 19 19" fill="none" xmlns="http://www.w3.org/2000/svg">
<path fill-rule="evenodd" clip-rule="evenodd" d="M9.50401 0.317749C14.5773 0.317749 18.6916 4.43207 18.6916 9.50535C18.6916 14.5786 14.5773 18.6929 9.50401 18.6929C4.43073 18.6929 0.316406 14.5786 0.316406 9.50535C0.316406 4.43207 4.43073 0.317749 9.50401 0.317749ZM7.59609 12.4895L5.34674 10.2383C4.96353 9.8549 4.96345 9.22962 5.34674 8.84626C5.73011 8.46297 6.35817 8.46537 6.73875 8.84626L8.32453 10.4333L12.2694 6.4884C12.6528 6.10503 13.2781 6.10503 13.6614 6.4884C14.0448 6.87169 14.0442 7.49758 13.6614 7.88041L9.01941 12.5224C8.63659 12.9052 8.01069 12.9058 7.6274 12.5224C7.61663 12.5116 7.60624 12.5007 7.59609 12.4895Z" fill="#00BA00"/>
</svg>
