<svg width="12" height="10" viewBox="0 0 12 10" fill="none" xmlns="http://www.w3.org/2000/svg">
<g clip-path="url(#clip0_222_1975)">
<path d="M3.29524 5.8877V4.09473H11.4062V5.8877H3.29524ZM3.29524 4.10352L5.80244 1.73047C5.86109 1.67188 5.908 1.60156 5.94319 1.51953C5.97838 1.4375 5.99598 1.34961 5.99598 1.25586C5.99598 1.13281 5.96519 1.02002 5.90361 0.91748C5.84203 0.814941 5.76138 0.731445 5.66168 0.666992L5.67048 0.675781C5.58837 0.623047 5.49893 0.580566 5.40217 0.54834C5.3054 0.516113 5.20716 0.5 5.10746 0.5C4.9667 0.5 4.83621 0.526367 4.71598 0.579102C4.59576 0.631836 4.49166 0.702148 4.40368 0.790039L1.03436 4.32324C0.905334 4.38184 0.799767 4.46826 0.717661 4.58252C0.635553 4.69678 0.591567 4.82715 0.585703 4.97363C0.585703 5.03809 0.595966 5.09814 0.616493 5.15381C0.63702 5.20947 0.661945 5.26074 0.691269 5.30762C0.708863 5.34277 0.727924 5.37793 0.74845 5.41309C0.768977 5.44824 0.790971 5.47754 0.814429 5.50098L4.40368 9.2627C4.45647 9.31543 4.51365 9.36084 4.57523 9.39893C4.63681 9.43701 4.70572 9.46777 4.78196 9.49121H5.43296H5.44175C5.48281 9.47949 5.52239 9.46484 5.56052 9.44727C5.59864 9.42969 5.63236 9.40918 5.66168 9.38574V9.37695C5.76138 9.32422 5.84203 9.24658 5.90361 9.14404C5.96519 9.0415 5.99598 8.92871 5.99598 8.80566C5.99598 8.71191 5.97838 8.62402 5.94319 8.54199C5.908 8.45996 5.86109 8.38965 5.80244 8.33105L3.29524 5.89648V4.10352Z" fill="white"/>
</g>
<defs>
<clipPath id="clip0_222_1975">
<rect width="10.82" height="9" fill="white" transform="matrix(-1 0 0 -1 11.4102 9.5)"/>
</clipPath>
</defs>
</svg>
