<svg width="12" height="10" viewBox="0 0 12 10" fill="none" xmlns="http://www.w3.org/2000/svg">
<g clip-path="url(#clip0_222_1972)">
<path d="M8.70476 5.8877V4.09473H0.59375V5.8877H8.70476ZM8.70476 4.10352L6.19756 1.73047C6.13891 1.67188 6.092 1.60156 6.05681 1.51953C6.02162 1.4375 6.00402 1.34961 6.00402 1.25586C6.00402 1.13281 6.03481 1.02002 6.09639 0.91748C6.15797 0.814941 6.23862 0.731445 6.33832 0.666992L6.32952 0.675781C6.41163 0.623047 6.50107 0.580566 6.59783 0.54834C6.6946 0.516113 6.79284 0.5 6.89254 0.5C7.0333 0.5 7.16379 0.526367 7.28402 0.579102C7.40424 0.631836 7.50834 0.702148 7.59632 0.790039L10.9656 4.32324C11.0947 4.38184 11.2002 4.46826 11.2823 4.58252C11.3644 4.69678 11.4084 4.82715 11.4143 4.97363C11.4143 5.03809 11.404 5.09814 11.3835 5.15381C11.363 5.20947 11.3381 5.26074 11.3087 5.30762C11.2911 5.34277 11.2721 5.37793 11.2515 5.41309C11.231 5.44824 11.209 5.47754 11.1856 5.50098L7.59632 9.2627C7.54353 9.31543 7.48635 9.36084 7.42477 9.39893C7.36319 9.43701 7.29428 9.46777 7.21804 9.49121H6.56704H6.55825C6.51719 9.47949 6.47761 9.46484 6.43948 9.44727C6.40136 9.42969 6.36764 9.40918 6.33832 9.38574V9.37695C6.23862 9.32422 6.15797 9.24658 6.09639 9.14404C6.03481 9.0415 6.00402 8.92871 6.00402 8.80566C6.00402 8.71191 6.02162 8.62402 6.05681 8.54199C6.092 8.45996 6.13891 8.38965 6.19756 8.33105L8.70476 5.89648V4.10352Z" fill="white"/>
</g>
<defs>
<clipPath id="clip0_222_1972">
<rect width="10.82" height="9" fill="white" transform="matrix(1 0 0 -1 0.589844 9.5)"/>
</clipPath>
</defs>
</svg>
