<svg width="20" height="17" viewBox="0 0 20 17" fill="none" xmlns="http://www.w3.org/2000/svg">
<path d="M19.1667 17H7.5C7 17 6.66667 16.6909 6.66667 16.2273V13.1364C6.66667 12.6727 7 12.3636 7.5 12.3636H19.1667C19.6667 12.3636 20 12.6727 20 13.1364V16.2273C20 16.6909 19.6667 17 19.1667 17ZM4.16667 17H0.833333C0.333333 17 0 16.6909 0 16.2273V13.1364C0 12.6727 0.333333 12.3636 0.833333 12.3636H4.16667C4.66667 12.3636 5 12.6727 5 13.1364V16.2273C5 16.6909 4.66667 17 4.16667 17ZM19.1667 10.8182H7.5C7 10.8182 6.66667 10.5091 6.66667 10.0455V6.95455C6.66667 6.49091 7 6.18182 7.5 6.18182H19.1667C19.6667 6.18182 20 6.49091 20 6.95455V10.0455C20 10.5091 19.6667 10.8182 19.1667 10.8182ZM4.16667 10.8182H0.833333C0.333333 10.8182 0 10.5091 0 10.0455V6.95455C0 6.49091 0.333333 6.18182 0.833333 6.18182H4.16667C4.66667 6.18182 5 6.49091 5 6.95455V10.0455C5 10.5091 4.66667 10.8182 4.16667 10.8182ZM19.1667 4.63636H7.5C7 4.63636 6.66667 4.32727 6.66667 3.86364V0.772727C6.66667 0.309091 7 0 7.5 0H19.1667C19.6667 0 20 0.309091 20 0.772727V3.86364C20 4.32727 19.6667 4.63636 19.1667 4.63636ZM4.16667 4.63636H0.833333C0.333333 4.63636 0 4.32727 0 3.86364V0.772727C0 0.309091 0.333333 0 0.833333 0H4.16667C4.66667 0 5 0.309091 5 0.772727V3.86364C5 4.32727 4.66667 4.63636 4.16667 4.63636Z" fill="#071B2E"/>
</svg>
