<svg width="18" height="17" viewBox="0 0 18 17" fill="none" xmlns="http://www.w3.org/2000/svg">
<path d="M4.76471 0H0.529412C0.237017 0 0 0.220605 0 0.492754V4.43479C0 4.70694 0.237017 4.92754 0.529412 4.92754H4.76471C5.0571 4.92754 5.29412 4.70694 5.29412 4.43479V0.492754C5.29412 0.220605 5.0571 0 4.76471 0Z" fill="#071B2E"/>
<path d="M11.1163 0H6.88097C6.58858 0 6.35156 0.220605 6.35156 0.492754V4.43479C6.35156 4.70694 6.58858 4.92754 6.88097 4.92754H11.1163C11.4087 4.92754 11.6457 4.70694 11.6457 4.43479V0.492754C11.6457 0.220605 11.4087 0 11.1163 0Z" fill="#071B2E"/>
<path d="M4.76471 5.91406H0.529412C0.237017 5.91406 0 6.13467 0 6.40682V10.3489C0 10.621 0.237017 10.8416 0.529412 10.8416H4.76471C5.0571 10.8416 5.29412 10.621 5.29412 10.3489V6.40682C5.29412 6.13467 5.0571 5.91406 4.76471 5.91406Z" fill="#071B2E"/>
<path d="M11.1163 5.91406H6.88097C6.58858 5.91406 6.35156 6.13467 6.35156 6.40682V10.3489C6.35156 10.621 6.58858 10.8416 6.88097 10.8416H11.1163C11.4087 10.8416 11.6457 10.621 11.6457 10.3489V6.40682C11.6457 6.13467 11.4087 5.91406 11.1163 5.91406Z" fill="#071B2E"/>
<path d="M17.4678 0H13.2325C12.9401 0 12.7031 0.220605 12.7031 0.492754V4.43479C12.7031 4.70694 12.9401 4.92754 13.2325 4.92754H17.4678C17.7602 4.92754 17.9972 4.70694 17.9972 4.43479V0.492754C17.9972 0.220605 17.7602 0 17.4678 0Z" fill="#071B2E"/>
<path d="M17.4678 5.91406H13.2325C12.9401 5.91406 12.7031 6.13467 12.7031 6.40682V10.3489C12.7031 10.621 12.9401 10.8416 13.2325 10.8416H17.4678C17.7602 10.8416 17.9972 10.621 17.9972 10.3489V6.40682C17.9972 6.13467 17.7602 5.91406 17.4678 5.91406Z" fill="#071B2E"/>
<path d="M4.76471 12.0703H0.529412C0.237017 12.0703 0 12.2909 0 12.5631V16.5051C0 16.7772 0.237017 16.9979 0.529412 16.9979H4.76471C5.0571 16.9979 5.29412 16.7772 5.29412 16.5051V12.5631C5.29412 12.2909 5.0571 12.0703 4.76471 12.0703Z" fill="#071B2E"/>
<path d="M11.1163 12.0703H6.88097C6.58858 12.0703 6.35156 12.2909 6.35156 12.5631V16.5051C6.35156 16.7772 6.58858 16.9979 6.88097 16.9979H11.1163C11.4087 16.9979 11.6457 16.7772 11.6457 16.5051V12.5631C11.6457 12.2909 11.4087 12.0703 11.1163 12.0703Z" fill="#071B2E"/>
<path d="M17.4678 12.0703H13.2325C12.9401 12.0703 12.7031 12.2909 12.7031 12.5631V16.5051C12.7031 16.7772 12.9401 16.9979 13.2325 16.9979H17.4678C17.7602 16.9979 17.9972 16.7772 17.9972 16.5051V12.5631C17.9972 12.2909 17.7602 12.0703 17.4678 12.0703Z" fill="#071B2E"/>
</svg>
