<svg width="61" height="19" viewBox="0 0 61 19" fill="none" xmlns="http://www.w3.org/2000/svg">
<g clip-path="url(#clip0_152_397)">
<path d="M58.5326 2.561L57.0175 4.479L55.0979 6.911L54.7142 7.4C54.6597 7.46928 54.5994 7.53321 54.5341 7.591C54.513 7.61049 54.4909 7.62885 54.4681 7.646C54.3889 7.69867 54.3088 7.74967 54.2277 7.799C53.3776 8.32648 52.4105 8.60507 51.4256 8.6063C50.4407 8.60753 49.4731 8.33135 48.6217 7.806H48.617C48.5274 7.75 48.4379 7.693 48.3502 7.633C48.3061 7.59801 48.2641 7.55992 48.2248 7.519C48.1883 7.48162 48.1537 7.44224 48.1211 7.401L47.9137 7.138L45.8206 4.479L44.3046 2.558C44.1466 2.35685 44.0397 2.1161 43.9943 1.85871C43.949 1.60132 43.9666 1.33589 44.0454 1.08776C44.1243 0.839628 44.2618 0.617077 44.4448 0.441353C44.6279 0.265629 44.8503 0.142596 45.0909 0.0839981C45.1965 0.0592479 45.3042 0.0468411 45.4124 0.0469985H45.4341C45.6454 0.0477867 45.8538 0.0977155 46.0449 0.193263C46.236 0.288811 46.405 0.427651 46.54 0.599998L50.3112 5.4C50.4467 5.57202 50.6161 5.71039 50.8075 5.80534C50.999 5.90029 51.2078 5.9495 51.419 5.9495C51.6303 5.9495 51.8391 5.90029 52.0306 5.80534C52.222 5.71039 52.3914 5.57202 52.5269 5.4L56.3188 0.599998C56.4544 0.428358 56.6238 0.290269 56.815 0.195427C57.0062 0.100584 57.2146 0.0512887 57.4257 0.0509995C57.5339 0.050842 57.6416 0.0632489 57.7472 0.087999C57.9874 0.14706 58.2094 0.270325 58.392 0.446068C58.5746 0.62181 58.7118 0.844185 58.7905 1.09205C58.8692 1.3399 58.8869 1.605 58.8417 1.86212C58.7966 2.11924 58.6901 2.35982 58.5326 2.561Z" fill="#1F65E8"/>
<path d="M57.7483 0.0840606C57.6427 0.0593105 57.535 0.0469037 57.4268 0.0470611C57.2153 0.0476937 57.0064 0.0975425 56.815 0.193091C56.6237 0.288639 56.4543 0.42756 56.319 0.600061L52.527 5.40006C52.3916 5.57208 52.2221 5.71045 52.0307 5.8054C51.8393 5.90035 51.6305 5.94956 51.4192 5.94956C51.2079 5.94956 50.9992 5.90035 50.8077 5.8054C50.6163 5.71045 50.4469 5.57208 50.3114 5.40006L46.5402 0.600061C46.4047 0.427692 46.2352 0.288996 46.0436 0.193784C45.852 0.0985708 45.643 0.0491651 45.4314 0.04906H45.4097C45.3016 0.0489026 45.1938 0.0613094 45.0882 0.0860595C45.0882 0.0860595 45.0882 0.079062 45.0882 0.076062C45.0882 0.073062 45.0882 0.05806 45.0882 0.04906C45.0878 0.0457449 45.0878 0.0423776 45.0882 0.0390625H46.1037L46.5364 0.59006L50.3077 5.39006C50.4431 5.56208 50.6126 5.70045 50.804 5.7954C50.9954 5.89035 51.2042 5.93956 51.4155 5.93956C51.6267 5.93956 51.8355 5.89035 52.027 5.7954C52.2184 5.70045 52.3878 5.56208 52.5233 5.39006L56.3153 0.59006L56.748 0.0420623H57.7408C57.7413 0.0453775 57.7413 0.0487448 57.7408 0.0520599C57.7408 0.0610599 57.7408 0.0700619 57.7408 0.0790619C57.7408 0.0880619 57.7483 0.0810606 57.7483 0.0840606Z" fill="#1F65E8"/>
<path d="M38.8786 1.60004L38.7844 1.50004L38.7325 1.44804L38.7212 1.43604L38.6269 1.34504C38.575 1.29704 38.5213 1.25004 38.4676 1.20404C38.4327 1.17404 38.3987 1.14504 38.3639 1.11704C38.329 1.08904 38.2743 1.04504 38.2281 1.01104C38.1338 0.942041 38.0442 0.877043 37.9452 0.816043C37.8463 0.755043 37.7567 0.696044 37.6567 0.642044C37.5568 0.588044 37.4588 0.542043 37.3569 0.491043C37.3107 0.470043 37.2627 0.448043 37.2155 0.429043L37.1901 0.418041L37.0467 0.362042L36.9063 0.312042L36.8704 0.300042L36.8158 0.282043L36.7771 0.271041L36.6781 0.242044L36.565 0.211041C36.1248 0.100461 35.6738 0.0457463 35.2215 0.048043H29.4156C29.2716 0.048043 29.1334 0.108727 29.0316 0.216748C28.9298 0.324768 28.8726 0.471277 28.8726 0.624041V18.34C28.8726 18.4928 28.9298 18.6393 29.0316 18.7473C29.1334 18.8553 29.2716 18.916 29.4156 18.916H31.2258C31.2975 18.9165 31.3685 18.902 31.4348 18.8733C31.5011 18.8446 31.5615 18.8022 31.6123 18.7487C31.6631 18.6952 31.7035 18.6315 31.731 18.5614C31.7585 18.4912 31.7727 18.416 31.7727 18.34V10.9H31.7849V7.83004H31.7727V3.70004C31.7727 3.54701 31.83 3.40025 31.932 3.29204C32.034 3.18383 32.1724 3.12304 32.3167 3.12304H35.2243C35.9006 3.12304 36.4396 3.33671 36.8412 3.76404C37.2429 4.19137 37.4443 4.76271 37.4456 5.47804C37.4456 6.19604 37.2441 6.76804 36.8412 7.19404L36.8026 7.23304C36.7928 7.24412 36.7825 7.25448 36.7714 7.26404C36.7479 7.28604 36.7243 7.30904 36.6989 7.33104L36.6922 7.33604C36.6678 7.35844 36.6424 7.37947 36.6159 7.39904C36.598 7.41304 36.581 7.42704 36.5631 7.43904L36.5141 7.47404C36.4801 7.49704 36.4452 7.51904 36.4103 7.54004L36.3415 7.57904L36.3132 7.59404C36.2915 7.6059 36.2691 7.61659 36.2463 7.62604C36.1087 7.69078 35.9648 7.73972 35.8173 7.77204C35.6223 7.81488 35.4235 7.83566 35.2243 7.83404C35.0801 7.8343 34.942 7.89521 34.8402 8.00339C34.7385 8.11157 34.6812 8.25818 34.6812 8.41104V10.33C34.6812 10.4829 34.7385 10.6295 34.8402 10.7376C34.942 10.8458 35.0801 10.9067 35.2243 10.907C35.3101 10.907 35.394 10.907 35.477 10.901L35.6099 10.894C35.674 10.894 35.7381 10.884 35.7985 10.878L35.8729 10.87C35.9418 10.862 36.0115 10.853 36.0794 10.842L36.2227 10.819L36.3302 10.798L36.4377 10.775C36.5159 10.757 36.5933 10.737 36.6706 10.716L36.6932 10.709L36.7875 10.68C36.844 10.663 36.8997 10.645 36.9553 10.625C37.0109 10.605 37.0656 10.585 37.1203 10.564C37.175 10.543 37.2146 10.527 37.257 10.507L37.3041 10.486C37.3503 10.466 37.3984 10.445 37.4418 10.423C37.6688 10.3135 37.8871 10.1844 38.0942 10.037L38.1593 9.99104C38.4157 9.80354 38.6553 9.59131 38.8749 9.35704C39.8491 8.32504 40.3359 7.03204 40.3353 5.47804C40.3346 3.92404 39.8491 2.63137 38.8786 1.60004Z" fill="#1F65E8"/>
<path d="M54.2276 7.80003C54.3123 7.75776 54.393 7.7065 54.468 7.64703C54.3888 7.6977 54.3087 7.7487 54.2276 7.80003ZM48.3501 7.63303C48.4328 7.70084 48.5223 7.75885 48.6169 7.80603C48.5273 7.74603 48.4378 7.68903 48.3501 7.62903V7.63303Z" fill="#1F65E8"/>
<path d="M57.8889 18.9161C57.8356 18.9161 57.7825 18.9131 57.7296 18.9071C57.3622 18.8638 57.0246 18.6722 56.7868 18.3721L52.5149 12.9811C52.3787 12.813 52.2099 12.6782 52.0198 12.5861C51.8298 12.494 51.6233 12.4466 51.4143 12.4474C51.2054 12.4482 50.9991 12.497 50.8097 12.5905C50.6203 12.684 50.4522 12.82 50.3172 12.9891L46.0802 18.3681C45.8405 18.6718 45.4992 18.865 45.1279 18.9071C45.0769 18.9131 45.0256 18.9161 44.9743 18.9161H44.9724C44.6968 18.9178 44.4265 18.8358 44.1935 18.6798C43.9605 18.5238 43.7743 18.3003 43.6572 18.0357C43.5401 17.7711 43.497 17.4764 43.5327 17.1866C43.5684 16.8968 43.6816 16.6239 43.8589 16.4001L46.1415 13.5001L47.4812 11.8001L47.6622 11.5691C47.7008 11.5202 47.7424 11.4741 47.7867 11.4311C47.8448 11.3724 47.9079 11.3195 47.9752 11.2731C48.9247 10.4895 50.0867 10.0504 51.2895 10.0207C52.4923 9.99096 53.6722 10.3722 54.6551 11.1081C54.6381 11.1161 54.6221 11.1241 54.607 11.1331C54.8263 11.2277 55.0205 11.3777 55.1727 11.5701L55.2076 11.6141L56.7161 13.5311L58.9788 16.4041C59.1537 16.6263 59.2656 16.8966 59.3015 17.1835C59.3375 17.4704 59.2961 17.7623 59.182 18.0253C59.0679 18.2882 58.8858 18.5115 58.657 18.6691C58.4281 18.8268 58.1618 18.9124 57.8889 18.9161Z" fill="#1F65E8"/>
<path d="M24.2633 0.0469971L19.8462 13.693L15.2368 0.0469971H12.1462L7.53587 13.693L3.1188 0.0469971H0.0537109L6.16031 18.916H8.83978L13.6915 4.579L18.5423 18.916H21.2217L27.3283 0.0469971H24.2633Z" fill="#1F65E8"/>
<path d="M38.8786 1.59999C38.2447 0.917181 37.4427 0.436946 36.564 0.213989C36.5704 0.259019 36.5738 0.304457 36.5744 0.349988C36.5744 0.814988 36.169 1.33199 35.6966 1.27999C34.8717 1.18799 34.0411 1.17999 33.2161 1.09199C32.8644 1.05299 32.5514 0.859989 32.4138 0.538989C32.2983 0.643766 32.162 0.719576 32.0151 0.760782C31.8683 0.801988 31.7145 0.807526 31.5652 0.776987C31.1578 0.71556 30.7427 0.747616 30.3481 0.870987C30.2112 0.914859 30.0656 0.919002 29.9266 0.882987C29.8239 1.42699 29.9266 2.01699 29.9794 2.57499C30.0737 3.53599 30.1029 4.50899 30.1303 5.47499C30.1878 7.49299 30.1661 9.51299 30.1058 11.532C30.0831 12.284 29.3817 12.563 28.8726 12.37V18.92H31.7727V10.9H31.7849V7.82999H31.7727V3.11899H35.2243C35.9006 3.11899 36.4396 3.33266 36.8412 3.75999C37.2429 4.18732 37.4443 4.75866 37.4456 5.47399C37.4456 6.19199 37.2441 6.76399 36.8412 7.18999C36.5613 7.48576 36.205 7.6869 35.8173 7.76799C35.8778 7.8986 35.9048 8.04382 35.8955 8.189C35.8862 8.33419 35.8411 8.47422 35.7645 8.59499C35.5052 9.04499 35.4628 9.56299 35.4581 10.147C35.4581 10.397 35.4647 10.647 35.477 10.897C36.829 10.8397 37.9638 10.325 38.8815 9.35299C39.8557 8.32099 40.3425 7.02799 40.3419 5.47399C40.3412 3.91999 39.8535 2.62866 38.8786 1.59999Z" fill="#1F65E8"/>
<path d="M45.4095 0.0469985C45.3013 0.0468411 45.1936 0.0592479 45.088 0.083998C44.8474 0.142596 44.625 0.265629 44.4419 0.441353C44.2589 0.617077 44.1214 0.839628 44.0425 1.08776C43.9637 1.33589 43.9461 1.60132 43.9914 1.85871C44.0368 2.1161 44.1437 2.35685 44.3017 2.558L42.3218 0.0469985H45.4095Z" fill="#1F65E8"/>
<path d="M46.5399 0.599951C46.4044 0.427582 46.2349 0.288886 46.0433 0.193674C45.8517 0.098461 45.6427 0.0490553 45.4312 0.0489502H46.1034L46.5399 0.599951Z" fill="#1F65E8"/>
<path d="M57.4257 0.0469971C57.2143 0.0477758 57.0057 0.0976942 56.8144 0.193237C56.6232 0.288781 56.454 0.427625 56.3188 0.599997L56.7516 0.050998L57.4257 0.0469971Z" fill="#1F65E8"/>
<path d="M58.5327 2.561C58.6912 2.3599 58.7984 2.11906 58.8441 1.86148C58.8898 1.6039 58.8725 1.3382 58.7938 1.08974C58.7151 0.841272 58.5777 0.618359 58.3947 0.442284C58.2117 0.266209 57.9891 0.142852 57.7483 0.0839981C57.6427 0.0592479 57.5349 0.0468411 57.4268 0.0469985H60.5192L58.5327 2.561Z" fill="#1F65E8"/>
<path d="M44.972 18.9161H41.8833L43.8632 16.4041C43.6873 16.6276 43.5752 16.8997 43.5399 17.1884C43.5047 17.4772 43.5477 17.7706 43.6641 18.0342C43.7805 18.2979 43.9653 18.5209 44.197 18.6771C44.4286 18.8333 44.6975 18.9162 44.972 18.9161Z" fill="#1F65E8"/>
<path d="M46.0809 18.368L45.6491 18.916H44.9722C45.0236 18.916 45.0748 18.913 45.1258 18.907C45.4981 18.8657 45.8406 18.6724 46.0809 18.368Z" fill="#1F65E8"/>
<path d="M57.8887 18.9159H57.2156L56.7856 18.3719C57.0235 18.672 57.361 18.8636 57.7285 18.9069C57.7817 18.913 57.8352 18.916 57.8887 18.9159Z" fill="#1F65E8"/>
<path d="M60.9764 18.916H57.8887C58.1634 18.9158 58.4325 18.8324 58.6641 18.6756C58.8957 18.5189 59.0804 18.2952 59.1964 18.031C59.3122 17.7668 59.3547 17.473 59.3186 17.184C59.2825 16.8951 59.1695 16.6231 58.9927 16.4L60.9764 18.916Z" fill="#1F65E8"/>
<path d="M46.0811 18.368L45.6493 18.916H45.1289V18.907C45.5002 18.8649 45.8415 18.6717 46.0811 18.368Z" fill="#1F65E8"/>
<path d="M54.6598 11.105C54.8402 11.2491 55.0133 11.4033 55.1783 11.567C55.2641 11.676 54.4571 11.249 54.4571 11.249L54.3628 11.024L54.6598 11.105Z" fill="#1F65E8"/>
</g>
<defs>
<clipPath id="clip0_152_397">
<rect width="61" height="19" fill="white"/>
</clipPath>
</defs>
</svg>
